<svg width="40" height="32" viewBox="0 0 40 32" fill="none" xmlns="http://www.w3.org/2000/svg">
<g clip-path="url(#clip0_290_5879)">
<path d="M3.53161 19.8559C3.53161 19.8822 3.54494 19.8954 3.55827 19.9218C3.56942 19.9518 3.57397 19.9839 3.57161 20.0159C3.54718 19.9659 3.53356 19.9114 3.53161 19.8559ZM37.084 9.54622C37.084 9.54622 36.023 9.04175 35.8221 8.64363C35.5777 8.18496 35.2224 7.7931 34.7878 7.50293C34.4249 7.30434 34.5868 6.16269 33.2707 5.51234C33.2707 5.51234 33.1754 4.34434 31.324 4.51752C31.2174 4.53202 31.1166 4.57402 31.0316 4.63929C30.9467 4.70455 30.8807 4.79077 30.8402 4.88928C31.0516 5.19766 31.181 5.55372 31.2164 5.92457C31.2297 6.01869 31.1211 6.09681 31.0421 6.09681C31.0189 6.09784 30.9958 6.09418 30.9742 6.08604C30.9525 6.07791 30.9328 6.06548 30.9162 6.04952C30.8996 6.03355 30.8865 6.0144 30.8777 5.99323C30.8689 5.97207 30.8645 5.94934 30.8649 5.92646C30.8367 5.69708 30.7688 5.47421 30.664 5.26763C30.5513 5.05719 30.4013 4.86846 30.2211 4.71046C30.0202 4.6342 29.8036 4.60676 29.5897 4.63046C29.1468 4.72457 29.2678 5.9481 29.5897 6.11657C29.0227 6.42703 28.3963 6.61682 27.7507 6.67375C26.824 6.71328 23.6821 7.16505 22.9707 7.31093C22.2592 7.45681 13.8278 7.69587 13.8278 7.69587C13.149 7.73949 12.4677 7.66754 11.8135 7.48316C10.7392 7.16505 7.30208 6.83281 6.02684 7.38905C5.45604 7.35157 4.88336 7.35157 4.31256 7.38905C3.52018 7.45493 2.07065 7.99893 2.07065 10.2286C2.01571 11.3337 2.08309 12.4414 2.27161 13.5321C2.33192 14.646 2.26451 15.7631 2.07065 16.862C1.97542 17.2601 1.85542 19.4493 2.6078 20.4046C2.73436 20.1656 2.84198 19.9174 2.9297 19.662C2.99637 19.3439 3.07732 19.038 3.12018 18.7208V18.5881C3.03648 17.6843 2.90647 16.7853 2.73065 15.8945C2.64799 14.9584 2.63239 14.0177 2.68399 13.0794C2.72399 12.1505 2.72399 11.2083 2.80494 10.2794C2.88589 9.57634 3.19446 8.76693 3.98684 8.63422C4.032 8.62695 4.07831 8.63186 4.12089 8.64842C4.16346 8.66498 4.20073 8.6926 4.22875 8.72834C4.27539 8.73466 4.31962 8.75265 4.35724 8.78061C4.39486 8.80858 4.42463 8.84558 4.44371 8.8881C4.4628 8.93063 4.47057 8.97727 4.46628 9.0236C4.46199 9.06993 4.4458 9.11441 4.41922 9.15281C3.72113 10.0281 4.0297 11.2761 4.0697 12.2973C4.10974 13.3523 3.84551 14.3968 3.3078 15.309C3.25217 15.7676 3.2634 16.2316 3.34113 16.6869V16.7001C3.35754 16.7561 3.36651 16.814 3.3678 16.8723C3.59323 17.6983 3.639 18.5622 3.50208 19.4069C3.41255 19.774 3.2819 20.1301 3.11256 20.4686C3.08589 20.6354 3.07251 20.8041 3.07256 20.973C3.08579 20.9849 3.09623 20.9994 3.10314 21.0157C3.11006 21.032 3.11327 21.0495 3.11256 21.0672C3.12589 21.1613 3.13923 21.2658 3.15256 21.3589C3.53429 22.5595 3.75834 23.8036 3.81922 25.0606C3.72306 25.3391 3.58743 25.6027 3.41637 25.8436C3.26875 26.0695 3.28208 26.189 3.55065 26.2418C3.6384 26.2488 3.72024 26.2883 3.77988 26.3523C3.83953 26.4163 3.87261 26.5002 3.87256 26.5872C3.88589 26.9326 3.91256 27.2639 3.89922 27.6093C3.88589 27.9547 3.98018 28.1269 4.30208 28.1269C4.90589 28.1269 5.51065 28.1006 6.10113 28.0742C6.15277 28.0717 6.20331 28.0587 6.24955 28.0358C6.29579 28.013 6.33671 27.9808 6.3697 27.9415C6.39637 27.8756 6.3297 27.7429 6.24875 27.6761C6.22208 27.6629 6.20875 27.6366 6.19542 27.6234C5.86485 27.2107 5.61048 26.7436 5.44399 26.2436C5.41661 26.1578 5.40311 26.0682 5.40399 25.9782V25.726C5.14642 25.1476 5.00074 24.5267 4.97446 23.8954C4.77994 22.4534 4.87706 20.9876 5.26018 19.5829C5.43446 19.0521 5.70303 18.3594 6.3478 18.2653C6.71746 18.2432 7.08841 18.2749 7.44875 18.3594C7.69065 18.3989 7.93256 18.4535 8.18684 18.5053C9.23997 18.4182 10.3004 18.4944 11.3297 18.7312C12.4173 19.1161 16.7945 19.5142 17.6802 19.1425C18.9664 18.9004 20.2784 18.82 21.5849 18.9034C21.5261 19.8623 21.6167 20.8244 21.8535 21.7561C22.0373 22.3766 22.1676 23.0113 22.243 23.6535L22.1764 25.5359C22.1339 25.9914 21.987 26.4314 21.7468 26.8225C21.7068 26.8752 21.7468 26.9947 21.7735 27.0747C21.8484 27.1897 21.9155 27.3095 21.9745 27.4333C22.0697 27.7514 22.0954 28.0836 22.203 28.3886C22.243 28.5081 22.404 28.6709 22.5116 28.6709C23.0888 28.6841 23.6802 28.6577 24.2573 28.6314C24.4049 28.6182 24.4583 28.5119 24.3649 28.3923C24.1907 28.1533 24.0154 27.9142 23.8278 27.6761H23.9754C23.9357 27.6355 23.9078 27.5851 23.8945 27.5302C23.8206 27.2698 23.8206 26.9944 23.8945 26.734C23.9483 26.4318 23.9617 26.1239 23.9345 25.8182C23.8609 25.1856 23.7535 24.5573 23.6126 23.9359C23.4826 23.372 23.4678 22.7882 23.5692 22.2186C23.6706 21.6491 23.8861 21.1053 24.203 20.6192C24.9423 19.5721 25.8232 18.63 26.8211 17.8192C27.0484 17.487 27.2545 17.1413 27.4383 16.7839C27.7068 16.253 28.2954 16.2267 28.9154 14.525C29.3747 13.1878 30.3361 12.076 31.6011 11.4192C32.2183 11.2469 32.9973 11.8832 34.0583 11.4192C35.1192 10.9552 35.3335 11.3665 35.9249 11.3928C36.1466 11.3975 36.3657 11.3451 36.5606 11.2405C36.7555 11.136 36.9195 10.9831 37.0363 10.7969C37.1531 10.6106 37.2188 10.3975 37.2268 10.1785C37.2349 9.95949 37.185 9.74222 37.0821 9.5481L37.084 9.54622ZM33.2745 7.4361C33.192 7.43167 33.1144 7.39618 33.0576 7.33691C33.0008 7.27765 32.9691 7.19914 32.9691 7.11752C32.9691 7.03589 33.0008 6.95738 33.0576 6.89812C33.1144 6.83886 33.192 6.80336 33.2745 6.79893C33.3603 6.79955 33.4425 6.83386 33.5027 6.89432C33.563 6.95477 33.5965 7.03641 33.5959 7.12128C33.5953 7.20615 33.5605 7.2873 33.4994 7.34687C33.4382 7.40644 33.3556 7.43955 33.2697 7.43893L33.2745 7.4361Z" fill="#0072BB"/>
<path d="M5.37039 20.8169C5.38154 20.847 5.38608 20.8791 5.38372 20.911C5.36835 20.8593 5.3594 20.8058 5.35706 20.752C5.36276 20.7733 5.36721 20.795 5.37039 20.8169Z" fill="#0072BB"/>
<path d="M8.75251 27.6365C8.76585 27.676 8.59156 27.6629 8.6049 27.7024C8.53254 27.7387 8.4557 27.7656 8.37632 27.7824C7.9468 27.7956 7.51918 27.8219 7.08775 27.8219C6.76585 27.8219 6.69823 27.7419 6.6849 27.4238C6.67156 27.2252 6.67156 27.0257 6.6449 26.8271V26.8139C6.63407 26.7174 6.59687 26.6257 6.53728 26.5485C6.50164 26.4979 6.45586 26.4551 6.40277 26.4227C6.34969 26.3903 6.29044 26.3691 6.2287 26.3603C6.20129 26.3561 6.17551 26.3447 6.154 26.3274C6.1325 26.3101 6.11605 26.2874 6.10636 26.2617C6.09666 26.236 6.09406 26.2083 6.09882 26.1813C6.10359 26.1542 6.11554 26.129 6.13347 26.108C6.22724 25.9908 6.30415 25.8612 6.36204 25.7231C6.24109 25.0332 6.09347 24.1306 6.01251 23.4944C5.89391 23.0618 5.72718 22.6436 5.51537 22.2473C5.36016 21.7541 5.31883 21.2328 5.39442 20.7217L5.44775 20.7612C5.42109 20.7349 5.40775 20.7217 5.39442 20.7217H5.3668C5.40178 20.476 5.45106 20.2324 5.51442 19.9923C5.59967 19.597 5.76418 19.2226 5.99823 18.8911C6.29347 18.5325 6.79061 18.652 7.2068 18.7029C7.31068 18.714 7.41374 18.7316 7.51537 18.7556C7.39678 19.8882 7.36081 21.0278 7.40775 22.1655C7.46109 22.4045 7.51537 22.9749 7.55537 23.3598C7.58204 23.5857 7.59537 23.7579 7.59537 23.7579C7.59537 23.7579 7.59537 24.2088 7.6487 24.78C7.66759 25.4969 7.88607 26.1948 8.28013 26.797C8.67251 27.2224 8.8468 27.501 8.75251 27.6365Z" fill="#0072BB"/>
<path d="M26.4221 27.6468C26.3393 27.684 26.254 27.7154 26.1669 27.7409C25.697 27.7673 25.2272 27.7805 24.7573 27.7805H24.7307C24.4221 27.6863 24.1802 27.5282 24.1802 27.2365C24.1802 26.971 24.2611 26.6925 24.2878 26.427C24.308 26.1213 24.2946 25.8142 24.2478 25.5113C24.1811 24.9673 24.0469 24.4233 23.9526 23.8793C23.8384 23.3053 23.8384 22.7149 23.9526 22.1409C24.0803 21.6252 24.2985 21.1356 24.5973 20.6943C24.9861 20.1327 25.4329 19.6125 25.9307 19.1423C25.8743 19.6411 25.7569 20.1313 25.5811 20.6021C25.5705 21.398 25.4113 22.1852 25.1116 22.924C25.0583 23.0699 25.0164 23.163 25.0164 23.163C25.0164 23.163 25.0973 26.4007 25.8088 26.8515C25.8671 26.8848 25.9211 26.9249 25.9697 26.971C26.0507 27.0906 26.1307 27.1969 26.2249 27.3165C26.2516 27.3428 26.2783 27.3823 26.3059 27.4106C26.3649 27.4605 26.3821 27.5668 26.4221 27.6468Z" fill="#0072BB"/>
<path d="M5.38372 20.8969C5.36835 20.8451 5.3594 20.7917 5.35706 20.7378C5.35706 20.7641 5.37039 20.7773 5.38372 20.8037V20.8969Z" fill="#0072BB"/>
</g>
<defs>
<clipPath id="clip0_290_5879">
<rect width="40" height="32" fill="white"/>
</clipPath>
</defs>
</svg>
