<svg width="40" height="35" viewBox="0 0 40 35" fill="none" xmlns="http://www.w3.org/2000/svg">
<g clip-path="url(#clip0_290_5880)">
<path d="M34.5389 12.1014C34.5234 11.8728 33.5623 11.7962 33.3767 11.7809C33.1953 11.6921 33.024 11.5847 32.8656 11.4604C32.8182 11.3588 32.7613 11.2618 32.6956 11.1706C32.5998 11.0214 32.4729 10.894 32.3233 10.7967C32.1737 10.6994 32.0048 10.6345 31.8278 10.6062C31.7039 10.5986 31.5795 10.5986 31.4556 10.6062C31.2413 10.6338 31.0291 10.6748 30.82 10.7287C30.7889 10.7134 30.7734 10.7134 30.7578 10.6981C30.6164 10.6234 30.4933 10.5191 30.3973 10.3924C30.3013 10.2658 30.2347 10.12 30.2023 9.96527C30.1867 9.91933 30.1867 9.85589 30.1711 9.81324C30.1245 9.70386 30.06 9.59449 30.0167 9.49277C29.9734 9.39105 29.8923 9.23355 29.8467 9.24886C29.7874 9.25729 29.7305 9.27791 29.6798 9.30938C29.629 9.34085 29.5856 9.38246 29.5523 9.43152C29.3823 9.75199 29.2423 10.1031 29.0878 10.4389C29.0319 10.587 28.9536 10.7261 28.8556 10.8512C28.0956 11.7262 27.2745 12.5596 26.5611 13.4762C26.1839 14.0287 25.661 14.4697 25.0485 14.7519C24.4361 15.0342 23.7571 15.1471 23.0845 15.0785C21.8003 14.9465 20.5047 14.9671 19.2256 15.1398C17.3965 15.3041 15.5538 15.2468 13.7389 14.9692C12.5611 14.8467 11.3989 14.7865 10.22 14.7253C10.0731 14.7164 9.93114 14.6695 9.8086 14.5892C9.68605 14.5089 9.58726 14.3981 9.52225 14.2681C8.72821 13.0496 8.21506 11.6745 8.01892 10.2398C7.89853 9.52777 7.8162 8.81001 7.77225 8.08949C7.71488 7.46368 7.88852 6.83848 8.26135 6.32845C8.63418 5.81842 9.18123 5.45773 9.80226 5.31245C9.91573 5.29227 10.0255 5.2554 10.1278 5.20308C10.3756 5.00511 10.6545 4.82136 10.5623 4.43745C10.5197 4.28182 10.424 4.14534 10.2913 4.05094C10.1585 3.95653 9.99685 3.90995 9.83337 3.91902C9.39374 3.89671 8.95532 3.98158 8.55701 4.16608C8.15869 4.35058 7.81281 4.62902 7.55003 4.97667C7.03825 5.58177 6.70707 6.3148 6.59337 7.09417C6.18624 9.39387 6.41103 11.7589 7.24448 13.9443C7.4767 14.5853 7.83337 15.1803 8.11225 15.8037C8.14666 15.8779 8.16446 15.9584 8.16446 16.04C8.16446 16.1215 8.14666 16.202 8.11225 16.2762C7.19783 18.0067 6.90828 19.9919 7.29114 21.9057C7.35835 22.5784 7.15935 23.2507 6.73559 23.7826C6.41003 24.3929 6.0067 24.9573 5.72781 25.5829C5.55426 26.0101 5.46489 26.4659 5.46448 26.926C5.47885 28.0899 5.68293 29.2439 6.06892 30.344C6.12945 30.5498 6.26272 30.7275 6.44468 30.845C6.62663 30.9626 6.84528 31.0122 7.06114 30.985C7.22275 30.9904 7.38347 31.0109 7.54114 31.0462C7.67715 31.0856 7.82307 31.0747 7.95153 31.0157C8.08 30.9567 8.18218 30.8536 8.23892 30.7257C8.31307 30.5983 8.33672 30.4484 8.30534 30.3048C8.27396 30.1613 8.18975 30.0342 8.06892 29.9481C7.3867 29.4909 7.37114 28.7581 7.27892 28.0887C7.24269 27.7297 7.33195 27.3693 7.53195 27.0671C7.73195 26.7648 8.03073 26.5387 8.37892 26.4262C9.79854 25.7303 11.0838 24.7957 12.1767 23.6645V23.6798C12.8133 23.0964 13.6219 22.7275 14.4856 22.6265C15.3957 22.5607 16.3107 22.6345 17.1978 22.8453C18.5623 22.9973 19.9256 23.1045 21.29 23.227C21.4304 23.2397 21.572 23.2293 21.7089 23.1964C21.9723 23.1504 22.1278 23.2729 22.1123 23.5168C22.157 24.6334 22.1001 25.7517 21.9423 26.8582C21.6652 27.5592 21.2783 28.2132 20.7956 28.7964C20.6106 29.0618 20.44 29.3368 20.2845 29.62C20.1891 29.8347 20.1725 30.0754 20.2376 30.3009C20.3027 30.5264 20.4453 30.7226 20.6411 30.8559C20.8036 30.9756 20.9957 31.0501 21.1974 31.0716C21.3992 31.0932 21.6031 31.061 21.7878 30.9784C21.9278 30.9478 22.0823 30.6885 22.0978 30.5212C22.2127 29.6517 22.5848 28.8347 23.1678 28.1718C24.0125 27.1781 24.5072 25.9416 24.5778 24.6478V24.2967C24.5803 24.2354 24.5751 24.174 24.5623 24.114C24.5623 24.0221 24.5934 23.8701 24.64 23.8548C24.6587 23.7796 24.6847 23.7063 24.7178 23.636C24.8785 23.3914 25.111 23.2007 25.3845 23.0892C26.8766 22.4825 28.2152 21.5606 29.3056 20.3887C29.7588 19.3265 30.0581 18.2069 30.1945 17.0626C30.2382 16.5545 30.4175 16.0668 30.7143 15.6489C31.0111 15.2309 31.4148 14.8976 31.8845 14.6826C32.0478 14.6515 32.2137 14.6361 32.38 14.6367C32.3956 14.6367 32.4111 14.6367 32.4111 14.6214H32.4267C32.4423 14.6214 32.4578 14.6367 32.4734 14.6367C32.8184 14.6127 33.1579 14.539 33.4811 14.4179C33.5123 14.4026 33.5278 14.372 33.5589 14.3567C33.59 14.3414 33.6211 14.3107 33.6523 14.2801C33.6834 14.2495 33.6989 14.2342 33.7145 14.2189C33.73 14.2035 33.73 14.1882 33.7456 14.1729C33.7611 14.1576 33.7611 14.1423 33.7767 14.127C33.7952 14.0918 33.8108 14.0552 33.8234 14.0176C33.9345 13.7584 34.0867 13.4992 34.1956 13.2246C34.2455 13.0599 34.2827 12.8918 34.3067 12.7215V12.6909C34.2972 12.6398 34.3026 12.5871 34.3223 12.5389C34.3872 12.4847 34.44 12.4178 34.4773 12.3425C34.5146 12.2672 34.5356 12.1851 34.5389 12.1014ZM32.0745 12.132C31.9943 12.132 31.9175 12.1006 31.8608 12.0448C31.8041 11.9891 31.7723 11.9134 31.7723 11.8345C31.7723 11.7556 31.8041 11.6799 31.8608 11.6241C31.9175 11.5683 31.9943 11.537 32.0745 11.537C32.1546 11.537 32.2315 11.5683 32.2882 11.6241C32.3449 11.6799 32.3767 11.7556 32.3767 11.8345C32.3767 11.9134 32.3449 11.9891 32.2882 12.0448C32.2315 12.1006 32.1546 12.132 32.0745 12.132Z" fill="#0072BB"/>
<path d="M18.06 30.869C17.9105 30.9786 17.7341 31.0469 17.5489 31.067C16.9286 31.1401 16.3005 31.024 15.7494 30.7343C15.1984 30.4446 14.751 29.9953 14.4678 29.4472C14.0489 28.8522 13.6311 28.2572 13.2278 27.6622C13.0756 27.4515 12.9554 27.2201 12.8711 26.9753C12.6855 26.0292 12.5455 25.0831 12.3755 24.137C12.3755 24.1064 12.36 24.0911 12.36 24.0604C13.0478 23.3941 13.9685 23.0122 14.9333 22.9929C15.4001 22.978 15.8672 23.0087 16.3278 23.0848C16.279 23.1992 16.2375 23.3165 16.2033 23.4359C16.0022 24.2595 15.7389 25.0689 15.4744 25.8618C15.2896 26.2409 15.2163 26.6633 15.2628 27.0812C15.3094 27.4992 15.4739 27.8959 15.7378 28.2265C16.0322 28.5623 16.3733 28.8675 16.6833 29.1879C16.9776 29.5614 17.3845 29.8336 17.8455 29.9656C18.42 30.0892 18.4978 30.5168 18.06 30.869Z" fill="#0072BB"/>
<path d="M24.6356 24.2922V24.6433C24.6278 24.5264 24.6278 24.4091 24.6356 24.2922Z" fill="#0072BB"/>
<path d="M31.0522 30.3648C31.029 30.514 30.9551 30.6511 30.8424 30.7536C30.7298 30.8561 30.5852 30.918 30.4322 30.9291C29.9522 30.9598 29.4711 30.9904 28.9878 31.0385C28.863 31.0606 28.7342 31.0411 28.6219 30.9831C28.5096 30.925 28.4202 30.8318 28.3678 30.7181C27.8567 29.6648 27.3133 28.6126 26.8645 27.5462C26.5233 26.7532 26.3089 25.8979 25.9967 25.0743C25.8311 24.6139 25.5194 24.2182 25.1078 23.9456C25.1233 23.9149 25.1233 23.8996 25.1389 23.8843C25.2789 23.5485 25.6811 23.4468 25.9756 23.2893C26.9956 22.8233 27.9536 22.2356 28.8278 21.5393C28.4803 22.1135 28.2832 22.7637 28.2545 23.4315C28.2626 25.1016 28.492 26.7635 28.9367 28.3752C29.0545 28.7564 29.2155 29.1233 29.4167 29.469C29.4418 29.5322 29.4797 29.5897 29.528 29.638C29.5764 29.6863 29.6342 29.7245 29.698 29.7502C29.7618 29.7758 29.8302 29.7885 29.8992 29.7873C29.9681 29.7862 30.036 29.7713 30.0989 29.7435C30.2124 29.7048 30.3327 29.689 30.4525 29.6969C30.5724 29.7048 30.6894 29.7362 30.7967 29.7895C30.879 29.8615 30.9444 29.9502 30.9885 30.0495C31.0326 30.1489 31.0544 30.2564 31.0522 30.3648Z" fill="#0072BB"/>
<path d="M31.0822 9.94998C31.0511 10.2092 31.02 10.3164 31.0667 10.4072C31.0186 10.4044 30.9714 10.394 30.9267 10.3765C30.7841 10.2951 30.6705 10.1726 30.6011 10.0255C30.5766 9.97247 30.5609 9.91598 30.5544 9.85811C30.6789 9.72029 30.7867 9.6142 30.88 9.4917C30.9659 9.5193 31.054 9.53979 31.1433 9.55295C31.1444 9.64482 31.1 9.84389 31.0822 9.94998Z" fill="#0072BB"/>
<path d="M33.7945 14.2375C33.7548 14.2949 33.7019 14.3421 33.64 14.3754C33.6711 14.3447 33.7022 14.3294 33.7333 14.2988C33.7453 14.2716 33.7671 14.2498 33.7945 14.2375Z" fill="#0072BB"/>
<path d="M34.4044 12.5596C34.4062 12.6107 34.4009 12.6618 34.3889 12.7116C34.3778 12.6606 34.3833 12.6074 34.4044 12.5596Z" fill="#0072BB"/>
</g>
<defs>
<clipPath id="clip0_290_5880">
<rect width="40" height="35" fill="white"/>
</clipPath>
</defs>
</svg>
