<svg width="40" height="35" viewBox="0 0 40 35" fill="none" xmlns="http://www.w3.org/2000/svg">
<g clip-path="url(#clip0_290_5881)">
<path d="M38.72 8.49622C38.2756 8.22169 37.8522 7.91653 37.4022 7.62122C37.1795 7.47096 37.0026 7.26374 36.8906 7.02187C36.7786 6.77999 36.7358 6.51263 36.7667 6.24856C36.767 6.09201 36.7181 5.9392 36.6267 5.81106C36.3633 5.50591 36.0711 5.21606 35.79 4.92622C35.4299 4.5736 34.9486 4.36675 34.4411 4.34653C33.8056 4.28528 33.1545 4.23716 32.5189 4.1945C32.2958 4.17321 32.0711 4.21097 31.8678 4.30388C31.6106 4.53736 31.409 4.82398 31.2776 5.14318C31.1462 5.46238 31.0882 5.80625 31.1078 6.15013C31.2095 6.91189 31.5448 7.625 32.0689 8.19435C32.27 8.42294 32.6578 8.92716 32.9989 8.92716C33.34 8.92716 33.5256 8.53013 33.6033 8.27091C33.8471 7.3918 33.8582 6.4659 33.6356 5.58138C33.5733 5.33747 33.9611 5.23028 34.0078 5.472C34.2506 6.41367 34.2453 7.40075 33.9922 8.33981C33.8378 8.87356 33.3878 9.5145 32.7367 9.2706C32.4054 9.11178 32.1182 8.87605 31.9 8.58372C31.6516 8.31743 31.4326 8.02595 31.2467 7.71419C30.8755 7.13042 30.6919 6.44997 30.72 5.76185C29.868 6.81953 28.8899 7.77247 27.8067 8.60013C27.1148 9.19052 26.3694 9.71735 25.58 10.174C25.0149 10.4444 24.4177 10.6442 23.8022 10.769C23.0122 10.9878 22.2211 11.1967 21.4311 11.364C20.5749 11.5376 19.6959 11.5745 18.8278 11.4734C17.7433 11.364 16.6578 11.2547 15.5733 11.1683C14.8133 11.107 14.0545 11.0304 13.2945 10.9856C12.4753 10.9373 11.6536 11.0196 10.8611 11.2295C10.3913 11.3163 9.90582 11.2634 9.46668 11.0775C8.66484 10.799 7.95323 10.3145 7.40557 9.67419C6.59078 8.73357 5.62139 7.93423 4.53779 7.3095C3.76936 6.85764 2.87188 6.66559 1.98223 6.76263C1.68843 6.80638 1.40184 6.8884 1.13001 7.00653C1.0788 7.02098 1.03148 7.0464 0.991429 7.08098C0.951379 7.11555 0.919595 7.15842 0.898355 7.2065C0.877116 7.25459 0.866947 7.30671 0.868577 7.35912C0.870208 7.41153 0.883598 7.46294 0.907788 7.50966C0.938899 7.61903 1.13001 7.70763 1.26445 7.73825C1.49018 7.77164 1.71881 7.78191 1.94668 7.76888C2.48013 7.75809 3.00661 7.88966 3.47023 8.14963C3.93386 8.40959 4.31735 8.78825 4.58001 9.24544C5.40358 10.5698 6.50153 11.7083 7.80223 12.5868C8.01363 12.724 8.24319 12.8318 8.48445 12.9073C8.68557 12.9839 8.70668 13.0451 8.59557 13.2125C8.02032 14.2211 7.70126 15.3517 7.66557 16.5079C7.69838 17.0718 7.83504 17.6251 8.0689 18.1409C8.38864 19.1548 8.43156 20.2337 8.19334 21.269C8.01201 22.1274 7.70393 22.9551 7.2789 23.7256C7.17942 23.8939 7.07074 24.0567 6.95334 24.2134C6.75969 24.4789 6.66653 24.8028 6.69001 25.1289C6.75223 25.9525 6.80112 26.7914 6.87557 27.6161C6.93779 28.257 7.00001 28.8979 7.12334 29.5236C7.16253 29.7402 7.28322 29.9344 7.46134 30.0674C7.63946 30.2003 7.86195 30.2624 8.08445 30.2411C8.53684 30.2389 8.98818 30.1979 9.43334 30.1186C9.50867 30.1126 9.58207 30.0921 9.64933 30.0582C9.7166 30.0243 9.77641 29.9777 9.82533 29.921C9.87426 29.8643 9.91134 29.7987 9.93445 29.7278C9.95756 29.657 9.96624 29.5824 9.96001 29.5082C9.91334 29.2184 9.66557 29.1112 9.43334 29.0204C9.25419 28.9565 9.06751 28.9154 8.87779 28.8979C8.78186 28.8974 8.6888 28.8657 8.61306 28.8077C8.53731 28.7498 8.48312 28.6688 8.4589 28.5775C8.37531 28.3626 8.32802 28.1358 8.3189 27.9059C8.2882 27.1873 8.40966 26.4703 8.67557 25.8004C8.88748 25.4072 9.1204 25.0253 9.37334 24.6564C9.37334 24.6411 9.3889 24.6411 9.40445 24.6257C9.79671 24.0687 10.1342 23.4761 10.4122 22.8561C10.9856 21.4068 11.3889 19.6678 12.7833 18.7523C13.0342 18.577 13.3233 18.4622 13.6275 18.4172C13.9317 18.3722 14.2424 18.3982 14.5345 18.4931C15.0767 18.6757 15.5578 18.9656 16.0845 19.1953C16.3815 19.2741 16.6717 19.3762 16.9522 19.5004C18.2652 20.1126 19.6227 20.6277 21.0133 21.0415C22.0606 21.3103 23.1389 21.4438 24.2211 21.4386C24.2683 21.4411 24.3156 21.4359 24.3611 21.4233C24.4789 21.404 24.5987 21.3989 24.7178 21.4079C24.6711 21.2701 24.6067 21.1487 24.5633 21.0262C24.1756 20.2026 23.5245 18.8595 22.3778 19.0881C22.13 19.134 22.0211 18.7676 22.2667 18.7217C23.4889 18.4778 24.2356 19.5606 24.7111 20.4914C24.9933 20.9895 25.1872 21.5314 25.2845 22.0937C25.3841 22.3806 25.4515 22.6773 25.4856 22.9786C25.5967 23.5889 25.7333 24.2145 25.7956 24.8379C25.8733 25.7228 25.8889 26.6229 25.9356 27.5078C25.9478 27.9503 26.0646 28.384 26.2767 28.7743C26.3234 28.8799 26.3396 28.9961 26.3233 29.1101C26.3245 29.3924 26.3859 29.6714 26.5034 29.9289C26.6209 30.1864 26.792 30.4169 27.0056 30.6053C27.3 30.9258 27.7345 30.7879 28.1167 30.7431C28.244 30.7151 28.3753 30.71 28.5045 30.7278C28.6754 30.7577 28.8512 30.7454 29.0162 30.6922C29.1812 30.6389 29.3302 30.5463 29.45 30.4226C29.48 30.2411 29.4529 30.0548 29.3722 29.8889C29.142 29.5387 28.8391 29.2405 28.4833 29.0139C28.168 28.7893 27.93 28.4752 27.8011 28.1137C27.7031 27.7295 27.6513 27.3352 27.6467 26.939C27.5356 25.9011 27.5689 24.8489 27.5533 23.8109C27.4869 22.8989 27.6191 21.9834 27.9411 21.1257C28.0522 20.8972 28.3756 21.0951 28.2822 21.3237C27.9569 22.3281 27.8461 23.3879 27.9567 24.4365C27.9414 25.4759 27.9882 26.5153 28.0967 27.5493C28.1155 27.7753 28.1817 27.995 28.291 28.1946C28.4004 28.3941 28.5507 28.5692 28.7322 28.7087C29.045 28.9312 29.3309 29.188 29.5845 29.4743C29.6691 29.463 29.7522 29.4424 29.8322 29.4131C29.9609 29.3592 30.0691 29.2668 30.1414 29.149C30.2138 29.0312 30.2467 28.894 30.2356 28.7568C30.2045 28.5895 29.9411 28.4057 29.68 28.2843C29.2986 28.1366 28.9735 27.8755 28.75 27.5373C28.6475 27.3665 28.5941 27.1714 28.5956 26.9729C28.6889 25.2339 28.75 23.7387 28.89 21.9997C29.0055 20.995 29.4647 20.0589 30.1922 19.3451C30.5918 18.9324 30.963 18.4939 31.3033 18.0326C31.5031 17.7323 31.6157 17.384 31.6289 17.0253C31.6363 15.3253 32.0553 13.6515 32.8511 12.1428C33.0833 11.6856 33.3311 11.2426 33.5645 10.7854C33.6578 10.6028 33.7867 10.5568 34.0089 10.6028C34.9856 10.7701 35.9622 10.9079 36.9378 11.06C37.1083 11.0883 37.2831 11.0778 37.4489 11.0293C37.5889 10.9834 37.7589 10.8915 37.79 10.7701C37.8577 10.5808 37.9821 10.4161 38.1467 10.2976C38.4327 10.0657 38.6933 9.80508 38.9245 9.51997C39.2778 9.07591 39.1689 8.77075 38.72 8.49622ZM35.8367 7.09185C35.7565 7.09185 35.6797 7.0605 35.623 7.00471C35.5663 6.94892 35.5345 6.87325 35.5345 6.79435C35.5345 6.71544 35.5663 6.63977 35.623 6.58398C35.6797 6.52819 35.7565 6.49685 35.8367 6.49685C35.9168 6.49685 35.9937 6.52819 36.0504 6.58398C36.1071 6.63977 36.1389 6.71544 36.1389 6.79435C36.1389 6.87325 36.1071 6.94892 36.0504 7.00471C35.9937 7.0605 35.9168 7.09185 35.8367 7.09185Z" fill="#0072BB"/>
<path d="M15.0211 19.1143C14.9744 19.1143 14.91 19.1297 14.8666 19.1297C14.4477 19.1909 14.3244 19.2817 14.2622 19.694C14.1475 20.413 13.8184 21.0823 13.3166 21.6168C12.65 22.3825 12.0455 23.1732 11.4411 23.9815C11.2193 24.251 11.0699 24.5711 11.0066 24.9123C10.9653 25.5984 10.9705 26.2864 11.0222 26.9718C11.0222 27.0637 11.1622 27.1906 11.2544 27.2464C11.5022 27.4137 11.7655 27.5515 11.9988 27.7189C12.1688 27.8414 12.1688 28.0087 12.0455 28.1914C11.9457 28.3418 11.8019 28.4588 11.633 28.5269C11.4642 28.5951 11.2783 28.6112 11.1 28.5731C10.9773 28.5453 10.853 28.5248 10.7277 28.5118C10.5776 28.5177 10.4279 28.4929 10.2879 28.4391C10.1479 28.3853 10.0208 28.3036 9.91439 28.1992C9.80799 28.0948 9.72465 27.9698 9.66958 27.8322C9.61452 27.6946 9.58892 27.5473 9.5944 27.3995C9.5944 27.2168 9.60995 27.0484 9.5944 26.8657C9.56328 26.3014 9.56329 25.7064 9.54773 25.1267C9.99942 24.4653 10.3984 23.7706 10.7411 23.0486C11.068 22.0514 11.4768 21.0821 11.9633 20.1501C12.3822 19.4786 13.1722 18.6243 14.0744 18.7928C14.4024 18.8606 14.7204 18.9687 15.0211 19.1143Z" fill="#0072BB"/>
</g>
<defs>
<clipPath id="clip0_290_5881">
<rect width="40" height="35" fill="white"/>
</clipPath>
</defs>
</svg>
