<svg width="40" height="32" viewBox="0 0 40 32" fill="none" xmlns="http://www.w3.org/2000/svg">
<g clip-path="url(#clip0_290_5882)">
<path d="M37.9077 8.20306C37.7383 7.78828 37.5086 7.40141 37.226 7.05527C36.2794 6.00938 35.6352 4.73359 34.8019 3.61106C34.6314 3.41398 34.542 3.15851 34.5519 2.89696V2.84559C34.5291 2.8098 34.4989 2.77937 34.4635 2.75632C34.3575 2.72041 34.2436 2.71603 34.1352 2.74369C33.9077 2.76896 33.6935 2.78159 33.5419 2.57527C33.4299 2.38794 33.3896 2.16571 33.4285 1.95043C33.441 1.75927 33.441 1.58075 33.441 1.40222V1.39127C33.414 1.30723 33.3713 1.22919 33.3152 1.16138C33.2519 1.21275 33.2019 1.2759 33.1385 1.3298C33.126 1.34243 33.126 1.38117 33.1135 1.40643C32.8485 1.77611 32.5835 2.15927 32.0402 2.13401C31.811 2.10978 31.5794 2.13153 31.3585 2.19801C30.7658 2.40943 30.1878 2.66094 29.6285 2.95085C29.2789 3.17447 28.9417 3.41736 28.6185 3.67843C28.4109 3.81395 28.1959 3.93738 27.9744 4.04811C27.6844 4.20138 27.3685 4.32853 27.091 4.50706C26.8135 4.68559 26.561 4.92811 26.296 5.11927C25.8971 5.37399 25.5528 5.70702 25.2835 6.09864C25.1863 6.24909 25.045 6.36509 24.8794 6.43043C24.6632 6.5309 24.4827 6.69574 24.3619 6.90285C24.2415 7.09338 24.0648 7.24072 23.8569 7.3239C23.1627 7.52769 22.4402 7.65569 21.7485 7.87211C21.2104 8.04141 20.6867 8.2546 20.1827 8.50959C19.618 8.85407 18.9738 9.04308 18.3144 9.0578C16.9604 8.97071 15.6214 8.72225 14.3252 8.31759C13.2846 7.97251 12.209 7.74653 11.1185 7.6439C9.94164 7.59654 8.77005 7.82721 7.69685 8.31759C7.31852 8.48601 6.96435 8.68727 6.59852 8.8919C6.25792 9.06547 5.93641 9.27492 5.63935 9.51675C4.83798 10.3116 4.29973 11.3377 4.09852 12.454C3.91418 13.292 3.81698 14.1472 3.80852 15.0056C3.80852 15.0056 4.41435 18.4885 3.73269 19.8536C3.06602 21.206 2.63435 25.3391 3.42935 27.8654C3.42935 27.8654 4.55269 27.3803 5.15852 24.6502C5.25935 24.1273 5.33519 23.5917 5.38602 23.0679C5.3691 22.736 5.37745 22.4032 5.41102 22.0725C5.42493 21.9482 5.44608 21.8247 5.47435 21.7029C5.48713 21.2818 5.48713 20.8607 5.47435 20.4397C5.42814 19.7948 5.43232 19.1471 5.48685 18.5029C5.43602 17.6229 5.34769 16.6654 5.22185 15.6195C5.22185 15.6228 5.22317 15.626 5.22551 15.6284C5.22786 15.6308 5.23104 15.6321 5.23435 15.6321C5.19685 15.2751 5.17102 14.9045 5.14602 14.5475L5.22185 14.5096C5.29107 14.5728 5.3506 14.646 5.39852 14.7269C5.79019 15.569 6.16852 16.4237 6.57269 17.2532C6.78683 17.6368 6.88208 18.0766 6.84613 18.5156C6.81018 18.9546 6.64467 19.3726 6.37102 19.7155C6.2713 19.8508 6.17867 19.9914 6.09352 20.1365H6.05602C5.99269 20.3403 5.90435 20.545 5.82852 20.7487C5.84102 21.3483 5.81602 21.9353 5.77769 22.5349C5.68398 23.7485 5.48884 24.9519 5.19435 26.1323C5.20685 26.2342 5.21935 26.3361 5.23185 26.4515C5.29519 26.8338 5.39852 27.2296 5.47185 27.6127C5.51249 27.5889 5.55451 27.5675 5.59769 27.5487C5.57986 27.6711 5.57151 27.7947 5.57269 27.9184C5.56789 28.0887 5.59796 28.2581 5.66102 28.4161C5.87621 28.7193 6.0743 29.0344 6.25435 29.3601C6.3501 29.5262 6.41176 29.7101 6.43567 29.9008C6.45958 30.0914 6.44525 30.285 6.39352 30.47C6.38851 30.5077 6.39282 30.546 6.40605 30.5815C6.41928 30.6171 6.44103 30.6488 6.46935 30.6738C7.00411 30.8686 7.58388 30.8997 8.13602 30.7631C8.27519 30.7378 8.35102 30.6485 8.26185 30.4953C7.99685 30.0869 7.74435 29.6532 7.45352 29.2709C7.36251 29.1734 7.29232 29.0581 7.2473 28.932C7.20229 28.806 7.18341 28.6719 7.19185 28.5382C7.2588 28.1965 7.21466 27.842 7.06602 27.5277C6.98762 27.3817 6.94023 27.2208 6.92685 27.0553C6.91435 26.1879 6.91435 25.3205 6.93935 24.4532C6.9509 24.2047 7.02489 23.9633 7.15435 23.7517C7.28085 23.5823 7.38688 23.3983 7.47019 23.2035C7.49592 23.035 7.5338 22.8687 7.58352 22.7058V22.6165C7.59298 22.5589 7.6194 22.5055 7.65935 22.4633C7.75382 22.2018 7.8721 21.9498 8.01269 21.7104C8.20185 21.366 8.42935 21.073 8.60602 20.7664C8.80222 20.4121 8.94279 20.0292 9.02269 19.6313C9.14998 18.8946 9.36168 18.1754 9.65352 17.4881C9.80905 17.1402 9.99507 16.8071 10.2094 16.4927C10.3854 16.1955 10.6023 15.9251 10.8535 15.6894C11.0863 15.5615 11.3495 15.501 11.6142 15.5146C11.8788 15.5281 12.1346 15.6151 12.3535 15.766C12.3958 15.7645 12.4382 15.7688 12.4794 15.7786C12.761 15.8504 13.0325 15.9576 13.2877 16.0978C13.9319 16.4936 14.5377 16.9778 15.2044 17.3222C15.7587 17.589 16.3383 17.7983 16.9344 17.9471C17.4055 18.0463 17.8818 18.1188 18.361 18.1643C19.5198 18.3723 20.6941 18.4791 21.871 18.4835L22.4769 18.177C22.6785 18.0751 22.931 17.8965 23.171 17.9858C23.6385 18.1643 23.651 18.9424 23.6635 19.3509C23.7298 20.0418 23.8395 20.7278 23.9919 21.4047H24.0169V21.5833C24.0294 21.6852 24.0419 21.7744 24.0544 21.8763C24.1405 22.2147 24.1448 22.5691 24.0669 22.9096C23.938 23.3021 23.9561 23.7288 24.1177 24.1087C24.1478 24.1726 24.1651 24.2419 24.1685 24.3125C24.198 25.249 24.1259 26.186 23.9535 27.1066C23.916 27.3997 23.8527 27.7062 23.8144 27.9993C23.7939 28.1237 23.815 28.2515 23.8745 28.3623C23.934 28.4732 24.0284 28.5609 24.1427 28.6115C24.4678 28.7576 24.7332 29.0125 24.8941 29.3332C25.055 29.654 25.1016 30.0209 25.026 30.3723V30.3976C24.9885 30.5761 25.0769 30.6401 25.2277 30.6906C25.6409 30.8157 26.0764 30.8462 26.5027 30.7799C26.9952 30.7285 27.0077 30.6906 26.7677 30.2696C26.5816 29.8411 26.3008 29.4614 25.9469 29.1597C25.737 29.0441 25.5717 28.8604 25.4778 28.6382C25.3839 28.4161 25.3669 28.1684 25.4294 27.9353C25.4364 27.8223 25.4191 27.7091 25.3785 27.6035C25.3258 27.4095 25.2838 27.2127 25.2527 27.014C25.2296 26.815 25.2254 26.6142 25.2402 26.4144C25.2136 25.8269 25.2697 25.2386 25.4069 24.6671C25.4966 24.4423 25.556 24.2064 25.5835 23.9656C25.6594 23.3407 25.6969 22.7151 25.7985 22.1028C25.8706 21.5704 25.994 21.0464 26.1669 20.5382C26.4943 19.7503 26.7185 18.9225 26.8335 18.0759C26.8467 17.9514 26.8862 17.8312 26.9493 17.7234C27.0125 17.6156 27.0977 17.5227 27.1994 17.4511C27.4635 17.2415 27.6891 16.9866 27.866 16.6982C28.081 16.2898 28.2069 15.8309 28.3835 15.4098C28.6176 14.8775 28.6923 14.2877 28.5985 13.713C28.5063 13.082 28.631 12.4382 28.9519 11.889C29.406 11.0342 29.8102 10.1416 30.2519 9.28685C30.4511 8.90536 30.6703 8.53487 30.9085 8.17696C31.0228 8.01741 31.1732 7.88783 31.3472 7.79904C31.5212 7.71026 31.7136 7.66486 31.9085 7.66664C32.0752 7.66664 32.2369 7.89653 32.401 8.02369C32.4385 8.04896 32.4644 8.07506 32.5019 8.10032C32.8925 8.32059 33.3297 8.44302 33.7769 8.45738C33.8977 8.45376 34.0181 8.47555 34.1302 8.52138C34.5719 8.71253 35.001 8.9298 35.4435 9.12096C35.5307 9.14718 35.6095 9.19643 35.6716 9.26363C35.7337 9.33083 35.7769 9.41355 35.7969 9.50327C35.818 9.61524 35.8809 9.71472 35.9726 9.78116C36.0642 9.84761 36.1776 9.87595 36.2894 9.86032C36.6814 9.90988 37.0793 9.84806 37.4385 9.6818C37.6402 9.55464 37.7919 9.4519 37.8169 9.20938C37.8294 9.08222 37.8927 8.96685 37.9052 8.83969C37.9077 8.59885 37.9835 8.35632 37.9077 8.20306ZM34.221 4.80938C34.1434 4.80526 34.0704 4.77122 34.0169 4.71426C33.9634 4.65731 33.9336 4.58179 33.9336 4.50327C33.9336 4.42476 33.9634 4.34923 34.0169 4.29228C34.0704 4.23533 34.1434 4.20128 34.221 4.19717C34.3015 4.19717 34.3786 4.22946 34.4355 4.28695C34.4924 4.34443 34.5244 4.4224 34.5244 4.50369C34.5244 4.58499 34.4924 4.66295 34.4355 4.72044C34.3786 4.77792 34.3015 4.80938 34.221 4.80938Z" fill="#0072BB"/>
<path d="M7.91668 22.6829C7.91826 22.8555 7.87942 23.026 7.80334 23.1805C7.82768 23.0118 7.86558 22.8454 7.91668 22.6829Z" fill="#0072BB"/>
<path d="M9.95767 20.8852C10.001 21.3351 9.89927 21.787 9.66767 22.1736C9.56807 22.4199 9.53751 22.6891 9.57934 22.9517C9.64267 23.7172 9.7185 24.4827 9.81934 25.2482C9.87691 25.7206 10.018 26.1787 10.236 26.6006C10.3744 26.8963 10.4513 27.2176 10.4618 27.5446C10.4785 27.872 10.6079 28.1833 10.8277 28.4246C11.131 28.7943 11.396 29.2027 11.661 29.5985C11.7868 29.7896 11.911 29.9808 12.0527 30.1981C11.9911 30.231 11.928 30.2608 11.8635 30.2873C11.2963 30.3957 10.714 30.3957 10.1468 30.2873C9.8185 30.2107 9.71767 30.0962 9.7685 29.777C9.82606 29.2323 9.72528 28.6824 9.4785 28.1947C9.37781 28.0032 9.24533 27.8306 9.08684 27.6844C8.96185 27.5854 8.86304 27.4567 8.7992 27.3098C8.73537 27.1628 8.70851 27.0022 8.721 26.8423C8.73266 25.784 8.57046 24.7311 8.241 23.7265C8.15267 23.3947 8.03934 23.0629 7.92517 22.7437C8.06282 22.3222 8.25924 21.9227 8.5085 21.5572C8.74741 21.2312 8.9537 20.8819 9.12434 20.5147C9.27797 20.098 9.38801 19.6661 9.45267 19.2263C9.6221 18.3815 9.93838 17.5738 10.3868 16.8406C10.5127 16.6494 10.6368 16.4583 10.7785 16.2663C10.8926 16.0847 11.0545 15.9389 11.246 15.8452C11.4971 15.8175 11.7509 15.8616 11.9785 15.9724C12.016 15.985 12.0418 15.9976 12.0793 16.0103C12.0801 16.0171 12.0794 16.0241 12.0773 16.0306C12.0751 16.0372 12.0715 16.0432 12.0668 16.0482C11.941 16.6098 11.8168 17.1833 11.6885 17.745C11.5388 18.7218 11.0236 19.6032 10.2493 20.2073C10.1388 20.2774 10.0517 20.3797 9.9997 20.5007C9.94765 20.6216 9.933 20.7557 9.95767 20.8852Z" fill="#0072BB"/>
<path d="M23.7811 30.2097C23.2508 30.3355 22.6966 30.3134 22.1777 30.1457C22.0519 30.0944 22.0111 30.0438 22.0644 29.8931C22.1927 29.5872 22.2057 29.2444 22.101 28.9295C21.9962 28.6146 21.7811 28.3493 21.4961 28.1836C21.0544 27.8645 21.0286 27.6354 21.1802 27.099C21.4202 26.3209 21.5844 25.5302 21.7736 24.7411C21.8358 24.5249 21.8738 24.3023 21.8869 24.0775C21.8804 23.8546 21.855 23.6326 21.8111 23.414C21.7517 23.1636 21.7695 22.901 21.8619 22.6611C21.9778 22.3946 22.046 22.1095 22.0636 21.819C22.1011 21.2573 22.0636 20.6838 22.1011 20.1222C22.1136 19.7904 22.1894 19.4586 22.2269 19.1268C22.2414 19.0769 22.2498 19.0255 22.2519 18.9735C22.2676 18.8767 22.2718 18.7783 22.2644 18.6805C22.2996 18.6581 22.3378 18.6408 22.3777 18.6291C22.4911 18.5651 22.6177 18.502 22.7311 18.4506C22.7873 18.4158 22.8464 18.3859 22.9077 18.3613C23.0594 18.3361 23.0969 18.438 23.1477 18.5398C23.2764 19.0056 23.336 19.488 23.3244 19.9714C23.4127 20.635 23.6144 21.2986 23.6777 21.9613C23.6144 22.2544 23.5644 22.5508 23.4886 22.8287C23.3627 23.3011 23.2111 23.7727 23.0719 24.2451C22.9836 24.5643 22.8827 24.87 22.8219 25.1891C22.7374 25.6661 22.6784 26.1474 22.6452 26.6308C22.6605 26.8124 22.6943 26.9918 22.7461 27.1664C22.7714 27.2624 22.7714 27.3634 22.7461 27.4594C22.6427 27.6626 22.6191 27.8977 22.68 28.1178C22.7409 28.3378 22.8817 28.5264 23.0744 28.646C23.2483 28.805 23.3972 28.9899 23.5161 29.1942C23.6552 29.4367 23.7561 29.6918 23.8819 29.9344C23.9961 30.0826 23.9452 30.1718 23.7811 30.2097Z" fill="#0072BB"/>
<path d="M34.6433 2.501C34.5595 2.50321 34.4759 2.51166 34.3933 2.52626C34.3469 2.53924 34.2984 2.54257 34.2507 2.53606C34.203 2.52954 34.1571 2.51332 34.1158 2.48837C34.0606 2.42728 34.0204 2.35388 33.9985 2.27412C33.9766 2.19437 33.9737 2.11053 33.99 2.02942C34.1291 1.81216 34.28 1.59573 34.4441 1.34058C34.4691 1.42984 34.52 1.509 34.5325 1.5831C34.5493 1.73998 34.5535 1.89797 34.545 2.05552C34.5282 2.13253 34.5283 2.21232 34.5453 2.28928C34.5623 2.36624 34.5957 2.43851 34.6433 2.501Z" fill="#0072BB"/>
<path d="M5.87172 21.4838C5.84672 22.1474 5.79589 22.747 5.73255 23.2952C5.67981 23.7505 5.59966 24.2021 5.49255 24.6476C5.59339 24.1247 5.66922 23.5891 5.72005 23.0653C5.70313 22.7333 5.71149 22.4006 5.74505 22.0699C5.75897 21.9456 5.78011 21.8221 5.80839 21.7002C5.82116 21.2792 5.82116 20.8581 5.80839 20.4371C5.76217 19.7921 5.76635 19.1445 5.82089 18.5002C5.8928 19.493 5.90977 20.4891 5.87172 21.4838Z" fill="#0072BB"/>
</g>
<defs>
<clipPath id="clip0_290_5882">
<rect width="40" height="32" fill="white"/>
</clipPath>
</defs>
</svg>
