<svg width="152" height="108" viewBox="0 0 152 108" fill="none" xmlns="http://www.w3.org/2000/svg">
<g clip-path="url(#clip0_214_8312)">
<g opacity="0.06">
<path d="M46.45 13.3429C47.13 13.3629 47.44 12.5329 47.64 11.8829C48.2152 10.104 49.3283 8.54744 50.8257 7.42797C52.3231 6.30851 54.131 5.6813 56 5.6329C57.95 5.6229 60.1 6.4929 60.79 8.3229C61.0389 9.13138 61.1339 9.97939 61.07 10.8229C61.194 13.8192 60.843 16.8163 60.03 19.7029C59.07 22.5329 57.44 26.1529 54.59 27.0029C54.03 27.1729 52.94 26.3229 52.67 26.8429C52.6134 27.0261 52.5975 27.2195 52.6234 27.4095C52.6493 27.5995 52.7164 27.7815 52.82 27.9429C53.24 28.7029 56.24 30.1129 56.17 30.8029C55.91 33.2129 51.44 38.2529 50.37 38.9229C49.2 37.1029 45.85 36.5629 44.68 34.7429C44.44 34.3729 39.17 30.1129 39.1 29.6829C39.02 29.1729 43.58 25.8129 43.73 25.3129C44.7743 22.2791 45.1596 19.0574 44.86 15.8629C43.84 15.6529 42.73 14.8529 42.75 13.8029C42.82 10.2729 46.04 11.8429 46.35 12.9729L46.45 13.3429Z" fill="#383838"/>
<mask id="mask0_214_8312" style="mask-type:luminance" maskUnits="userSpaceOnUse" x="39" y="5" width="23" height="34">
<path d="M46.45 13.3429C47.13 13.3629 47.44 12.5329 47.64 11.8829C48.2152 10.104 49.3283 8.54744 50.8257 7.42797C52.3231 6.30851 54.131 5.6813 56 5.6329C57.95 5.6229 60.1 6.4929 60.79 8.3229C61.0389 9.13138 61.1339 9.97939 61.07 10.8229C61.194 13.8192 60.843 16.8163 60.03 19.7029C59.07 22.5329 57.44 26.1529 54.59 27.0029C54.03 27.1729 52.94 26.3229 52.67 26.8429C52.6134 27.0261 52.5975 27.2195 52.6234 27.4095C52.6493 27.5995 52.7164 27.7815 52.82 27.9429C53.24 28.7029 56.24 30.1129 56.17 30.8029C55.91 33.2129 51.44 38.2529 50.37 38.9229C49.2 37.1029 45.85 36.5629 44.68 34.7429C44.44 34.3729 39.17 30.1129 39.1 29.6829C39.02 29.1729 43.58 25.8129 43.73 25.3129C44.7743 22.2791 45.1596 19.0574 44.86 15.8629C43.84 15.6529 42.73 14.8529 42.75 13.8029C42.82 10.2729 46.04 11.8429 46.35 12.9729L46.45 13.3429Z" fill="white"/>
</mask>
<g mask="url(#mask0_214_8312)">
<path d="M47 13.3627C47.4442 13.7599 47.9985 14.0128 48.5896 14.0878C49.1808 14.1628 49.7807 14.0564 50.31 13.7827C51.59 13.1927 52.37 11.9427 53.34 10.9727C53.8004 10.4285 54.3687 9.98569 55.009 9.67241C55.6494 9.35913 56.3477 9.18217 57.06 9.15273C58.58 9.22273 59.95 10.0627 61.48 9.52273C62.22 9.26273 61.9 8.05273 61.15 8.32273C59.84 8.78273 58.49 8.00273 57.17 7.91273C55.9436 7.87488 54.741 8.25579 53.76 8.99273C52.7975 9.75354 51.9192 10.6151 51.14 11.5627C50.38 12.3827 48.93 13.5227 47.87 12.4927C47.3 11.9327 46.42 12.8127 47 13.3627Z" fill="#383838"/>
</g>
<mask id="mask1_214_8312" style="mask-type:luminance" maskUnits="userSpaceOnUse" x="39" y="5" width="23" height="34">
<path d="M46.45 13.3429C47.13 13.3629 47.44 12.5329 47.64 11.8829C48.2152 10.104 49.3283 8.54744 50.8257 7.42797C52.3231 6.30851 54.131 5.6813 56 5.6329C57.95 5.6229 60.1 6.4929 60.79 8.3229C61.0389 9.13138 61.1339 9.97939 61.07 10.8229C61.194 13.8192 60.843 16.8163 60.03 19.7029C59.07 22.5329 57.44 26.1529 54.59 27.0029C54.03 27.1729 52.94 26.3229 52.67 26.8429C52.6134 27.0261 52.5975 27.2195 52.6234 27.4095C52.6493 27.5995 52.7164 27.7815 52.82 27.9429C53.24 28.7029 56.24 30.1129 56.17 30.8029C55.91 33.2129 51.44 38.2529 50.37 38.9229C49.2 37.1029 45.85 36.5629 44.68 34.7429C44.44 34.3729 39.17 30.1129 39.1 29.6829C39.02 29.1729 43.58 25.8129 43.73 25.3129C44.7743 22.2791 45.1596 19.0574 44.86 15.8629C43.84 15.6529 42.73 14.8529 42.75 13.8029C42.82 10.2729 46.04 11.8429 46.35 12.9729L46.45 13.3429Z" fill="white"/>
</mask>
<g mask="url(#mask1_214_8312)">
<path opacity="0.38" d="M44.09 20.5328C44.09 20.5328 47.94 26.3828 53.72 27.2128C53.72 27.2128 58.17 29.7328 55.84 28.8028C53.92 28.0328 58.71 29.3028 58.74 31.3828C58.79 34.6728 58.83 34.7728 57.76 34.5028C54.12 33.5928 51.74 35.5528 47.64 32.3028C46.34 31.2728 43.57 20.9228 44.65 19.6528L42.25 21.3528" fill="#383838"/>
</g>
<path d="M46.46 13.1428C46.8863 13.48 47.4068 13.6765 47.9495 13.7051C48.4923 13.7338 49.0306 13.5932 49.49 13.3028C50.3975 12.702 51.1732 11.9228 51.77 11.0128C52.3716 10.1049 53.1718 9.3458 54.11 8.79276C55.89 7.91276 57.99 8.61276 59.91 9.12276C61.83 9.63276 64.19 9.80276 65.46 8.27276C64.8826 8.31505 64.3028 8.23343 63.7596 8.03337C63.2163 7.83331 62.7221 7.51943 62.31 7.11276C63.1033 6.99911 63.8283 6.60108 64.35 5.99276C63.7784 5.99724 63.2119 5.88617 62.6843 5.66621C62.1568 5.44625 61.6791 5.12194 61.28 4.71276C60.43 3.94276 59.75 3.01276 58.9 2.24276C57.9333 1.37229 56.784 0.729195 55.5364 0.360631C54.2888 -0.00793377 52.9746 -0.0926262 51.69 0.112762C49.13 0.542762 49.8 0.362762 46.81 2.21276C46.22 2.57276 44.56 3.10276 44.13 3.65276C43.5978 4.26303 43.135 4.93045 42.75 5.64276C41.8 7.29276 41.81 12.9028 42.22 14.7528C42.67 16.7828 43.97 17.6128 43.92 19.7428C43.91 20.0928 44.57 20.0528 44.9 19.9528C45.32 19.8328 45.55 19.3928 45.72 18.9828C46.4409 17.188 46.7386 15.2512 46.59 13.3228" fill="#383838"/>
<path d="M46.77 19.5427C46.7268 19.6824 46.6356 19.8023 46.5125 19.8812C46.3894 19.96 46.2424 19.9928 46.0974 19.9736C45.9525 19.9545 45.819 19.8846 45.7206 19.7764C45.6223 19.6683 45.5654 19.5288 45.56 19.3827C45.6033 18.6264 45.5966 17.8681 45.54 17.1127C45.51 16.7527 45.46 16.3927 45.4 16.0327C45.37 15.8827 45.36 15.6627 45.32 15.4727C45.3123 15.4734 45.3052 15.477 45.3 15.4827C45.2211 15.5041 45.1409 15.5208 45.06 15.5327C44.8684 15.5645 44.6734 15.5712 44.48 15.5527C44.043 15.5069 43.6326 15.321 43.31 15.0227C42.9989 14.7134 42.7944 14.3131 42.726 13.8798C42.6577 13.4465 42.7291 13.0027 42.93 12.6127C43.0295 12.4001 43.174 12.2118 43.3536 12.0606C43.5331 11.9095 43.7433 11.7992 43.9697 11.7374C44.1961 11.6755 44.4332 11.6637 44.6646 11.7026C44.8961 11.7415 45.1163 11.8302 45.31 11.9627C45.6245 12.2172 45.9067 12.5094 46.15 12.8327C46.4448 13.1354 46.673 13.4965 46.82 13.8927C46.871 14.0228 46.8692 14.1677 46.815 14.2965C46.7609 14.4254 46.6586 14.528 46.53 14.5827C46.8706 15.2701 47.0518 16.0255 47.06 16.7927C47.1139 17.719 47.0159 18.648 46.77 19.5427Z" fill="#383838"/>
<mask id="mask2_214_8312" style="mask-type:luminance" maskUnits="userSpaceOnUse" x="42" y="11" width="6" height="9">
<path d="M46.77 19.5427C46.7268 19.6824 46.6356 19.8023 46.5125 19.8812C46.3894 19.96 46.2424 19.9928 46.0974 19.9736C45.9525 19.9545 45.819 19.8846 45.7206 19.7764C45.6223 19.6683 45.5654 19.5288 45.56 19.3827C45.6033 18.6264 45.5966 17.8681 45.54 17.1127C45.51 16.7527 45.46 16.3927 45.4 16.0327C45.37 15.8827 45.36 15.6627 45.32 15.4727C45.3123 15.4734 45.3052 15.477 45.3 15.4827C45.2211 15.5041 45.1409 15.5208 45.06 15.5327C44.8684 15.5645 44.6734 15.5712 44.48 15.5527C44.043 15.5069 43.6326 15.321 43.31 15.0227C42.9989 14.7134 42.7944 14.3131 42.726 13.8798C42.6577 13.4465 42.7291 13.0027 42.93 12.6127C43.0295 12.4001 43.174 12.2118 43.3536 12.0606C43.5331 11.9095 43.7433 11.7992 43.9697 11.7374C44.1961 11.6755 44.4332 11.6637 44.6646 11.7026C44.8961 11.7415 45.1163 11.8302 45.31 11.9627C45.6245 12.2172 45.9067 12.5094 46.15 12.8327C46.4448 13.1354 46.673 13.4965 46.82 13.8927C46.871 14.0228 46.8692 14.1677 46.815 14.2965C46.7609 14.4254 46.6586 14.528 46.53 14.5827C46.8706 15.2701 47.0518 16.0255 47.06 16.7927C47.1139 17.719 47.0159 18.648 46.77 19.5427Z" fill="white"/>
</mask>
<g mask="url(#mask2_214_8312)">
<path d="M41.52 12.0026C41.2811 12.5338 41.2172 13.1271 41.3377 13.697C41.4581 14.2668 41.7566 14.7836 42.19 15.1726C42.7185 15.5503 43.3222 15.8095 43.96 15.9326C44.03 15.9526 44.31 16.0426 44.31 16.0426C44.27 15.9626 44.23 15.8926 44.19 15.8126V16.2526C44.18 16.6326 44.18 17.0126 44.17 17.3926C44.17 17.5557 44.2348 17.7121 44.3501 17.8275C44.4655 17.9428 44.6219 18.0076 44.785 18.0076C44.9481 18.0076 45.1045 17.9428 45.2199 17.8275C45.3352 17.7121 45.4 17.5557 45.4 17.3926C45.41 17.0326 45.41 16.6626 45.42 16.3026C45.4743 15.9542 45.4184 15.5976 45.26 15.2826C44.9 14.7326 44.03 14.7026 43.46 14.5026C43.2693 14.4439 43.094 14.3435 42.947 14.2085C42.7999 14.0736 42.6848 13.9076 42.61 13.7226C42.5389 13.5475 42.4983 13.3614 42.49 13.1726V13.0026C42.49 12.9726 42.51 12.8526 42.49 12.9326C42.5019 12.8648 42.5187 12.798 42.54 12.7326C42.54 12.7126 42.6 12.5526 42.57 12.6326C42.6472 12.4893 42.6674 12.3221 42.6266 12.1645C42.5858 12.0069 42.487 11.8705 42.35 11.7826C42.2813 11.7416 42.2051 11.7147 42.1259 11.7036C42.0467 11.6925 41.966 11.6973 41.8887 11.7178C41.8113 11.7383 41.7389 11.774 41.6756 11.823C41.6122 11.8719 41.5594 11.933 41.52 12.0026Z" fill="#383838"/>
</g>
<path d="M52.08 20.9849C52.08 20.9849 54.15 22.3549 55.52 22.1749C56.89 21.9949 53.39 25.0949 52.08 20.9849Z" fill="#383838"/>
<path d="M39.1 28.9497C39.1 28.9497 49.95 37.1297 50.37 38.3197C50.37 38.3197 55.76 30.3197 55.52 29.5497C56.2109 30.0379 56.8302 30.6202 57.36 31.2797C57.6 31.8197 65.36 71.3497 63.22 91.7597C63.22 91.7597 49.59 92.5297 44.92 92.7797C44.2 92.8097 39.1 28.9497 39.1 28.9497Z" fill="#383838"/>
<mask id="mask3_214_8312" style="mask-type:luminance" maskUnits="userSpaceOnUse" x="39" y="28" width="25" height="65">
<path d="M39.1 28.9497C39.1 28.9497 49.95 37.1297 50.37 38.3197C50.37 38.3197 55.76 30.3197 55.52 29.5497C56.2109 30.0379 56.8302 30.6202 57.36 31.2797C57.6 31.8197 65.36 71.3497 63.22 91.7597C63.22 91.7597 49.59 92.5297 44.92 92.7797C44.2 92.8097 39.1 28.9497 39.1 28.9497Z" fill="white"/>
</mask>
<g mask="url(#mask3_214_8312)">
<path d="M57.28 31.4497C58.82 41.6497 60.37 51.8597 61.27 62.1397C62.1299 71.9981 62.3904 81.8997 62.05 91.7897" fill="#383838"/>
</g>
<mask id="mask4_214_8312" style="mask-type:luminance" maskUnits="userSpaceOnUse" x="39" y="28" width="25" height="65">
<path d="M39.1 28.9497C39.1 28.9497 49.95 37.1297 50.37 38.3197C50.37 38.3197 55.76 30.3197 55.52 29.5497C56.2109 30.0379 56.8302 30.6202 57.36 31.2797C57.6 31.8197 65.36 71.3497 63.22 91.7597C63.22 91.7597 49.59 92.5297 44.92 92.7797C44.2 92.8097 39.1 28.9497 39.1 28.9497Z" fill="white"/>
</mask>
<g mask="url(#mask4_214_8312)">
<path d="M47.73 91.6699C47.88 88.6599 47.9767 85.6499 48.02 82.6399L45.68 84.4399C45.43 84.3399 45.66 84.4299 45.78 84.4899C45.88 84.5399 45.98 84.5799 46.09 84.6299C46.34 84.7499 46.6 84.8699 46.85 84.9999C47.33 85.2399 47.79 85.5099 48.25 85.7799C48.6753 86.0225 49.1789 86.0882 49.6522 85.9628C50.1254 85.8375 50.5305 85.5312 50.78 85.1099C51.0166 84.681 51.0801 84.1778 50.9573 83.7036C50.8346 83.2294 50.535 82.8202 50.12 82.5599C49.0145 81.9013 47.8613 81.3264 46.67 80.8399C45.52 80.3599 44.34 81.5499 44.33 82.6399C44.29 85.6499 44.1933 88.6599 44.04 91.6699C44.0403 92.1614 44.2349 92.6328 44.5815 92.9813C44.9281 93.3298 45.3985 93.527 45.89 93.5299C46.3778 93.5183 46.8421 93.318 47.1852 92.9711C47.5284 92.6242 47.7237 92.1578 47.73 91.6699Z" fill="#383838"/>
</g>
<mask id="mask5_214_8312" style="mask-type:luminance" maskUnits="userSpaceOnUse" x="39" y="28" width="25" height="65">
<path d="M39.1 28.9497C39.1 28.9497 49.95 37.1297 50.37 38.3197C50.37 38.3197 55.76 30.3197 55.52 29.5497C56.2109 30.0379 56.8302 30.6202 57.36 31.2797C57.6 31.8197 65.36 71.3497 63.22 91.7597C63.22 91.7597 49.59 92.5297 44.92 92.7797C44.2 92.8097 39.1 28.9497 39.1 28.9497Z" fill="white"/>
</mask>
<g mask="url(#mask5_214_8312)">
<path d="M46.25 68.5795C46.004 60.5942 45.3163 52.6287 44.19 44.7195C43.31 38.0195 41.87 31.3795 37.58 25.9995C37.2318 25.6536 36.7608 25.4595 36.27 25.4595C35.7792 25.4595 35.3083 25.6536 34.96 25.9995C34.6229 26.3563 34.435 26.8286 34.435 27.3195C34.435 27.8104 34.6229 28.2827 34.96 28.6395C38.81 33.4795 39.9 39.9495 40.64 45.9395C41.671 53.451 42.3085 61.0113 42.55 68.5895C42.6 70.9795 46.3 70.9895 46.25 68.5795Z" fill="#383838"/>
</g>
<path d="M46.27 107.43C46.41 87.28 45.46 54.75 39.1 28.96C39.1 28.96 29.28 31.53 25.13 35.35C24.1606 35.9873 23.3166 36.7975 22.64 37.74C22.64 37.74 26.43 73.43 26.19 79.27C26.05 82.73 24.7 96.45 23.7 107.44L46.27 107.43Z" fill="#383838"/>
<mask id="mask6_214_8312" style="mask-type:luminance" maskUnits="userSpaceOnUse" x="22" y="28" width="25" height="80">
<path d="M46.27 107.43C46.41 87.28 45.46 54.75 39.1 28.96C39.1 28.96 29.28 31.53 25.13 35.35C24.1606 35.9873 23.3166 36.7975 22.64 37.74C22.64 37.74 26.43 73.43 26.19 79.27C26.05 82.73 24.7 96.45 23.7 107.44L46.27 107.43Z" fill="white"/>
</mask>
<g mask="url(#mask6_214_8312)">
<path opacity="0.06" d="M38.24 28.8101C38.24 28.8101 36.16 29.0801 35.76 30.0601C35.76 30.0601 37.35 39.8201 36.35 44.2001C36.35 44.2001 36.05 45.5401 40.12 45.0101C40.12 45.0101 38.63 47.7001 38.73 49.2201C38.83 50.7401 44.88 64.2601 44.88 64.2601C44.88 64.2601 44.09 35.6101 38.24 28.8101Z" fill="#383838"/>
</g>
<mask id="mask7_214_8312" style="mask-type:luminance" maskUnits="userSpaceOnUse" x="22" y="28" width="25" height="80">
<path d="M46.27 107.43C46.41 87.28 45.46 54.75 39.1 28.96C39.1 28.96 29.28 31.53 25.13 35.35C24.1606 35.9873 23.3166 36.7975 22.64 37.74C22.64 37.74 26.43 73.43 26.19 79.27C26.05 82.73 24.7 96.45 23.7 107.44L46.27 107.43Z" fill="white"/>
</mask>
<g mask="url(#mask7_214_8312)">
<path d="M28.27 36.7598C28.27 36.7598 40.06 47.3198 39.21 62.8998C39.21 62.8998 40.49 65.5798 45.01 66.7198C49.53 67.8598 42.3 69.6498 42.3 69.6498L34.94 62.1298L28.27 36.7598Z" fill="#383838"/>
</g>
<mask id="mask8_214_8312" style="mask-type:luminance" maskUnits="userSpaceOnUse" x="22" y="28" width="25" height="80">
<path d="M46.27 107.43C46.41 87.28 45.46 54.75 39.1 28.96C39.1 28.96 29.28 31.53 25.13 35.35C24.1606 35.9873 23.3166 36.7975 22.64 37.74C22.64 37.74 26.43 73.43 26.19 79.27C26.05 82.73 24.7 96.45 23.7 107.44L46.27 107.43Z" fill="white"/>
</mask>
<g mask="url(#mask8_214_8312)">
<path d="M25.62 78.4599C25.62 78.4599 40.11 85.6199 46.82 85.6199C53.53 85.6199 46.72 81.1999 46.72 81.1999L24.4 74.8999L25.62 78.4599Z" fill="#383838"/>
</g>
<path d="M38.93 28.8057C38.93 28.8057 37.06 29.0757 36.71 30.0557C36.71 30.0557 38.13 39.8157 37.24 44.1957C37.24 44.1957 36.97 45.5357 40.62 45.0057C40.62 45.0057 39.29 47.6957 39.38 49.2157C39.47 50.7357 44.63 64.2557 44.63 64.2557C44.63 64.2557 44.17 35.6057 38.93 28.8057Z" fill="#383838"/>
<path d="M37.16 30.7158C38.1895 34.7196 38.4809 38.8775 38.02 42.9858C37.85 44.4858 39.4 44.6158 40.55 44.5558L41.13 44.5358C40.457 45.8155 40.0618 47.2229 39.97 48.6658C40.1681 49.917 40.5278 51.1372 41.04 52.2958C41.93 54.7458 42.81 57.1958 43.62 59.6758C42.53 57.3058 41.52 54.9058 40.52 52.4958C39.9191 51.3 39.5075 50.018 39.3 48.6958C39.3212 47.3371 39.6386 45.9993 40.23 44.7758L40.59 45.2858C39.09 45.4358 37.1 44.8658 37.36 42.9358C37.8336 38.8715 37.7664 34.7624 37.16 30.7158Z" fill="#383838"/>
<path d="M55.52 29.5469C55.52 29.5469 63.85 32.1169 65.46 33.5469C67.07 34.9769 69.68 46.5369 69.68 46.5369L73 60.8669C73.1968 61.5294 73.6037 62.1101 74.1592 62.5213C74.7147 62.9325 75.3889 63.1521 76.08 63.1469C78.45 63.0269 90.06 64.2569 90.06 64.2569V77.9269L66.43 75.7369L55.52 29.5469Z" fill="#383838"/>
<mask id="mask9_214_8312" style="mask-type:luminance" maskUnits="userSpaceOnUse" x="55" y="29" width="36" height="49">
<path d="M55.52 29.5469C55.52 29.5469 63.85 32.1169 65.46 33.5469C67.07 34.9769 69.68 46.5369 69.68 46.5369L73 60.8669C73.1968 61.5294 73.6037 62.1101 74.1592 62.5213C74.7147 62.9325 75.3889 63.1521 76.08 63.1469C78.45 63.0269 90.06 64.2569 90.06 64.2569V77.9269L66.43 75.7369L55.52 29.5469Z" fill="white"/>
</mask>
<g mask="url(#mask9_214_8312)">
<path d="M77.43 36.7869C77.5944 36.7869 77.7521 36.7216 77.8684 36.6053C77.9847 36.489 78.05 36.3313 78.05 36.1669C78.05 36.0024 77.9847 35.8447 77.8684 35.7285C77.7521 35.6122 77.5944 35.5469 77.43 35.5469C77.2656 35.5469 77.1079 35.6122 76.9916 35.7285C76.8753 35.8447 76.81 36.0024 76.81 36.1669C76.81 36.3313 76.8753 36.489 76.9916 36.6053C77.1079 36.7216 77.2656 36.7869 77.43 36.7869Z" fill="#383838"/>
</g>
<mask id="mask10_214_8312" style="mask-type:luminance" maskUnits="userSpaceOnUse" x="55" y="29" width="36" height="49">
<path d="M55.52 29.5469C55.52 29.5469 63.85 32.1169 65.46 33.5469C67.07 34.9769 69.68 46.5369 69.68 46.5369L73 60.8669C73.1968 61.5294 73.6037 62.1101 74.1592 62.5213C74.7147 62.9325 75.3889 63.1521 76.08 63.1469C78.45 63.0269 90.06 64.2569 90.06 64.2569V77.9269L66.43 75.7369L55.52 29.5469Z" fill="white"/>
</mask>
<g mask="url(#mask10_214_8312)">
<path d="M61.38 31.0667C66.33 46.0267 63.44 62.8567 71.08 77.0267C71.85 78.4467 73.9 77.1967 73.21 75.7767C70.56 70.2667 67.94 64.7067 66.69 58.6767C66.4 57.2667 64.3 57.6367 64.27 59.0067C64.1385 64.904 65.1715 70.7693 67.31 76.2667C67.3956 76.5479 67.5785 76.7894 67.826 76.9479C68.0735 77.1065 68.3693 77.1718 68.6605 77.1321C68.9517 77.0924 69.2193 76.9503 69.4153 76.7312C69.6112 76.5122 69.7228 76.2305 69.73 75.9367C69.8782 71.7043 69.1531 67.4867 67.6 63.5467C67.5144 63.2655 67.3315 63.024 67.084 62.8655C66.8366 62.7069 66.5407 62.6416 66.2495 62.6813C65.9583 62.721 65.6907 62.8631 65.4947 63.0822C65.2988 63.3012 65.1872 63.5829 65.18 63.8767C64.7012 69.1628 66.2053 74.4381 69.4 78.6767C69.573 78.9442 69.8425 79.1347 70.1525 79.2083C70.4624 79.2819 70.7888 79.2329 71.0636 79.0717C71.3383 78.9104 71.5402 78.6493 71.6271 78.3429C71.714 78.0364 71.6792 77.7082 71.53 77.4267C70.8473 75.7857 70.0067 74.215 69.02 72.7367C68.25 71.6067 67.26 69.9667 65.65 70.4667C64.3 70.8867 64.04 72.4667 64.18 73.6967C64.3486 75.2088 65.0762 76.6034 66.22 77.6067C66.4161 77.7908 66.6665 77.9065 66.9338 77.9364C67.2011 77.9664 67.4709 77.9089 67.7029 77.7727C67.9348 77.6365 68.1164 77.4288 68.2204 77.1807C68.3244 76.9327 68.3453 76.6576 68.28 76.3967C66.6133 67.3467 65.1767 58.26 63.97 49.1367C63.76 47.5767 61.29 47.5567 61.5 49.1367C62.73 58.4867 64.1933 67.7967 65.89 77.0667C66.58 76.6667 67.27 76.2567 67.95 75.8567C67.344 75.3663 66.9068 74.6984 66.7 73.9467C66.67 73.8367 66.66 72.8667 66.6 72.8267C65.99 72.7767 65.92 72.9267 66.37 73.2867C66.5 73.4667 66.63 73.6467 66.75 73.8267C67.793 75.3563 68.6775 76.988 69.39 78.6967C70.1 78.2767 70.81 77.8567 71.52 77.4467C68.5661 73.58 67.1804 68.7409 67.64 63.8967L65.22 64.2267C66.7026 67.9504 67.3972 71.941 67.26 75.9467L69.68 75.6167C67.6113 70.3356 66.6087 64.6972 66.73 59.0267L64.31 59.3567C65.6 65.5867 68.34 71.3567 71.08 77.0567C71.79 76.6367 72.5 76.2167 73.21 75.8067C65.71 61.8967 68.63 45.1567 63.76 30.4467C63.25 28.8967 60.87 29.5367 61.38 31.0667Z" fill="#383838"/>
</g>
<path d="M69.14 107.49C68.05 82.1196 65.89 34.3096 65.1 33.2896C64.02 31.8896 55.52 29.5596 55.52 29.5596C61.67 66.5496 62.85 92.0096 62.65 107.5L69.14 107.49Z" fill="#383838"/>
<mask id="mask11_214_8312" style="mask-type:luminance" maskUnits="userSpaceOnUse" x="55" y="29" width="15" height="79">
<path d="M69.14 107.49C68.05 82.1196 65.89 34.3096 65.1 33.2896C64.02 31.8896 55.52 29.5596 55.52 29.5596C61.67 66.5496 62.85 92.0096 62.65 107.5L69.14 107.49Z" fill="white"/>
</mask>
<g mask="url(#mask11_214_8312)">
<path d="M55.22 29.0298C55.22 29.0298 56.96 29.4398 57.67 29.7198L62.63 41.0898C62.63 41.0898 64.11 42.8198 61.35 43.1298L62.92 48.0798C63.1593 49.3545 63.1354 50.6646 62.85 51.9298C62.39 54.2498 60.12 62.5498 60.12 62.5498C59.3589 51.2662 57.7206 40.0591 55.22 29.0298Z" fill="#383838"/>
</g>
<path d="M54.8 29.3159C54.8 29.3159 56.54 29.7259 57.25 30.0059L62.21 41.3759C62.21 41.3759 63.69 43.1059 60.93 43.4159L62.5 48.3659C62.7392 49.6406 62.7154 50.9508 62.43 52.2159C61.97 54.5359 60.12 62.5459 60.12 62.5459C59.0508 51.3679 57.2739 40.269 54.8 29.3159Z" fill="#383838"/>
<path d="M57.9 31.3857C58.504 33.6138 59.3246 35.7775 60.35 37.8457C60.93 39.4357 63.82 42.3057 61.27 43.4657C61.4891 44.7509 61.8376 46.0106 62.31 47.2257C63.2 49.4957 62.51 51.9957 61.77 54.1957C61.4 55.2957 61.05 56.4057 60.66 57.4957C60.89 56.3557 61.17 55.2257 61.42 54.0957C62 51.8957 62.54 49.6357 61.67 47.4357C61.1462 46.2088 60.7734 44.9227 60.56 43.6057C60.5414 43.4751 60.5555 43.342 60.6008 43.2181C60.6462 43.0942 60.7215 42.9835 60.82 42.8957C60.9599 42.8124 61.1072 42.7421 61.26 42.6857C61.4635 42.4973 61.5919 42.2415 61.6213 41.9657C61.6507 41.69 61.5792 41.4129 61.42 41.1857C59.6222 38.1783 58.4266 34.8498 57.9 31.3857Z" fill="#383838"/>
<path d="M73.37 62.8677C71.3 65.0977 70.91 67.9477 69.92 70.7277C69.84 67.8577 70.59 64.2677 73.37 62.8677Z" fill="#383838"/>
<path d="M73.34 62.8477C72.898 66.0611 72.9621 69.324 73.53 72.5177C72.7556 71.0294 72.3355 69.3823 72.3026 67.7049C72.2696 66.0275 72.6247 64.3652 73.34 62.8477Z" fill="#383838"/>
<path d="M51.52 78.2387C51.52 78.2387 49.83 83.6287 51.08 84.8287C52.33 86.0287 55.88 81.0087 56.32 79.3087C56.76 77.6087 51.52 78.2387 51.52 78.2387Z" fill="#383838"/>
<path d="M25.2 35.4167C24.3239 35.664 23.5236 36.1266 22.8721 36.7624C22.2206 37.3981 21.7386 38.1869 21.47 39.0567C21.47 39.0567 20.94 68.7367 23.34 73.6467C23.6482 74.74 24.1995 75.7495 24.9528 76.5998C25.7061 77.45 26.6418 78.119 27.69 78.5567C31.24 79.9867 51.17 84.8267 51.17 84.8267C51.17 84.8267 49.9 75.3367 56.83 72.8367L37.46 64.7767C37.46 64.7767 35.68 34.5267 25.2 35.4167Z" fill="#383838"/>
<path d="M25.59 35.7568C30.88 36.4868 33.62 41.9768 34.81 46.6768C36.2378 51.4988 37.212 56.4436 37.72 61.4468C37.86 63.1568 37.61 64.7468 39.49 65.5168C40.9327 66.3239 42.4715 66.9455 44.07 67.3668C41.9889 67.0456 39.997 66.2965 38.22 65.1668C37.16 64.2768 37.36 62.6868 37.16 61.4968C36.7651 58.1958 36.1639 54.9227 35.36 51.6968C33.87 45.6568 32.57 37.5268 25.59 35.7568Z" fill="#383838"/>
<path d="M25.18 66.217C26.63 64.657 28.92 64.2769 30.93 64.0869C32.9837 63.8864 35.0556 63.9875 37.08 64.3869C33.09 64.8769 28.85 64.337 25.18 66.217Z" fill="#383838"/>
<path d="M25.8 72.3479C26.9878 70.1351 28.6826 68.2349 30.7457 66.8027C32.8087 65.3706 35.1816 64.4471 37.67 64.1079C33.0412 65.731 28.939 68.5787 25.8 72.3479Z" fill="#383838"/>
<path d="M48.65 82.2678C48.8144 82.2678 48.9721 82.2025 49.0884 82.0862C49.2047 81.97 49.27 81.8123 49.27 81.6478C49.27 81.4834 49.2047 81.3257 49.0884 81.2094C48.9721 81.0932 48.8144 81.0278 48.65 81.0278C48.4856 81.0278 48.3279 81.0932 48.2116 81.2094C48.0953 81.3257 48.03 81.4834 48.03 81.6478C48.03 81.8123 48.0953 81.97 48.2116 82.0862C48.3279 82.2025 48.4856 82.2678 48.65 82.2678Z" fill="#383838"/>
<path d="M55.09 13.3825C54.7696 12.7473 54.2264 12.2524 53.5641 11.9923C52.9019 11.7322 52.1671 11.7252 51.5 11.9725C51.3456 12.0211 51.2141 12.1242 51.13 12.2625C51.0685 12.369 51.04 12.4914 51.0481 12.614C51.0562 12.7367 51.1006 12.8543 51.1755 12.9517C51.2505 13.0492 51.3527 13.1222 51.4692 13.1615C51.5858 13.2008 51.7113 13.2047 51.83 13.1725C51.9584 13.1175 52.0926 13.0773 52.23 13.0525C52.25 13.0525 52.37 13.0325 52.26 13.0425C52.15 13.0525 52.28 13.0425 52.29 13.0425C52.353 13.0342 52.4165 13.0309 52.48 13.0325C52.5502 13.0309 52.6203 13.0342 52.69 13.0425C52.79 13.0525 52.7 13.0525 52.66 13.0325C52.69 13.0425 52.74 13.0425 52.77 13.0525C52.9 13.0825 53.03 13.1225 53.15 13.1625C53.23 13.1925 53.19 13.2125 53.13 13.1525C53.157 13.1718 53.1876 13.1854 53.22 13.1925C53.2821 13.222 53.3422 13.2554 53.4 13.2925C53.45 13.3225 53.51 13.3625 53.56 13.3925C53.45 13.3025 53.67 13.4625 53.56 13.3925C53.58 13.4125 53.61 13.4325 53.63 13.4525L53.78 13.6025C53.8 13.6225 53.81 13.6425 53.83 13.6625C53.85 13.6825 53.85 13.6925 53.87 13.7025C53.9 13.7425 53.89 13.7225 53.83 13.6525C53.83 13.6925 53.91 13.7725 53.94 13.8125C53.98 13.8825 54.01 13.9425 54.05 14.0125C54.0902 14.0826 54.144 14.144 54.2082 14.1931C54.2724 14.2422 54.3457 14.2781 54.4239 14.2985C54.5021 14.319 54.5836 14.3237 54.6636 14.3124C54.7436 14.3011 54.8206 14.2739 54.89 14.2325C55.0219 14.1401 55.1151 14.0024 55.152 13.8456C55.1889 13.6889 55.1668 13.5241 55.09 13.3825Z" fill="#383838"/>
<path d="M58.61 15.0826C58.72 15.0526 58.82 15.0226 58.93 15.0026C58.88 15.0126 58.82 15.0126 58.77 15.0226C58.9494 15.0026 59.1306 15.0026 59.31 15.0226C59.26 15.0126 59.2 15.0126 59.15 15.0026C59.3284 15.028 59.503 15.075 59.67 15.1426L59.52 15.0826C59.6317 15.1293 59.7388 15.1862 59.84 15.2526C59.865 15.2669 59.8884 15.2836 59.91 15.3026C60 15.3626 59.8 15.2026 59.88 15.2826C59.9256 15.3201 59.969 15.3602 60.01 15.4026C60.1255 15.5178 60.2819 15.5825 60.445 15.5825C60.6081 15.5825 60.7645 15.5178 60.88 15.4026C60.9932 15.2841 61.0564 15.1265 61.0564 14.9626C61.0564 14.7987 60.9932 14.6411 60.88 14.5226C60.5422 14.1886 60.1205 13.9518 59.6594 13.8374C59.1982 13.723 58.7148 13.7352 58.26 13.8726C58.1033 13.9181 57.9706 14.0231 57.8903 14.1651C57.8099 14.3071 57.7883 14.4749 57.83 14.6326C57.8761 14.7943 57.9833 14.9316 58.1289 15.0156C58.2745 15.0996 58.447 15.1236 58.61 15.0826Z" fill="#383838"/>
<path d="M52.62 16.1525C53.41 16.1525 53.42 14.5825 52.62 14.5825C51.82 14.5825 51.82 16.1525 52.62 16.1525Z" fill="#383838"/>
<path d="M58.73 18.0529C59.52 18.0529 59.53 16.4829 58.73 16.4829C57.93 16.4829 57.93 18.0529 58.73 18.0529Z" fill="#383838"/>
<path d="M54.42 19.3326C55.06 19.4426 55.75 19.4926 55.92 18.9326C55.89 17.6926 55.63 16.4426 56.61 15.3726C56.5416 16.3359 56.5987 17.304 56.78 18.2526C56.8266 18.5561 56.8096 18.866 56.73 19.1626C56.6344 19.3808 56.4811 19.5688 56.2866 19.7064C56.0921 19.844 55.8638 19.9259 55.6262 19.9434C55.3886 19.9609 55.1507 19.9133 54.9382 19.8056C54.7257 19.698 54.5465 19.5344 54.42 19.3326Z" fill="#383838"/>
<path d="M51.73 78.4878L58.67 79.8578C58.67 79.8578 60.21 81.6478 63.88 80.8078C63.88 80.8078 68.38 81.7578 69.33 81.5278C70.28 81.2978 72.65 80.4579 72.53 79.2579C72.41 78.0579 70.63 76.1579 70.63 75.7979C70.63 75.4379 73.35 76.6378 73.95 77.7078C74.55 78.7778 75.02 77.3478 75.02 77.3478C75.02 77.3478 72.18 72.5778 68.98 72.8078C66.0344 73.1362 63.1073 73.6135 60.21 74.2378L56.66 72.7979C56.66 72.8079 53.18 73.7678 51.73 78.4878Z" fill="#383838"/>
<mask id="mask12_214_8312" style="mask-type:luminance" maskUnits="userSpaceOnUse" x="51" y="72" width="25" height="10">
<path d="M51.73 78.4878L58.67 79.8578C58.67 79.8578 60.21 81.6478 63.88 80.8078C63.88 80.8078 68.38 81.7578 69.33 81.5278C70.28 81.2978 72.65 80.4579 72.53 79.2579C72.41 78.0579 70.63 76.1579 70.63 75.7979C70.63 75.4379 73.35 76.6378 73.95 77.7078C74.55 78.7778 75.02 77.3478 75.02 77.3478C75.02 77.3478 72.18 72.5778 68.98 72.8078C66.0344 73.1362 63.1073 73.6135 60.21 74.2378L56.66 72.7979C56.66 72.8079 53.18 73.7678 51.73 78.4878Z" fill="white"/>
</mask>
<g mask="url(#mask12_214_8312)">
<path d="M56.14 79.188C56.2843 78.0887 56.7545 77.0577 57.49 76.228C58.1754 75.3684 59.0168 74.6458 59.97 74.098C60.1038 74.0119 60.1993 73.8775 60.2367 73.7228C60.274 73.568 60.2504 73.4049 60.1706 73.2672C60.0908 73.1294 59.961 73.0278 59.8082 72.9832C59.6554 72.9387 59.4913 72.9547 59.35 73.028C58.2518 73.659 57.2872 74.4979 56.51 75.498C55.6164 76.5422 55.0587 77.8317 54.91 79.198C54.9108 79.3622 54.9764 79.5194 55.0925 79.6355C55.2086 79.7516 55.3658 79.8172 55.53 79.818C55.6924 79.8094 55.8456 79.7397 55.9588 79.6229C56.0719 79.506 56.1367 79.3506 56.14 79.188Z" fill="#383838"/>
</g>
<mask id="mask13_214_8312" style="mask-type:luminance" maskUnits="userSpaceOnUse" x="55" y="71" width="23" height="13">
<path d="M60.15 72.5084C60.15 72.5084 55.03 77.2584 55.49 80.2084C55.95 83.1584 72.16 84.8184 73.07 83.2784C74.0772 81.9096 75.2494 80.6702 76.56 79.5884L77.24 74.0884C77.25 74.0884 64.7 69.2784 60.15 72.5084Z" fill="white"/>
</mask>
<g mask="url(#mask13_214_8312)">
<path d="M51.71 78.4783L58.65 79.8483C58.65 79.8483 60.19 81.6383 63.86 80.7983C63.86 80.7983 68.36 81.7483 69.31 81.5183C70.26 81.2883 72.63 80.4483 72.51 79.2483C72.39 78.0483 70.61 76.1483 70.61 75.7883C70.61 75.4283 73.33 76.6283 73.93 77.6983C74.53 78.7683 75 77.3483 75 77.3483C75 77.3483 72.16 72.5783 68.96 72.8083C66.0144 73.1367 63.0873 73.614 60.19 74.2383L56.64 72.7983C56.64 72.8083 53.16 73.7583 51.71 78.4783Z" fill="#383838"/>
</g>
<path d="M67.46 107.5H2.22L17.61 90.1396H152L139.64 107.5H67.46Z" fill="#383838"/>
<path opacity="0.31" d="M83.26 101.08L93.79 101.76C93.79 101.76 95.87 106.09 101.91 104.83C107.95 103.57 138.87 100.86 139.23 98.8198C139.59 96.7798 131.94 91.6398 119.33 92.7698C106.72 93.8998 86.48 97.6698 86.48 97.6698L83.26 101.08Z" fill="#383838"/>
<path d="M85.88 81.4798C86.18 83.6398 87.45 91.3398 86 96.9698C85.9566 97.1499 85.8632 97.314 85.7305 97.4432C85.5978 97.5724 85.4312 97.6613 85.25 97.6998C84.674 97.7997 84.1265 98.0231 83.6449 98.3545C83.1633 98.6859 82.7591 99.1175 82.46 99.6198C82.3836 99.7658 82.3445 99.9283 82.346 100.093C82.3476 100.258 82.3899 100.42 82.469 100.564C82.5482 100.709 82.6618 100.831 82.7998 100.921C82.9378 101.011 83.0959 101.066 83.26 101.08L89.48 101.66C89.6442 101.674 89.8094 101.648 89.9611 101.583C90.1127 101.519 90.2463 101.418 90.35 101.29C94.329 96.0652 96.4794 89.6771 96.47 83.1098C96.47 73.0398 88.24 78.9798 86.26 80.5498C86.1202 80.6575 86.0115 80.8003 85.9447 80.9636C85.878 81.127 85.8557 81.305 85.88 81.4798Z" fill="#383838"/>
<mask id="mask14_214_8312" style="mask-type:luminance" maskUnits="userSpaceOnUse" x="82" y="77" width="15" height="25">
<path d="M85.88 81.4798C86.18 83.6398 87.45 91.3398 86 96.9698C85.9566 97.1499 85.8632 97.314 85.7305 97.4432C85.5978 97.5724 85.4312 97.6613 85.25 97.6998C84.674 97.7997 84.1265 98.0231 83.6449 98.3545C83.1633 98.6859 82.7591 99.1175 82.46 99.6198C82.3836 99.7658 82.3445 99.9283 82.346 100.093C82.3476 100.258 82.3899 100.42 82.469 100.564C82.5482 100.709 82.6618 100.831 82.7998 100.921C82.9378 101.011 83.0959 101.066 83.26 101.08L89.48 101.66C89.6442 101.674 89.8094 101.648 89.9611 101.583C90.1127 101.519 90.2463 101.418 90.35 101.29C94.329 96.0652 96.4794 89.6771 96.47 83.1098C96.47 73.0398 88.24 78.9798 86.26 80.5498C86.1202 80.6575 86.0115 80.8003 85.9447 80.9636C85.878 81.127 85.8557 81.305 85.88 81.4798Z" fill="white"/>
</mask>
<g mask="url(#mask14_214_8312)">
<path d="M90.82 83.8198C90.82 83.8198 90.82 90.1498 92.01 92.2998C93.2 94.4498 89.26 102.15 87.68 102.5C86.1 102.85 91.49 104.11 91.49 104.11L95.62 93.1898L96.4 85.7698L90.82 83.8198Z" fill="#383838"/>
</g>
<path d="M123.33 79.4498C123.43 79.9498 125.01 87.8498 123.06 93.4098C122.999 93.5833 122.885 93.7335 122.734 93.8392C122.584 93.945 122.404 94.0011 122.22 93.9998H117.68C117.523 93.9982 117.369 93.9554 117.233 93.8757C117.098 93.7961 116.986 93.6823 116.908 93.5458C116.83 93.4092 116.789 93.2546 116.789 93.0975C116.79 92.9403 116.831 92.7859 116.91 92.6498C117.396 91.7922 118.178 91.1414 119.11 90.8198C119.325 90.7505 119.505 90.603 119.617 90.4067C119.728 90.2104 119.761 89.9795 119.71 89.7598L118.72 85.5298C118.69 85.3839 118.621 85.249 118.52 85.1398L113.29 79.2698C113.201 79.1701 113.135 79.0517 113.097 78.9233C113.059 78.7949 113.05 78.6596 113.071 78.5274C113.093 78.3952 113.143 78.2694 113.219 78.1591C113.295 78.0488 113.394 77.9568 113.51 77.8898L120.66 73.7498C120.778 73.6823 120.91 73.6427 121.046 73.6341C121.181 73.6255 121.317 73.6482 121.443 73.7003C121.568 73.7525 121.68 73.8328 121.77 73.9349C121.86 74.0371 121.925 74.1585 121.96 74.2898L123.32 79.3798C123.326 79.4026 123.33 79.4261 123.33 79.4498Z" fill="#383838"/>
<path d="M123.87 89.7697C123.87 89.7697 122.12 86.5897 119.29 87.9097L119.72 89.7497C119.77 89.9628 119.738 90.1869 119.631 90.3776C119.523 90.5683 119.348 90.7118 119.14 90.7797C118.638 90.9265 118.172 91.178 117.774 91.5175C117.376 91.857 117.054 92.277 116.83 92.7497C116.764 92.8811 116.733 93.0273 116.739 93.1742C116.746 93.3212 116.789 93.4641 116.867 93.5893C116.944 93.7145 117.052 93.818 117.18 93.8898C117.308 93.9616 117.453 93.9994 117.6 93.9997H122.26C122.439 93.9992 122.613 93.943 122.758 93.8391C122.903 93.7351 123.012 93.5885 123.07 93.4197C123.485 92.2403 123.754 91.0145 123.87 89.7697Z" fill="#383838"/>
<path d="M97.39 47.7798H97.4C97.61 47.8298 102.84 49.0298 104.17 56.5398C105.51 64.1198 104.91 85.0698 104.9 85.5298V85.5398C104.93 85.8398 105.91 95.5198 100.94 103.48C100.817 103.676 100.646 103.838 100.443 103.95C100.24 104.062 100.012 104.12 99.78 104.12H93.41C93.2767 104.119 93.146 104.083 93.0306 104.017C92.9151 103.95 92.8189 103.855 92.7514 103.74C92.6839 103.625 92.6474 103.495 92.6454 103.361C92.6433 103.228 92.676 103.097 92.74 102.98C92.9816 102.523 93.3181 102.124 93.7269 101.808C94.1356 101.493 94.6073 101.268 95.11 101.15C95.2599 101.117 95.3967 101.04 95.5034 100.93C95.6101 100.82 95.682 100.681 95.71 100.53C96.07 98.3598 97.29 90.2798 96.4 85.7798C96.3955 85.7576 96.3847 85.7371 96.3689 85.7208C96.3531 85.7045 96.333 85.6931 96.311 85.6878C96.2889 85.6826 96.2658 85.6837 96.2443 85.6912C96.2229 85.6986 96.2041 85.712 96.19 85.7298C95.2948 86.8898 94.6141 88.2004 94.18 89.5998C94.1762 89.6165 94.1687 89.6321 94.1581 89.6455C94.1475 89.659 94.1341 89.6699 94.1188 89.6775C94.1036 89.6852 94.0868 89.6893 94.0697 89.6897C94.0526 89.6901 94.0356 89.6868 94.02 89.6798C92.74 89.1798 90.93 86.6098 90.49 85.9798C90.4799 85.9632 90.4654 85.9495 90.4482 85.9404C90.4309 85.9313 90.4115 85.927 90.392 85.928C90.3725 85.9291 90.3537 85.9354 90.3375 85.9462C90.3213 85.9571 90.3083 85.9722 90.3 85.9898C89.8478 86.8416 89.6896 87.8189 89.85 88.7698C89.8525 88.7893 89.8502 88.8092 89.8432 88.8275C89.8362 88.8459 89.8248 88.8623 89.8099 88.8752C89.7951 88.888 89.7773 88.897 89.7581 88.9013C89.7389 88.9056 89.7189 88.9051 89.7 88.8998C88.22 88.3898 86.52 84.3398 86.04 83.1298C86.0313 83.1071 86.0156 83.0876 85.9952 83.0743C85.9748 83.0609 85.9507 83.0543 85.9264 83.0554C85.902 83.0565 85.8786 83.0653 85.8595 83.0804C85.8404 83.0956 85.8266 83.1164 85.82 83.1398C85.5657 84.0302 85.0417 84.8197 84.32 85.3998C84.3026 85.4124 84.2821 85.4201 84.2607 85.422C84.2393 85.424 84.2178 85.4202 84.1984 85.411C84.179 85.4018 84.1624 85.3876 84.1504 85.3698C84.1383 85.352 84.1313 85.3313 84.13 85.3098C84.1 82.1398 83.49 77.1498 81.46 74.7898C79.37 72.3698 78.59 64.6598 79.11 59.3098C79.6 54.2398 83.67 47.3398 84.1 46.6198C84.1104 46.6006 84.1267 46.5854 84.1466 46.5763C84.1664 46.5673 84.1887 46.565 84.21 46.5698L97.39 47.7798Z" fill="#383838"/>
<path d="M98.65 72.2896C97.5987 73.4072 96.9723 74.858 96.88 76.3896C95.84 74.3896 94.69 67.5996 96.88 64.7996C96.952 65.8254 97.3125 66.8099 97.92 67.6396C98.96 66.5196 98.65 63.4396 98.65 63.4396C100.166 64.6057 101.176 66.3099 101.47 68.1996C102.41 66.7296 101.16 60.1096 101.16 60.1096L103.25 62.0396C103.25 62.0396 102.1 58.3896 102.62 56.8896C103.14 55.3896 101.99 51.0796 101.99 51.0796C101.99 51.0796 103.95 54.7896 105.06 55.3496C106.17 55.9096 118.58 55.1696 121.49 56.0196C124.4 56.8696 129.31 57.4196 134.11 66.4396C138.91 75.4596 135.05 86.7996 135.05 86.7996L136.52 95.3096C136.52 95.3096 131.4 87.7496 128.69 85.9596C125.98 84.1696 121.18 77.2296 121.18 77.2296C121.18 77.2296 116.25 81.6896 105.06 84.9796V87.1196C105.06 87.1196 103.14 85.8596 103.14 84.1796C103.141 83.1662 103.356 82.1645 103.77 81.2396C103.77 81.2396 103.04 83.4096 101.48 81.9096C99.92 80.4096 102.31 75.7796 102.31 75.7796C102.31 75.7796 103.34 72.8196 98.65 72.2896Z" fill="#383838"/>
<path d="M131.81 91.6199L136.51 95.2999C136.51 95.2999 134 88.2599 131.81 86.9999C129.62 85.7399 126.95 84.4399 126.95 84.4399L131.81 91.6199Z" fill="#383838"/>
<path d="M137.09 98.5097L136.51 95.2997C136.51 95.2997 134.1 90.8897 131.81 91.6197L132.37 95.5896C132.391 95.7266 132.368 95.8668 132.303 95.9893C132.238 96.1118 132.135 96.2101 132.01 96.2696C131.095 96.7013 130.355 97.4313 129.91 98.3396C129.863 98.4402 129.842 98.551 129.848 98.6619C129.855 98.7728 129.889 98.8803 129.947 98.9747C130.006 99.0691 130.087 99.1473 130.184 99.2023C130.28 99.2573 130.389 99.2873 130.5 99.2897H136.45C136.546 99.2882 136.641 99.2658 136.727 99.2241C136.814 99.1823 136.89 99.1223 136.951 99.048C137.012 98.9738 137.056 98.8872 137.08 98.7942C137.104 98.7012 137.107 98.6041 137.09 98.5097Z" fill="#383838"/>
<path d="M92.87 38.7258L90.04 37.2359C88.7564 36.7253 87.3494 36.6104 86 36.9058H85.46C85.42 36.9258 84.96 37.0758 84.92 37.0858C84.0475 37.2136 83.231 37.5923 82.57 38.1758C79.86 40.1758 80.4 43.0958 78.41 44.9158C76.16 46.9758 89 51.8258 90.49 52.4058C90.5399 52.425 90.5823 52.4595 90.6111 52.5045C90.6399 52.5495 90.6535 52.6026 90.65 52.6558L90.32 57.4058C90.3184 57.4296 90.3218 57.4535 90.33 57.4758C90.7473 59.3932 91.0247 61.3383 91.16 63.2958C91.1649 63.3573 91.1921 63.4148 91.2366 63.4575C91.281 63.5002 91.3396 63.5251 91.4011 63.5276C91.4627 63.5301 91.5231 63.5099 91.5708 63.4709C91.6185 63.4318 91.6502 63.3767 91.66 63.3158C91.7475 62.7259 91.8042 62.1317 91.83 61.5358C91.8325 61.4828 91.8519 61.432 91.8853 61.3908C91.9188 61.3495 91.9645 61.3201 92.0159 61.3067C92.0672 61.2933 92.1215 61.2966 92.1708 61.3163C92.2202 61.3359 92.2619 61.3708 92.29 61.4158C92.8391 62.2696 93.2413 63.2093 93.48 64.1958C93.4934 64.256 93.5287 64.309 93.579 64.3445C93.6293 64.3801 93.6911 64.3956 93.7522 64.3881C93.8134 64.3806 93.8695 64.3507 93.9098 64.304C93.9501 64.2574 93.9715 64.1974 93.97 64.1358C93.9846 62.9922 93.9144 61.8491 93.76 60.7158C93.7533 60.6657 93.7619 60.6146 93.7845 60.5693C93.8071 60.524 93.8429 60.4866 93.887 60.4618C93.9312 60.437 93.9817 60.4261 94.0322 60.4304C94.0826 60.4347 94.1307 60.454 94.17 60.4858C94.729 60.9816 95.0969 61.6573 95.21 62.3958C95.2193 62.4508 95.2469 62.5009 95.2883 62.5382C95.3297 62.5754 95.3825 62.5976 95.4381 62.601C95.4937 62.6045 95.5488 62.5891 95.5946 62.5573C95.6403 62.5255 95.6739 62.4792 95.69 62.4258C95.8502 61.9398 95.951 61.4361 95.99 60.9258C95.9967 60.8634 96.0266 60.8058 96.0737 60.7643C96.1208 60.7228 96.1818 60.7005 96.2446 60.7017C96.3074 60.703 96.3674 60.7277 96.4128 60.7711C96.4583 60.8144 96.4858 60.8732 96.49 60.9358V60.9858C96.4928 61.0426 96.5149 61.0967 96.5527 61.1392C96.5905 61.1817 96.6417 61.2099 96.6978 61.2193C96.7538 61.2286 96.8114 61.2185 96.8609 61.1906C96.9105 61.1627 96.949 61.1187 96.97 61.0658C97.152 60.6229 97.2796 60.1595 97.35 59.6858C97.3629 59.6242 97.3988 59.5697 97.4504 59.5335C97.502 59.4974 97.5654 59.4822 97.6278 59.4911C97.6902 59.5 97.7469 59.5324 97.7863 59.5815C97.8257 59.6307 97.8449 59.693 97.84 59.7558C97.828 59.9179 97.8012 60.0786 97.76 60.2358C97.76 60.2358 99.43 53.3058 99.08 50.0858C98.77 47.1758 98.39 46.6358 98.33 46.5559C98.3177 46.5445 98.3075 46.5309 98.3 46.5158L93.43 39.2558C93.39 39.2158 92.92 38.7458 92.87 38.7258Z" fill="#383838"/>
<path d="M87.32 53.937C88.8662 55.434 90.0201 57.2885 90.68 59.337C90.68 59.337 89.9 56.177 92.33 54.497C94.76 52.817 93.86 48.267 93.86 48.267C93.7315 48.5066 93.5462 48.711 93.3203 48.8623C93.0944 49.0135 92.8348 49.1071 92.5644 49.1348C92.2939 49.1624 92.0208 49.1233 91.769 49.0208C91.5172 48.9183 91.2943 48.7556 91.12 48.547C89.42 47.037 86.49 45.817 84.16 46.547C81.83 47.277 85.17 50.647 85.17 50.647C85.17 50.647 87.74 48.897 88.68 50.087C89.62 51.277 88.5 53.237 87.32 53.937Z" fill="#383838"/>
<path d="M87.04 40.9158C86.8539 40.6032 86.5618 40.3677 86.2169 40.2521C85.8719 40.1365 85.4969 40.1485 85.16 40.2858C83.84 40.7058 84.19 43.2258 84.19 43.2258C84.19 43.2258 85.37 40.9158 87.04 40.9158Z" fill="#383838"/>
<path d="M86 44.2657C86.5357 44.2657 86.97 43.8269 86.97 43.2857C86.97 42.7444 86.5357 42.3057 86 42.3057C85.4643 42.3057 85.03 42.7444 85.03 43.2857C85.03 43.8269 85.4643 44.2657 86 44.2657Z" fill="#383838"/>
<path d="M96.13 48.1857C96.9368 47.4715 97.8836 46.9334 98.91 46.6057C99.151 46.5336 99.3691 46.4001 99.543 46.2184C99.7169 46.0366 99.8407 45.8128 99.9021 45.5689C99.9636 45.325 99.9607 45.0693 99.8937 44.8269C99.8268 44.5844 99.698 44.3635 99.52 44.1857C99.43 44.0957 99.33 44.0057 99.22 43.9057C97.3783 42.0489 95.6549 40.0783 94.06 38.0057C93.8674 37.7637 93.6013 37.5909 93.3019 37.5133C93.0024 37.4358 92.6859 37.4577 92.4 37.5757L91.72 37.8557C91.5369 37.9318 91.3713 38.0445 91.2334 38.187C91.0954 38.3294 90.988 38.4985 90.9178 38.6839C90.8475 38.8693 90.8159 39.0671 90.8249 39.2652C90.8339 39.4633 90.8833 39.6574 90.97 39.8357C91.7139 41.2141 92.0602 42.772 91.97 44.3357C91.9267 45.8163 92.3848 47.2681 93.27 48.4557C93.3864 48.6376 93.5426 48.7906 93.727 48.903C93.9113 49.0155 94.1188 49.0844 94.3338 49.1047C94.5487 49.1249 94.7655 49.0959 94.9676 49.0199C95.1696 48.9438 95.3517 48.8227 95.5 48.6657C95.6248 48.5404 95.7661 48.4328 95.92 48.3457C95.9941 48.2981 96.0644 48.2446 96.13 48.1857Z" fill="#383838"/>
<mask id="mask15_214_8312" style="mask-type:luminance" maskUnits="userSpaceOnUse" x="79" y="39" width="3" height="6">
<path d="M81.18 39.626C81.18 39.626 79.3 43.776 79.13 44.076C79.9902 43.3922 80.8146 42.6645 81.6 41.896L81.18 39.626Z" fill="white"/>
</mask>
<g mask="url(#mask15_214_8312)">
<path d="M79.85 41.0861C79.85 41.0861 80.39 39.6261 80.93 39.9961C81.58 40.4361 81.11 41.6361 81.11 41.6361C80.9526 41.4583 80.7583 41.317 80.5407 41.2221C80.3231 41.1271 80.0874 41.0807 79.85 41.0861Z" fill="#383838"/>
</g>
<mask id="mask16_214_8312" style="mask-type:luminance" maskUnits="userSpaceOnUse" x="79" y="39" width="3" height="6">
<path d="M81.18 39.626C81.18 39.626 79.3 43.776 79.13 44.076C79.9902 43.3922 80.8146 42.6645 81.6 41.896L81.18 39.626Z" fill="white"/>
</mask>
<g mask="url(#mask16_214_8312)">
<path d="M80.13 42.6358C80.1393 42.8175 80.076 42.9954 79.9541 43.1304C79.8322 43.2655 79.6617 43.3465 79.48 43.3558C79.12 43.3558 78.95 43.3058 78.95 42.9058C78.967 42.7136 79.0227 42.5268 79.1138 42.3566C79.2048 42.1865 79.3294 42.0366 79.48 41.9158C79.8 41.7658 80.13 42.2458 80.13 42.6358Z" fill="#383838"/>
</g>
<path d="M99.31 49.4668C97.805 51.0246 95.9963 52.2571 93.9959 53.0879C91.9955 53.9187 89.8458 54.3301 87.68 54.2968L89.24 56.1168C89.24 56.1168 97.97 55.0768 99.31 52.3568C100.65 49.6568 99.31 49.4668 99.31 49.4668Z" fill="#383838"/>
<path d="M98.95 49.1069C98.95 49.1069 95.54 53.9569 84.58 52.9569L83.19 54.0269C83.19 54.0269 94.99 56.7969 98.95 52.0069C100.87 49.6769 98.95 49.1069 98.95 49.1069Z" fill="#383838"/>
<path d="M88.27 49.7567C88.012 49.3476 87.6081 49.0519 87.1402 48.9294C86.6724 48.8068 86.1754 48.8666 85.75 49.0967C84.19 49.6967 77.82 46.0167 78.2 50.2067C78.29 51.1967 77.26 50.5267 77.26 50.5267C77.26 50.5267 76.51 52.4667 79.48 53.3267C81.7133 54.1586 84.1517 54.2671 86.45 53.6367C89 53.0267 90.17 51.0767 88.27 49.7567Z" fill="#383838"/>
<path d="M84.05 38.1855C83.4623 38.8667 83.0564 39.6854 82.87 40.5655C82.6002 41.6571 82.1544 42.6974 81.55 43.6455C82.3697 44.6596 83.2408 45.6308 84.16 46.5555C85.24 47.5756 85.17 50.6555 85.17 50.6555C84.5924 50.9758 83.9778 51.2243 83.34 51.3955C81.63 51.9956 78.57 50.3055 78.57 50.3055C78.2658 50.858 77.7774 51.2862 77.19 51.5155C77.19 51.5155 73.88 46.0955 75.52 45.8355C77.5414 45.5278 79.4646 44.7578 81.14 43.5855C81.7634 42.7852 82.1915 41.8504 82.39 40.8555C82.45 39.6555 84.05 38.1855 84.05 38.1855Z" fill="#383838"/>
<path d="M76.7 48.9055C76.7 48.9055 78.23 47.6855 78.4 46.7455C78.57 45.8055 76.78 45.4455 75.67 45.7355C74.56 46.0255 74.68 48.1155 76.7 48.9055Z" fill="#383838"/>
<path opacity="0.31" d="M25.31 90.1396C25.31 90.1396 44.85 98.5596 53.48 97.8496C62.11 97.1396 77.75 96.5797 78.1 95.9697C78.45 95.3597 67.85 90.1396 67.85 90.1396H25.31Z" fill="#383838"/>
</g>
<path d="M44.23 13.8429C44.91 13.8629 45.22 13.0329 45.42 12.3829C45.9952 10.604 47.1083 9.04744 48.6057 7.92797C50.1031 6.80851 51.911 6.1813 53.78 6.1329C55.73 6.1229 57.88 6.9929 58.57 8.8229C58.8189 9.63138 58.9139 10.4794 58.85 11.3229C58.974 14.3192 58.623 17.3163 57.81 20.2029C56.85 23.0329 55.22 26.6529 52.37 27.5029C51.81 27.6729 50.72 26.8229 50.45 27.3429C50.3934 27.5261 50.3775 27.7195 50.4034 27.9095C50.4293 28.0995 50.4964 28.2815 50.6 28.4429C51.02 29.2029 54.02 30.6129 53.95 31.3029C53.69 33.7129 49.22 38.7529 48.15 39.4229C46.98 37.6029 43.63 37.0629 42.46 35.2429C42.22 34.8729 36.95 30.6129 36.88 30.1829C36.8 29.6729 41.36 26.3129 41.51 25.8129C42.5543 22.7791 42.9396 19.5574 42.64 16.3629C41.62 16.1529 40.51 15.3529 40.53 14.3029C40.6 10.7729 43.82 12.3429 44.13 13.4729L44.23 13.8429Z" fill="#FDDDCA"/>
<mask id="mask17_214_8312" style="mask-type:luminance" maskUnits="userSpaceOnUse" x="36" y="6" width="23" height="34">
<path d="M44.23 13.8429C44.91 13.8629 45.22 13.0329 45.42 12.3829C45.9952 10.604 47.1083 9.04744 48.6057 7.92797C50.1031 6.80851 51.911 6.1813 53.78 6.1329C55.73 6.1229 57.88 6.9929 58.57 8.8229C58.8189 9.63138 58.9139 10.4794 58.85 11.3229C58.974 14.3192 58.623 17.3163 57.81 20.2029C56.85 23.0329 55.22 26.6529 52.37 27.5029C51.81 27.6729 50.72 26.8229 50.45 27.3429C50.3934 27.5261 50.3775 27.7195 50.4034 27.9095C50.4293 28.0995 50.4964 28.2815 50.6 28.4429C51.02 29.2029 54.02 30.6129 53.95 31.3029C53.69 33.7129 49.22 38.7529 48.15 39.4229C46.98 37.6029 43.63 37.0629 42.46 35.2429C42.22 34.8729 36.95 30.6129 36.88 30.1829C36.8 29.6729 41.36 26.3129 41.51 25.8129C42.5543 22.7791 42.9396 19.5574 42.64 16.3629C41.62 16.1529 40.51 15.3529 40.53 14.3029C40.6 10.7729 43.82 12.3429 44.13 13.4729L44.23 13.8429Z" fill="white"/>
</mask>
<g mask="url(#mask17_214_8312)">
<g opacity="0.38">
<path d="M44.78 13.8627C45.2242 14.2599 45.7785 14.5128 46.3696 14.5878C46.9608 14.6628 47.5607 14.5564 48.09 14.2827C49.37 13.6927 50.15 12.4427 51.12 11.4727C51.5804 10.9285 52.1487 10.4857 52.789 10.1724C53.4294 9.85913 54.1277 9.68217 54.84 9.65273C56.36 9.72273 57.73 10.5627 59.26 10.0227C60 9.76273 59.68 8.55273 58.93 8.82273C57.62 9.28273 56.27 8.50273 54.95 8.41273C53.7236 8.37488 52.521 8.75579 51.54 9.49273C50.5775 10.2535 49.6992 11.1151 48.92 12.0627C48.16 12.8827 46.71 14.0227 45.65 12.9927C45.08 12.4327 44.2 13.3127 44.78 13.8627Z" fill="#FF965C"/>
</g>
</g>
<mask id="mask18_214_8312" style="mask-type:luminance" maskUnits="userSpaceOnUse" x="36" y="6" width="23" height="34">
<path d="M44.23 13.8429C44.91 13.8629 45.22 13.0329 45.42 12.3829C45.9952 10.604 47.1083 9.04744 48.6057 7.92797C50.1031 6.80851 51.911 6.1813 53.78 6.1329C55.73 6.1229 57.88 6.9929 58.57 8.8229C58.8189 9.63138 58.9139 10.4794 58.85 11.3229C58.974 14.3192 58.623 17.3163 57.81 20.2029C56.85 23.0329 55.22 26.6529 52.37 27.5029C51.81 27.6729 50.72 26.8229 50.45 27.3429C50.3934 27.5261 50.3775 27.7195 50.4034 27.9095C50.4293 28.0995 50.4964 28.2815 50.6 28.4429C51.02 29.2029 54.02 30.6129 53.95 31.3029C53.69 33.7129 49.22 38.7529 48.15 39.4229C46.98 37.6029 43.63 37.0629 42.46 35.2429C42.22 34.8729 36.95 30.6129 36.88 30.1829C36.8 29.6729 41.36 26.3129 41.51 25.8129C42.5543 22.7791 42.9396 19.5574 42.64 16.3629C41.62 16.1529 40.51 15.3529 40.53 14.3029C40.6 10.7729 43.82 12.3429 44.13 13.4729L44.23 13.8429Z" fill="white"/>
</mask>
<g mask="url(#mask18_214_8312)">
<path opacity="0.38" d="M41.86 21.0328C41.86 21.0328 45.71 26.8828 51.49 27.7128C51.49 27.7128 55.94 30.2328 53.61 29.3028C51.69 28.5328 56.48 29.8028 56.51 31.8828C56.56 35.1728 56.6 35.2728 55.53 35.0028C51.89 34.0928 49.51 36.0528 45.41 32.8028C44.11 31.7728 41.34 21.4228 42.42 20.1528L40.02 21.8528" fill="#FF965C"/>
</g>
<path d="M44.24 13.643C44.6663 13.9802 45.1868 14.1767 45.7295 14.2054C46.2723 14.234 46.8106 14.0934 47.27 13.803C48.1775 13.2022 48.9532 12.4231 49.55 11.513C50.1516 10.6052 50.9518 9.84603 51.89 9.293C53.67 8.413 55.77 9.113 57.69 9.623C59.61 10.133 61.97 10.303 63.24 8.773C62.6626 8.81529 62.0828 8.73367 61.5396 8.53361C60.9963 8.33354 60.5021 8.01966 60.09 7.613C60.8839 7.5012 61.6095 7.10283 62.13 6.493C61.558 6.49463 60.9914 6.38128 60.464 6.15968C59.9366 5.93808 59.4592 5.61274 59.06 5.203C58.21 4.433 57.53 3.503 56.68 2.733C55.7133 1.86252 54.564 1.21943 53.3164 0.850865C52.0688 0.482301 50.7546 0.397608 49.47 0.602997C46.91 1.033 47.58 0.852997 44.59 2.703C44 3.063 42.34 3.593 41.91 4.143C41.3778 4.75327 40.915 5.42068 40.53 6.133C39.58 7.783 39.59 13.393 40 15.243C40.45 17.273 41.75 18.103 41.7 20.233C41.69 20.583 42.35 20.543 42.68 20.443C43.1 20.323 43.33 19.883 43.5 19.473C44.2209 17.6782 44.5186 15.7414 44.37 13.813" fill="#7B2B0F"/>
<path d="M44.54 20.0432C44.4968 20.1829 44.4056 20.3028 44.2825 20.3816C44.1594 20.4605 44.0124 20.4933 43.8674 20.4741C43.7225 20.4549 43.589 20.3851 43.4906 20.2769C43.3923 20.1688 43.3354 20.0293 43.33 19.8832C43.3733 19.1269 43.3666 18.3686 43.31 17.6132C43.28 17.2532 43.23 16.8932 43.17 16.5332C43.14 16.3832 43.13 16.1632 43.09 15.9732C43.0823 15.9739 43.0752 15.9775 43.07 15.9832C42.9911 16.0046 42.9109 16.0213 42.83 16.0332C42.6384 16.065 42.4434 16.0717 42.25 16.0532C41.813 16.0074 41.4026 15.8214 41.08 15.5232C40.7689 15.2139 40.5644 14.8136 40.496 14.3803C40.4277 13.947 40.4991 13.5032 40.7 13.1132C40.7995 12.9006 40.944 12.7123 41.1236 12.5611C41.3031 12.41 41.5133 12.2997 41.7397 12.2379C41.9661 12.176 42.2032 12.1642 42.4346 12.2031C42.6661 12.242 42.8863 12.3307 43.08 12.4632C43.3945 12.7177 43.6767 13.0099 43.92 13.3332C44.2148 13.6359 44.443 13.997 44.59 14.3932C44.641 14.5233 44.6392 14.6682 44.585 14.797C44.5309 14.9259 44.4286 15.0285 44.3 15.0832C44.6406 15.7706 44.8218 16.526 44.83 17.2932C44.8933 18.2197 44.7952 19.1502 44.54 20.0432Z" fill="#FDDDCA"/>
<mask id="mask19_214_8312" style="mask-type:luminance" maskUnits="userSpaceOnUse" x="40" y="12" width="5" height="9">
<path d="M44.54 20.0432C44.4968 20.1829 44.4056 20.3028 44.2825 20.3816C44.1594 20.4605 44.0124 20.4933 43.8674 20.4741C43.7225 20.4549 43.589 20.3851 43.4906 20.2769C43.3923 20.1688 43.3354 20.0293 43.33 19.8832C43.3733 19.1269 43.3666 18.3686 43.31 17.6132C43.28 17.2532 43.23 16.8932 43.17 16.5332C43.14 16.3832 43.13 16.1632 43.09 15.9732C43.0823 15.9739 43.0752 15.9775 43.07 15.9832C42.9911 16.0046 42.9109 16.0213 42.83 16.0332C42.6384 16.065 42.4434 16.0717 42.25 16.0532C41.813 16.0074 41.4026 15.8214 41.08 15.5232C40.7689 15.2139 40.5644 14.8136 40.496 14.3803C40.4277 13.947 40.4991 13.5032 40.7 13.1132C40.7995 12.9006 40.944 12.7123 41.1236 12.5611C41.3031 12.41 41.5133 12.2997 41.7397 12.2379C41.9661 12.176 42.2032 12.1642 42.4346 12.2031C42.6661 12.242 42.8863 12.3307 43.08 12.4632C43.3945 12.7177 43.6767 13.0099 43.92 13.3332C44.2148 13.6359 44.443 13.997 44.59 14.3932C44.641 14.5233 44.6392 14.6682 44.585 14.797C44.5309 14.9259 44.4286 15.0285 44.3 15.0832C44.6406 15.7706 44.8218 16.526 44.83 17.2932C44.8933 18.2197 44.7952 19.1502 44.54 20.0432Z" fill="white"/>
</mask>
<g mask="url(#mask19_214_8312)">
<g opacity="0.38">
<path d="M39.29 12.5031C39.0511 13.0343 38.9872 13.6276 39.1076 14.1974C39.2281 14.7673 39.5266 15.284 39.96 15.6731C40.4885 16.0508 41.0922 16.31 41.73 16.4331C41.8 16.4531 42.08 16.5431 42.08 16.5431C42.04 16.4631 42 16.3931 41.96 16.3131V16.7531C41.95 17.1331 41.95 17.5131 41.94 17.8931C41.94 18.0562 42.0048 18.2126 42.1201 18.328C42.2355 18.4433 42.3919 18.5081 42.555 18.5081C42.7181 18.5081 42.8745 18.4433 42.9899 18.328C43.1052 18.2126 43.17 18.0562 43.17 17.8931C43.18 17.5331 43.18 17.1631 43.19 16.8031C43.2443 16.4547 43.1884 16.0981 43.03 15.7831C42.67 15.2331 41.8 15.2031 41.23 15.0031C41.0393 14.9444 40.864 14.8439 40.717 14.709C40.5699 14.5741 40.4548 14.4081 40.38 14.2231C40.3089 14.048 40.2683 13.8619 40.26 13.6731V13.5031C40.26 13.4731 40.28 13.3531 40.26 13.4331C40.2719 13.3653 40.2886 13.2985 40.31 13.2331C40.31 13.2131 40.37 13.0531 40.34 13.1331C40.4172 12.9898 40.4374 12.8226 40.3966 12.665C40.3558 12.5074 40.257 12.371 40.12 12.2831C40.0513 12.2421 39.9751 12.2152 39.8959 12.2041C39.8166 12.1929 39.736 12.1978 39.6587 12.2183C39.5813 12.2388 39.5089 12.2745 39.4456 12.3234C39.3822 12.3724 39.3294 12.4334 39.29 12.5031Z" fill="#FF965C"/>
</g>
</g>
<path d="M49.86 21.4751C49.86 21.4751 51.93 22.8451 53.3 22.6651C54.67 22.4851 51.16 25.5951 49.86 21.4751Z" fill="white"/>
<path d="M36.88 29.4502C36.88 29.4502 47.73 37.6302 48.15 38.8202C48.15 38.8202 53.54 30.8202 53.3 30.0502C53.9909 30.5384 54.6102 31.1207 55.14 31.7802C55.38 32.3202 63.14 71.8502 61 92.2602C61 92.2602 47.37 93.0302 42.7 93.2802C41.98 93.3102 36.88 29.4502 36.88 29.4502Z" fill="#0072BB"/>
<mask id="mask20_214_8312" style="mask-type:luminance" maskUnits="userSpaceOnUse" x="36" y="29" width="26" height="65">
<path d="M36.88 29.4502C36.88 29.4502 47.73 37.6302 48.15 38.8202C48.15 38.8202 53.54 30.8202 53.3 30.0502C53.9909 30.5384 54.6102 31.1207 55.14 31.7802C55.38 32.3202 63.14 71.8502 61 92.2602C61 92.2602 47.37 93.0302 42.7 93.2802C41.98 93.3102 36.88 29.4502 36.88 29.4502Z" fill="white"/>
</mask>
<g mask="url(#mask20_214_8312)">
<g opacity="0.06">
<path d="M55.06 31.9502C56.6 42.1502 58.15 52.3602 59.05 62.6402C59.9099 72.4986 60.1704 82.4002 59.83 92.2902" fill="#2D527E"/>
</g>
</g>
<mask id="mask21_214_8312" style="mask-type:luminance" maskUnits="userSpaceOnUse" x="36" y="29" width="26" height="65">
<path d="M36.88 29.4502C36.88 29.4502 47.73 37.6302 48.15 38.8202C48.15 38.8202 53.54 30.8202 53.3 30.0502C53.9909 30.5384 54.6102 31.1207 55.14 31.7802C55.38 32.3202 63.14 71.8502 61 92.2602C61 92.2602 47.37 93.0302 42.7 93.2802C41.98 93.3102 36.88 29.4502 36.88 29.4502Z" fill="white"/>
</mask>
<g mask="url(#mask21_214_8312)">
<g opacity="0.36">
<path d="M45.51 92.1704C45.66 89.1604 45.7567 86.1504 45.8 83.1404L43.46 84.9404C43.21 84.8404 43.44 84.9304 43.56 84.9904C43.66 85.0404 43.76 85.0804 43.87 85.1304C44.12 85.2504 44.38 85.3704 44.63 85.5004C45.11 85.7404 45.57 86.0104 46.03 86.2804C46.4553 86.523 46.9589 86.5887 47.4322 86.4633C47.9054 86.338 48.3105 86.0317 48.56 85.6104C48.7966 85.1815 48.8601 84.6783 48.7373 84.2041C48.6146 83.7299 48.315 83.3207 47.9 83.0604C46.7945 82.4018 45.6413 81.8269 44.45 81.3404C43.3 80.8604 42.12 82.0504 42.11 83.1404C42.07 86.1504 41.9733 89.1604 41.82 92.1704C41.8203 92.6619 42.0149 93.1333 42.3615 93.4818C42.7081 93.8303 43.1785 94.0275 43.67 94.0304C44.1578 94.0188 44.6221 93.8185 44.9652 93.4716C45.3084 93.1247 45.5037 92.6583 45.51 92.1704Z" fill="#1A345C"/>
</g>
</g>
<mask id="mask22_214_8312" style="mask-type:luminance" maskUnits="userSpaceOnUse" x="36" y="29" width="26" height="65">
<path d="M36.88 29.4502C36.88 29.4502 47.73 37.6302 48.15 38.8202C48.15 38.8202 53.54 30.8202 53.3 30.0502C53.9909 30.5384 54.6102 31.1207 55.14 31.7802C55.38 32.3202 63.14 71.8502 61 92.2602C61 92.2602 47.37 93.0302 42.7 93.2802C41.98 93.3102 36.88 29.4502 36.88 29.4502Z" fill="white"/>
</mask>
<g mask="url(#mask22_214_8312)">
<g opacity="0.36">
<path d="M44.03 69.08C43.784 61.0947 43.0963 53.1292 41.97 45.22C41.09 38.52 39.65 31.88 35.36 26.5C35.0118 26.1541 34.5408 25.96 34.05 25.96C33.5592 25.96 33.0883 26.1541 32.74 26.5C32.4029 26.8568 32.215 27.3291 32.215 27.82C32.215 28.3108 32.4029 28.7831 32.74 29.14C36.59 33.98 37.68 40.45 38.42 46.44C39.451 53.9515 40.0885 61.5118 40.33 69.09C40.38 71.47 44.08 71.48 44.03 69.08Z" fill="#1A345C"/>
</g>
</g>
<path d="M44.05 107.92C44.19 87.7702 43.24 55.2402 36.88 29.4502C36.88 29.4502 27.06 32.0202 22.91 35.8402C21.9406 36.4776 21.0966 37.2877 20.42 38.2302C20.42 38.2302 24.21 73.9202 23.97 79.7602C23.83 83.2202 22.48 96.9402 21.48 107.93L44.05 107.92Z" fill="#E8E9EC"/>
<mask id="mask23_214_8312" style="mask-type:luminance" maskUnits="userSpaceOnUse" x="20" y="29" width="25" height="79">
<path d="M44.05 107.92C44.19 87.7702 43.24 55.2402 36.88 29.4502C36.88 29.4502 27.06 32.0202 22.91 35.8402C21.9406 36.4776 21.0966 37.2877 20.42 38.2302C20.42 38.2302 24.21 73.9202 23.97 79.7602C23.83 83.2202 22.48 96.9402 21.48 107.93L44.05 107.92Z" fill="white"/>
</mask>
<g mask="url(#mask23_214_8312)">
<path opacity="0.06" d="M36.02 29.3101C36.02 29.3101 33.94 29.5801 33.54 30.5601C33.54 30.5601 35.13 40.3201 34.13 44.7001C34.13 44.7001 33.83 46.0401 37.9 45.5101C37.9 45.5101 36.41 48.2001 36.51 49.7201C36.61 51.2401 42.66 64.7601 42.66 64.7601C42.66 64.7601 41.87 36.1101 36.02 29.3101Z" fill="#F2F5F5"/>
</g>
<mask id="mask24_214_8312" style="mask-type:luminance" maskUnits="userSpaceOnUse" x="20" y="29" width="25" height="79">
<path d="M44.05 107.92C44.19 87.7702 43.24 55.2402 36.88 29.4502C36.88 29.4502 27.06 32.0202 22.91 35.8402C21.9406 36.4776 21.0966 37.2877 20.42 38.2302C20.42 38.2302 24.21 73.9202 23.97 79.7602C23.83 83.2202 22.48 96.9402 21.48 107.93L44.05 107.92Z" fill="white"/>
</mask>
<g mask="url(#mask24_214_8312)">
<path d="M26.05 37.2603C26.05 37.2603 37.84 47.8203 36.99 63.4003C36.99 63.4003 38.27 66.0803 42.79 67.2203C47.31 68.3603 40.08 70.1503 40.08 70.1503L32.72 62.6303L26.05 37.2603Z" fill="#CED2D9"/>
</g>
<mask id="mask25_214_8312" style="mask-type:luminance" maskUnits="userSpaceOnUse" x="20" y="29" width="25" height="79">
<path d="M44.05 107.92C44.19 87.7702 43.24 55.2402 36.88 29.4502C36.88 29.4502 27.06 32.0202 22.91 35.8402C21.9406 36.4776 21.0966 37.2877 20.42 38.2302C20.42 38.2302 24.21 73.9202 23.97 79.7602C23.83 83.2202 22.48 96.9402 21.48 107.93L44.05 107.92Z" fill="white"/>
</mask>
<g mask="url(#mask25_214_8312)">
<path d="M23.39 78.9601C23.39 78.9601 37.88 86.1201 44.59 86.1201C51.3 86.1201 44.49 81.7001 44.49 81.7001L22.18 75.3901L23.39 78.9601Z" fill="#CED2D9"/>
</g>
<path d="M36.71 29.3062C36.71 29.3062 34.84 29.5762 34.49 30.5562C34.49 30.5562 35.91 40.3162 35.02 44.6962C35.02 44.6962 34.75 46.0362 38.4 45.5062C38.4 45.5062 37.07 48.1962 37.16 49.7162C37.25 51.2362 42.41 64.7562 42.41 64.7562C42.41 64.7562 41.95 36.1062 36.71 29.3062Z" fill="#EFEFEF"/>
<path d="M34.94 31.2061C35.9695 35.2099 36.2609 39.3678 35.8 43.4761C35.63 44.9761 37.18 45.1061 38.33 45.0461L38.91 45.0261C38.237 46.3058 37.8418 47.7131 37.75 49.1561C37.9481 50.4072 38.3078 51.6274 38.82 52.7861C39.71 55.2361 40.59 57.6861 41.4 60.1661C40.31 57.7961 39.3 55.3961 38.3 52.9861C37.6991 51.7902 37.2875 50.5082 37.08 49.1861C37.0941 47.8308 37.4083 46.4954 38 45.2761L38.36 45.7861C36.86 45.9361 34.87 45.3661 35.13 43.4361C35.6119 39.3691 35.548 35.256 34.94 31.2061Z" fill="#A8AFBD"/>
<path d="M53.3 30.0469C53.3 30.0469 61.63 32.6169 63.24 34.0469C64.85 35.4769 67.46 47.0369 67.46 47.0369L70.78 61.3669C70.9768 62.0294 71.3837 62.6101 71.9392 63.0213C72.4947 63.4325 73.1688 63.6521 73.86 63.6469C76.23 63.5269 87.84 64.7569 87.84 64.7569V78.4269L64.2 76.2369L53.3 30.0469Z" fill="#E8E9EC"/>
<mask id="mask26_214_8312" style="mask-type:luminance" maskUnits="userSpaceOnUse" x="53" y="30" width="35" height="49">
<path d="M53.3 30.0469C53.3 30.0469 61.63 32.6169 63.24 34.0469C64.85 35.4769 67.46 47.0369 67.46 47.0369L70.78 61.3669C70.9768 62.0294 71.3837 62.6101 71.9392 63.0213C72.4947 63.4325 73.1688 63.6521 73.86 63.6469C76.23 63.5269 87.84 64.7569 87.84 64.7569V78.4269L64.2 76.2369L53.3 30.0469Z" fill="white"/>
</mask>
<g mask="url(#mask26_214_8312)">
<path d="M75.21 37.2869C75.3744 37.2869 75.5321 37.2216 75.6484 37.1053C75.7647 36.989 75.83 36.8313 75.83 36.6669C75.83 36.5024 75.7647 36.3447 75.6484 36.2285C75.5321 36.1122 75.3744 36.0469 75.21 36.0469C75.0456 36.0469 74.8879 36.1122 74.7716 36.2285C74.6553 36.3447 74.59 36.5024 74.59 36.6669C74.59 36.8313 74.6553 36.989 74.7716 37.1053C74.8879 37.2216 75.0456 37.2869 75.21 37.2869Z" fill="#CED2D9"/>
</g>
<mask id="mask27_214_8312" style="mask-type:luminance" maskUnits="userSpaceOnUse" x="53" y="30" width="35" height="49">
<path d="M53.3 30.0469C53.3 30.0469 61.63 32.6169 63.24 34.0469C64.85 35.4769 67.46 47.0369 67.46 47.0369L70.78 61.3669C70.9768 62.0294 71.3837 62.6101 71.9392 63.0213C72.4947 63.4325 73.1688 63.6521 73.86 63.6469C76.23 63.5269 87.84 64.7569 87.84 64.7569V78.4269L64.2 76.2369L53.3 30.0469Z" fill="white"/>
</mask>
<g mask="url(#mask27_214_8312)">
<path d="M59.15 31.557C64.1 46.517 61.21 63.347 68.85 77.517C69.62 78.937 71.67 77.687 70.98 76.267C68.33 70.757 65.71 65.197 64.46 59.167C64.17 57.757 62.07 58.127 62.04 59.497C61.9085 65.3942 62.9415 71.2595 65.08 76.757C65.1656 77.0381 65.3485 77.2796 65.596 77.4382C65.8434 77.5968 66.1393 77.6621 66.4305 77.6223C66.7217 77.5826 66.9893 77.4405 67.1853 77.2215C67.3812 77.0025 67.4928 76.7208 67.5 76.427C67.6482 72.1945 66.9231 67.9769 65.37 64.037C65.2844 63.7558 65.1015 63.5143 64.854 63.3557C64.6065 63.1972 64.3107 63.1319 64.0195 63.1716C63.7283 63.2113 63.4607 63.3534 63.2647 63.5725C63.0688 63.7915 62.9572 64.0732 62.95 64.367C62.4712 69.6531 63.9753 74.9283 67.17 79.167C67.3429 79.4345 67.6125 79.6249 67.9225 79.6985C68.2324 79.7721 68.5588 79.7232 68.8336 79.562C69.1083 79.4007 69.3102 79.1396 69.3971 78.8331C69.484 78.5266 69.4492 78.1984 69.3 77.917C68.6173 76.276 67.7767 74.7053 66.79 73.227C66.02 72.097 65.03 70.457 63.42 70.957C62.07 71.377 61.81 72.957 61.95 74.187C62.1186 75.6991 62.8462 77.0937 63.99 78.097C64.1861 78.2811 64.4365 78.3968 64.7038 78.4267C64.9711 78.4566 65.2409 78.3992 65.4729 78.263C65.7048 78.1267 65.8864 77.919 65.9904 77.671C66.0944 77.423 66.1154 77.1479 66.05 76.887C64.3833 67.837 62.9467 58.7503 61.74 49.627C61.53 48.067 59.06 48.047 59.27 49.627C60.5 58.977 61.9633 68.287 63.66 77.557C64.35 77.157 65.04 76.747 65.72 76.347C65.114 75.8566 64.6768 75.1886 64.47 74.437C64.44 74.327 64.43 73.357 64.37 73.317C63.76 73.267 63.69 73.417 64.14 73.777C64.27 73.957 64.4 74.137 64.52 74.317C65.563 75.8465 66.4475 77.4783 67.16 79.187C67.87 78.767 68.58 78.347 69.29 77.937C66.3361 74.0703 64.9504 69.2311 65.41 64.387L62.99 64.717C64.4726 68.4407 65.1672 72.4313 65.03 76.437L67.45 76.107C65.3813 70.8259 64.3786 65.1875 64.5 59.517L62.08 59.847C63.37 66.077 66.11 71.847 68.85 77.547C69.56 77.127 70.27 76.707 70.98 76.297C63.48 62.387 66.4 45.647 61.53 30.937C61.03 29.387 58.65 30.037 59.15 31.557Z" fill="#CED2D9"/>
</g>
<path d="M66.92 107.98C65.83 82.6098 63.67 34.7998 62.88 33.7798C61.8 32.3798 53.3 30.0498 53.3 30.0498C59.45 67.0398 60.63 92.4998 60.43 107.99L66.92 107.98Z" fill="#E8E9EC"/>
<mask id="mask28_214_8312" style="mask-type:luminance" maskUnits="userSpaceOnUse" x="53" y="30" width="14" height="78">
<path d="M66.92 107.98C65.83 82.6098 63.67 34.7998 62.88 33.7798C61.8 32.3798 53.3 30.0498 53.3 30.0498C59.45 67.0398 60.63 92.4998 60.43 107.99L66.92 107.98Z" fill="white"/>
</mask>
<g mask="url(#mask28_214_8312)">
<path d="M53 29.52C53 29.52 54.74 29.93 55.45 30.21L60.41 41.58C60.41 41.58 61.89 43.31 59.13 43.62L60.7 48.57C60.9392 49.8447 60.9154 51.1549 60.63 52.42C60.17 54.74 57.9 63.05 57.9 63.05C57.1393 51.7631 55.501 40.5526 53 29.52Z" fill="#CED2D9"/>
</g>
<path d="M52.58 29.8062C52.58 29.8062 54.32 30.2162 55.03 30.4962L59.99 41.8662C59.99 41.8662 61.47 43.5962 58.71 43.9062L60.28 48.8562C60.5192 50.1308 60.4954 51.441 60.21 52.7062C59.75 55.0262 57.9 63.0462 57.9 63.0462C56.8305 51.8649 55.0536 40.7627 52.58 29.8062Z" fill="#EFEFEF"/>
<path d="M55.68 31.876C56.284 34.1041 57.1046 36.2677 58.13 38.336C58.71 39.926 61.6 42.796 59.05 43.956C59.2691 45.2411 59.6176 46.5009 60.09 47.716C60.98 49.986 60.29 52.486 59.55 54.686C59.18 55.786 58.83 56.896 58.44 57.986C58.67 56.846 58.95 55.716 59.2 54.586C59.78 52.386 60.32 50.126 59.45 47.926C58.9262 46.699 58.5534 45.4129 58.34 44.096C58.3214 43.9654 58.3355 43.8322 58.3808 43.7083C58.4262 43.5844 58.5015 43.4737 58.6 43.386C58.7399 43.3026 58.8872 43.2323 59.04 43.176C59.2435 42.9876 59.3719 42.7318 59.4013 42.456C59.4307 42.1802 59.3592 41.9031 59.2 41.676C57.4006 38.6693 56.205 35.3404 55.68 31.876Z" fill="#A8AFBD"/>
<path d="M71.15 63.3682C69.08 65.5982 68.69 68.4482 67.7 71.2282C67.61 68.3582 68.37 64.7582 71.15 63.3682Z" fill="#A8AFBD"/>
<path d="M71.12 63.3379C70.678 66.5514 70.7421 69.8143 71.31 73.0079C70.5355 71.5196 70.1154 69.8725 70.0825 68.1951C70.0495 66.5177 70.4046 64.8554 71.12 63.3379Z" fill="#A8AFBD"/>
<path d="M49.3 78.7392C49.3 78.7392 47.61 84.1292 48.86 85.3292C50.11 86.5292 53.66 81.5092 54.1 79.8092C54.54 78.1092 49.3 78.7392 49.3 78.7392Z" fill="#59667A"/>
<path d="M22.98 35.9172C22.1039 36.1644 21.3036 36.6271 20.6521 37.2628C20.0006 37.8986 19.5186 38.6874 19.25 39.5572C19.25 39.5572 18.72 69.2372 21.12 74.1472C21.4282 75.2405 21.9795 76.25 22.7328 77.1003C23.4861 77.9505 24.4218 78.6195 25.47 79.0572C29.02 80.4872 48.95 85.3272 48.95 85.3272C48.95 85.3272 47.68 75.8372 54.61 73.3372L35.24 65.2772C35.24 65.2772 33.46 35.0272 22.98 35.9172Z" fill="#E8E9EC"/>
<path d="M23.37 36.2568C28.66 36.9868 31.4 42.4768 32.59 47.1768C34.0178 51.9988 34.992 56.9436 35.5 61.9468C35.64 63.6568 35.39 65.2468 37.27 66.0168C38.7127 66.8239 40.2515 67.4455 41.85 67.8668C39.7689 67.5456 37.777 66.7965 36 65.6668C34.94 64.7768 35.14 63.1868 34.94 61.9968C34.5451 58.6958 33.9439 55.4227 33.14 52.1968C31.65 46.1568 30.35 38.0268 23.37 36.2568Z" fill="#A8AFBD"/>
<path d="M22.96 66.7179C24.41 65.1579 26.7 64.7779 28.71 64.5879C30.7637 64.3874 32.8356 64.4884 34.86 64.8879C30.87 65.3779 26.62 64.8379 22.96 66.7179Z" fill="#A8AFBD"/>
<path d="M23.58 72.8479C24.7678 70.6351 26.4626 68.7349 28.5257 67.3027C30.5887 65.8706 32.9616 64.9471 35.45 64.6079C30.8199 66.2284 26.717 69.0765 23.58 72.8479Z" fill="#A8AFBD"/>
<path d="M46.43 82.7581C46.5944 82.7581 46.7521 82.6927 46.8684 82.5765C46.9847 82.4602 47.05 82.3025 47.05 82.1381C47.05 81.9736 46.9847 81.8159 46.8684 81.6997C46.7521 81.5834 46.5944 81.5181 46.43 81.5181C46.2656 81.5181 46.1079 81.5834 45.9916 81.6997C45.8753 81.8159 45.81 81.9736 45.81 82.1381C45.81 82.3025 45.8753 82.4602 45.9916 82.5765C46.1079 82.6927 46.2656 82.7581 46.43 82.7581Z" fill="#A8AFBD"/>
<path d="M52.87 13.8728C52.5496 13.2375 52.0064 12.7426 51.3441 12.4825C50.6819 12.2224 49.9471 12.2154 49.28 12.4628C49.1256 12.5113 48.9941 12.6144 48.91 12.7528C48.8485 12.8592 48.82 12.9816 48.8281 13.1043C48.8362 13.227 48.8806 13.3445 48.9555 13.442C49.0305 13.5394 49.1327 13.6124 49.2492 13.6517C49.3658 13.6911 49.4913 13.6949 49.61 13.6628C49.7384 13.6078 49.8726 13.5675 50.01 13.5428C50.03 13.5428 50.15 13.5228 50.04 13.5328C49.93 13.5428 50.06 13.5328 50.07 13.5328C50.133 13.5244 50.1965 13.5211 50.26 13.5228C50.3302 13.5211 50.4003 13.5244 50.47 13.5328C50.57 13.5428 50.48 13.5428 50.44 13.5228C50.47 13.5328 50.52 13.5328 50.55 13.5428C50.68 13.5728 50.81 13.6128 50.93 13.6528C51.01 13.6828 50.97 13.7028 50.91 13.6428C50.937 13.662 50.9676 13.6756 51 13.6828C51.0621 13.7122 51.1222 13.7456 51.18 13.7828C51.23 13.8128 51.29 13.8528 51.34 13.8828C51.23 13.7928 51.45 13.9528 51.34 13.8828C51.36 13.9028 51.39 13.9228 51.41 13.9428L51.56 14.0928C51.58 14.1128 51.59 14.1328 51.61 14.1528C51.63 14.1728 51.63 14.1828 51.65 14.1928C51.68 14.2328 51.67 14.2128 51.61 14.1428C51.61 14.1828 51.69 14.2628 51.72 14.3028C51.76 14.3728 51.79 14.4328 51.83 14.5028C51.8702 14.5729 51.924 14.6343 51.9882 14.6834C52.0524 14.7325 52.1257 14.7683 52.2039 14.7888C52.2821 14.8092 52.3636 14.814 52.4436 14.8026C52.5236 14.7913 52.6006 14.7641 52.67 14.7228C52.8027 14.6311 52.8967 14.4933 52.9337 14.3363C52.9706 14.1792 52.9479 14.014 52.87 13.8728Z" fill="#7B2B0F"/>
<path d="M56.39 15.5841C56.5 15.5541 56.6 15.5241 56.71 15.5041C56.66 15.5141 56.6 15.5141 56.55 15.5241C56.7294 15.5041 56.9106 15.5041 57.09 15.5241C57.04 15.5141 56.98 15.5141 56.93 15.5041C57.1084 15.5294 57.283 15.5764 57.45 15.6441L57.3 15.5841C57.4117 15.6308 57.5188 15.6877 57.62 15.7541C57.645 15.7683 57.6684 15.7851 57.69 15.8041C57.78 15.8641 57.58 15.7041 57.66 15.7841C57.7056 15.8216 57.749 15.8616 57.79 15.9041C57.9055 16.0193 58.0619 16.0839 58.225 16.0839C58.3881 16.0839 58.5445 16.0193 58.66 15.9041C58.7732 15.7856 58.8364 15.628 58.8364 15.4641C58.8364 15.3002 58.7732 15.1426 58.66 15.0241C58.3222 14.69 57.9005 14.4533 57.4394 14.3389C56.9782 14.2245 56.4948 14.2367 56.04 14.3741C55.8833 14.4196 55.7506 14.5245 55.6703 14.6665C55.5899 14.8086 55.5683 14.9764 55.61 15.1341C55.6561 15.2957 55.7633 15.4331 55.9089 15.5171C56.0545 15.601 56.227 15.6251 56.39 15.5841Z" fill="#7B2B0F"/>
<path d="M50.4 16.653C51.19 16.653 51.2 15.083 50.4 15.083C49.6 15.083 49.6 16.653 50.4 16.653Z" fill="#0F1925"/>
<path d="M56.51 18.5529C57.3 18.5529 57.31 16.9829 56.51 16.9829C55.71 16.9829 55.71 18.5529 56.51 18.5529Z" fill="#0F1925"/>
<g opacity="0.38">
<path d="M52.2 19.833C52.84 19.943 53.53 19.993 53.7 19.433C53.67 18.193 53.41 16.943 54.39 15.873C54.3216 16.8364 54.3787 17.8045 54.56 18.753C54.6066 19.0566 54.5896 19.3665 54.51 19.663C54.4141 19.881 54.2608 20.0687 54.0663 20.2061C53.8718 20.3435 53.6436 20.4253 53.4061 20.4428C53.1687 20.4603 52.9309 20.4127 52.7184 20.3053C52.5059 20.1979 52.3267 20.0346 52.2 19.833Z" fill="#FF965C"/>
</g>
<path d="M49.51 78.9878L56.45 80.3578C56.45 80.3578 57.99 82.1478 61.66 81.3078C61.66 81.3078 66.16 82.2578 67.11 82.0278C68.06 81.7978 70.43 80.9579 70.31 79.7579C70.19 78.5579 68.41 76.6579 68.41 76.2979C68.41 75.9379 71.13 77.1378 71.73 78.2078C72.33 79.2778 72.8 77.8478 72.8 77.8478C72.8 77.8478 69.96 73.0778 66.76 73.3078C63.8144 73.6362 60.8873 74.1135 57.99 74.7378L54.44 73.2979C54.44 73.3079 50.96 74.2678 49.51 78.9878Z" fill="#FDDDCA"/>
<mask id="mask29_214_8312" style="mask-type:luminance" maskUnits="userSpaceOnUse" x="49" y="73" width="24" height="10">
<path d="M49.51 78.9878L56.45 80.3578C56.45 80.3578 57.99 82.1478 61.66 81.3078C61.66 81.3078 66.16 82.2578 67.11 82.0278C68.06 81.7978 70.43 80.9579 70.31 79.7579C70.19 78.5579 68.41 76.6579 68.41 76.2979C68.41 75.9379 71.13 77.1378 71.73 78.2078C72.33 79.2778 72.8 77.8478 72.8 77.8478C72.8 77.8478 69.96 73.0778 66.76 73.3078C63.8144 73.6362 60.8873 74.1135 57.99 74.7378L54.44 73.2979C54.44 73.3079 50.96 74.2678 49.51 78.9878Z" fill="white"/>
</mask>
<g mask="url(#mask29_214_8312)">
<g opacity="0.38">
<path d="M53.92 79.688C54.0643 78.5887 54.5345 77.5577 55.27 76.728C55.9554 75.8684 56.7968 75.1458 57.75 74.598C57.8838 74.5119 57.9793 74.3775 58.0167 74.2228C58.054 74.068 58.0304 73.9049 57.9506 73.7672C57.8708 73.6294 57.741 73.5278 57.5882 73.4832C57.4354 73.4387 57.2713 73.4547 57.13 73.528C56.0318 74.159 55.0672 74.9979 54.29 75.998C53.3964 77.0422 52.8387 78.3317 52.69 79.698C52.6908 79.8622 52.7564 80.0194 52.8725 80.1355C52.9886 80.2516 53.1458 80.3172 53.31 80.318C53.4719 80.3079 53.6242 80.2376 53.737 80.1211C53.8498 80.0046 53.9151 79.8501 53.92 79.688Z" fill="#FF965C"/>
</g>
</g>
<mask id="mask30_214_8312" style="mask-type:luminance" maskUnits="userSpaceOnUse" x="53" y="71" width="23" height="14">
<path d="M57.93 72.9982C57.93 72.9982 52.81 77.7482 53.27 80.6982C53.73 83.6482 69.94 85.3082 70.85 83.7682C71.8543 82.3969 73.0268 81.1572 74.34 80.0782L75.02 74.5782C75.03 74.5882 62.48 69.7682 57.93 72.9982Z" fill="white"/>
</mask>
<g mask="url(#mask30_214_8312)">
<path d="M49.49 78.9781L56.43 80.3481C56.43 80.3481 57.97 82.1381 61.64 81.2981C61.64 81.2981 66.14 82.2481 67.09 82.0181C68.04 81.7881 70.41 80.9481 70.29 79.7481C70.17 78.5481 68.39 76.6481 68.39 76.2881C68.39 75.9281 71.11 77.1281 71.71 78.1981C72.31 79.2681 72.78 77.8381 72.78 77.8381C72.78 77.8381 69.94 73.0681 66.74 73.2981C63.7944 73.6264 60.8673 74.1037 57.97 74.7281L54.42 73.2881C54.42 73.2981 50.94 74.2581 49.49 78.9781Z" fill="#67C1FF"/>
</g>
<path d="M65.23 108H0L15.39 90.6401H149.78L137.42 108H65.23Z" fill="#CED2D9"/>
<path opacity="0.16" d="M81.04 101.58L91.57 102.26C91.57 102.26 93.65 106.59 99.69 105.33C105.73 104.07 136.65 101.36 137.01 99.3198C137.37 97.2798 129.72 92.1398 117.11 93.2698C104.5 94.3998 84.26 98.1698 84.26 98.1698L81.04 101.58Z" fill="#59667A"/>
<path d="M83.66 81.9798C83.96 84.1398 85.23 91.8398 83.78 97.4698C83.7366 97.6499 83.6432 97.814 83.5105 97.9432C83.3778 98.0724 83.2112 98.1613 83.03 98.1998C82.454 98.2997 81.9065 98.5231 81.4249 98.8545C80.9433 99.1859 80.5391 99.6175 80.24 100.12C80.1636 100.266 80.1245 100.428 80.126 100.593C80.1276 100.758 80.1699 100.92 80.249 101.064C80.3282 101.209 80.4418 101.331 80.5798 101.421C80.7178 101.511 80.8759 101.566 81.04 101.58L87.26 102.16C87.4242 102.174 87.5894 102.148 87.7411 102.083C87.8927 102.019 88.0263 101.918 88.13 101.79C92.109 96.5652 94.2594 90.1771 94.25 83.6098C94.25 73.5398 86.02 79.4798 84.04 81.0498C83.8997 81.157 83.7905 81.2997 83.7237 81.4632C83.6569 81.6267 83.6349 81.805 83.66 81.9798Z" fill="#FEA360"/>
<mask id="mask31_214_8312" style="mask-type:luminance" maskUnits="userSpaceOnUse" x="80" y="77" width="15" height="26">
<path d="M83.66 81.9798C83.96 84.1398 85.23 91.8398 83.78 97.4698C83.7366 97.6499 83.6432 97.814 83.5105 97.9432C83.3778 98.0724 83.2112 98.1613 83.03 98.1998C82.454 98.2997 81.9065 98.5231 81.4249 98.8545C80.9433 99.1859 80.5391 99.6175 80.24 100.12C80.1636 100.266 80.1245 100.428 80.126 100.593C80.1276 100.758 80.1699 100.92 80.249 101.064C80.3282 101.209 80.4418 101.331 80.5798 101.421C80.7178 101.511 80.8759 101.566 81.04 101.58L87.26 102.16C87.4242 102.174 87.5894 102.148 87.7411 102.083C87.8927 102.019 88.0263 101.918 88.13 101.79C92.109 96.5652 94.2594 90.1771 94.25 83.6098C94.25 73.5398 86.02 79.4798 84.04 81.0498C83.8997 81.157 83.7905 81.2997 83.7237 81.4632C83.6569 81.6267 83.6349 81.805 83.66 81.9798Z" fill="white"/>
</mask>
<g mask="url(#mask31_214_8312)">
<path d="M88.6 84.3198C88.6 84.3198 88.6 90.6498 89.79 92.7998C90.98 94.9498 87.04 102.65 85.46 103C83.88 103.35 89.27 104.61 89.27 104.61L93.4 93.6898L94.18 86.2698L88.6 84.3198Z" fill="#C9773F"/>
</g>
<path d="M121.11 79.9498C121.21 80.4498 122.79 88.3498 120.84 93.9098C120.779 94.0833 120.665 94.2335 120.514 94.3392C120.364 94.445 120.184 94.5011 120 94.4998H115.46C115.303 94.4982 115.149 94.4554 115.013 94.3757C114.878 94.2961 114.766 94.1823 114.688 94.0458C114.61 93.9092 114.569 93.7546 114.569 93.5975C114.57 93.4403 114.611 93.2859 114.69 93.1498C115.176 92.2922 115.958 91.6414 116.89 91.3198C117.105 91.2505 117.285 91.103 117.397 90.9067C117.508 90.7104 117.541 90.4795 117.49 90.2598L116.5 86.0298C116.47 85.8839 116.401 85.749 116.3 85.6398L111.07 79.7698C110.981 79.6701 110.915 79.5517 110.877 79.4233C110.839 79.2949 110.83 79.1596 110.851 79.0274C110.873 78.8952 110.923 78.7694 110.999 78.6591C111.075 78.5488 111.174 78.4568 111.29 78.3898L118.44 74.2498C118.558 74.1823 118.69 74.1427 118.826 74.1341C118.961 74.1255 119.097 74.1482 119.223 74.2003C119.348 74.2525 119.46 74.3328 119.55 74.4349C119.64 74.5371 119.705 74.6585 119.74 74.7898L121.1 79.8798C121.102 79.9033 121.105 79.9267 121.11 79.9498Z" fill="#C9773F"/>
<path d="M121.64 90.2702C121.64 90.2702 119.89 87.0902 117.06 88.4102L117.49 90.2502C117.54 90.4633 117.508 90.6874 117.401 90.8781C117.293 91.0688 117.118 91.2123 116.91 91.2802C116.408 91.427 115.942 91.6785 115.544 92.018C115.146 92.3575 114.824 92.7774 114.6 93.2502C114.534 93.3816 114.503 93.5278 114.509 93.6747C114.516 93.8217 114.559 93.9646 114.637 94.0898C114.714 94.215 114.822 94.3185 114.95 94.3903C115.078 94.4621 115.223 94.4999 115.37 94.5002H120.03C120.209 94.4997 120.383 94.4435 120.528 94.3396C120.673 94.2356 120.782 94.089 120.84 93.9202C121.26 92.7422 121.529 91.5157 121.64 90.2702Z" fill="#E2894A"/>
<path d="M95.17 48.2701H95.18C95.39 48.3201 100.62 49.5201 101.95 57.0301C103.29 64.6101 102.69 85.5601 102.68 86.0201V86.0301C102.71 86.3301 103.69 96.0101 98.72 103.97C98.5968 104.166 98.4256 104.328 98.2227 104.44C98.0198 104.552 97.7917 104.61 97.56 104.61H91.2C91.0667 104.609 90.936 104.574 90.8206 104.507C90.7051 104.441 90.6089 104.345 90.5414 104.23C90.4739 104.115 90.4374 103.985 90.4354 103.852C90.4334 103.718 90.466 103.587 90.53 103.47C90.7716 103.014 91.1081 102.614 91.5169 102.298C91.9256 101.983 92.3973 101.758 92.9 101.64C93.0499 101.607 93.1867 101.531 93.2934 101.42C93.4001 101.31 93.472 101.171 93.5 101.02C93.86 98.8501 95.08 90.7701 94.19 86.2701C94.1855 86.2478 94.1747 86.2274 94.1589 86.2111C94.1431 86.1948 94.123 86.1833 94.101 86.1781C94.0789 86.1728 94.0558 86.174 94.0343 86.1814C94.0129 86.1889 93.9941 86.2023 93.98 86.2201C93.0848 87.3801 92.4041 88.6906 91.97 90.0901C91.9662 90.1067 91.9587 90.1223 91.9481 90.1358C91.9375 90.1492 91.9241 90.1601 91.9088 90.1678C91.8936 90.1754 91.8768 90.1796 91.8597 90.18C91.8426 90.1804 91.8256 90.177 91.81 90.1701C90.53 89.6701 88.72 87.1001 88.28 86.4701C88.2699 86.4534 88.2554 86.4398 88.2382 86.4306C88.2209 86.4215 88.2015 86.4173 88.182 86.4183C88.1625 86.4193 88.1437 86.4256 88.1275 86.4365C88.1113 86.4474 88.0983 86.4624 88.09 86.4801C87.6378 87.3318 87.4796 88.3091 87.64 89.2601C87.6425 89.2796 87.6402 89.2994 87.6332 89.3178C87.6262 89.3361 87.6148 89.3525 87.5999 89.3654C87.5851 89.3783 87.5673 89.3873 87.5481 89.3916C87.5289 89.3959 87.5089 89.3954 87.49 89.3901C86.01 88.8801 84.31 84.8301 83.83 83.6201C83.8213 83.5973 83.8056 83.5779 83.7852 83.5645C83.7648 83.5511 83.7407 83.5445 83.7164 83.5456C83.692 83.5467 83.6686 83.5555 83.6495 83.5707C83.6304 83.5858 83.6166 83.6066 83.61 83.6301C83.3557 84.5204 82.8317 85.31 82.11 85.8901C82.0926 85.9026 82.0721 85.9103 82.0507 85.9123C82.0293 85.9142 82.0078 85.9104 81.9884 85.9012C81.969 85.892 81.9524 85.8778 81.9404 85.86C81.9283 85.8422 81.9213 85.8215 81.92 85.8001C81.89 82.6301 81.28 77.6401 79.25 75.2801C77.16 72.8601 76.38 65.1501 76.9 59.8001C77.39 54.7301 81.46 47.8301 81.89 47.1101C81.9004 47.0909 81.9167 47.0756 81.9366 47.0666C81.9564 47.0576 81.9787 47.0553 82 47.0601L95.17 48.2701Z" fill="#FFB17B"/>
<path d="M96.43 72.7901C95.3787 73.9077 94.7523 75.3585 94.66 76.8901C93.62 74.8901 92.47 68.1001 94.66 65.3001C94.732 66.3259 95.0925 67.3104 95.7 68.1401C96.74 67.0201 96.43 63.9401 96.43 63.9401C97.9459 65.1061 98.9555 66.8104 99.25 68.7001C100.19 67.2301 98.94 60.6101 98.94 60.6101L101.03 62.5401C101.03 62.5401 99.88 58.8901 100.4 57.3901C100.92 55.8901 99.77 51.5801 99.77 51.5801C99.77 51.5801 101.73 55.2901 102.84 55.8501C103.95 56.4101 116.36 55.6701 119.27 56.5201C122.18 57.3701 127.09 57.9201 131.89 66.9401C136.69 75.9601 132.83 87.3001 132.83 87.3001L134.3 95.8101C134.3 95.8101 129.18 88.2501 126.47 86.4601C123.76 84.6701 118.96 77.7301 118.96 77.7301C118.96 77.7301 114.03 82.1901 102.84 85.4801V87.6201C102.84 87.6201 100.92 86.3601 100.92 84.6801C100.921 83.6667 101.136 82.665 101.55 81.7401C101.55 81.7401 100.82 83.9101 99.26 82.4101C97.7 80.9101 100.09 76.2801 100.09 76.2801C100.09 76.2801 101.12 73.3101 96.43 72.7901Z" fill="#FEA360"/>
<path d="M129.59 92.1199L134.29 95.7999C134.29 95.7999 131.78 88.7599 129.59 87.4999C127.4 86.2399 124.73 84.9399 124.73 84.9399L129.59 92.1199Z" fill="#E2894A"/>
<path d="M134.87 99.0101L134.29 95.8001C134.29 95.8001 131.88 91.3901 129.59 92.1201L130.15 96.0901C130.171 96.2271 130.148 96.3673 130.083 96.4898C130.018 96.6123 129.915 96.7106 129.79 96.7701C128.875 97.2018 128.135 97.9318 127.69 98.8401C127.643 98.9407 127.622 99.0515 127.628 99.1624C127.635 99.2733 127.669 99.3808 127.727 99.4752C127.786 99.5696 127.867 99.6478 127.964 99.7028C128.06 99.7578 128.169 99.7878 128.28 99.7901H134.23C134.326 99.7878 134.42 99.7649 134.506 99.7229C134.592 99.6809 134.668 99.6208 134.729 99.5468C134.789 99.4728 134.834 99.3865 134.858 99.2939C134.882 99.2013 134.886 99.1045 134.87 99.0101Z" fill="#FFB17B"/>
<path d="M90.65 39.22L87.82 37.73C86.5364 37.2194 85.1294 37.1045 83.78 37.4H83.24C83.2 37.42 82.74 37.57 82.7 37.58C81.8275 37.7077 81.011 38.0864 80.35 38.67C77.64 40.67 78.18 43.59 76.19 45.41C73.94 47.47 86.78 52.32 88.27 52.9C88.3199 52.9191 88.3623 52.9537 88.3911 52.9987C88.4199 53.0437 88.4335 53.0967 88.43 53.15L88.1 57.9C88.0984 57.9238 88.1018 57.9476 88.11 57.97C88.5273 59.8873 88.8047 61.8324 88.94 63.79C88.9449 63.8514 88.9721 63.9089 89.0166 63.9516C89.061 63.9943 89.1196 64.0193 89.1811 64.0217C89.2427 64.0242 89.3031 64.004 89.3508 63.965C89.3985 63.926 89.4302 63.8708 89.44 63.81C89.5275 63.22 89.5842 62.6259 89.61 62.03C89.6125 61.977 89.6319 61.9261 89.6653 61.8849C89.6988 61.8437 89.7445 61.8142 89.7959 61.8008C89.8472 61.7874 89.9015 61.7908 89.9508 61.8104C90.0002 61.8301 90.0419 61.8649 90.07 61.91C90.6191 62.7637 91.0213 63.7034 91.26 64.69C91.2734 64.7501 91.3087 64.8031 91.359 64.8387C91.4093 64.8742 91.4711 64.8898 91.5322 64.8823C91.5934 64.8748 91.6495 64.8448 91.6898 64.7982C91.7301 64.7515 91.7515 64.6916 91.75 64.63C91.7646 63.4864 91.6944 62.3432 91.54 61.21C91.5326 61.162 91.5402 61.1129 91.5619 61.0694C91.5835 61.026 91.6181 60.9903 91.6608 60.9673C91.7036 60.9442 91.7524 60.935 91.8006 60.9409C91.8488 60.9468 91.894 60.9674 91.93 61C92.489 61.4957 92.8569 62.1714 92.97 62.91C92.9793 62.9649 93.0069 63.0151 93.0483 63.0523C93.0897 63.0896 93.1425 63.1117 93.1981 63.1152C93.2537 63.1187 93.3088 63.1033 93.3546 63.0714C93.4003 63.0396 93.4339 62.9933 93.45 62.94C93.6102 62.4539 93.711 61.9503 93.75 61.44C93.7567 61.3776 93.7866 61.3199 93.8337 61.2784C93.8808 61.2369 93.9418 61.2146 94.0046 61.2159C94.0674 61.2171 94.1274 61.2418 94.1728 61.2852C94.2183 61.3285 94.2458 61.3873 94.25 61.45V61.5C94.2528 61.5568 94.2749 61.6109 94.3127 61.6533C94.3505 61.6958 94.4017 61.724 94.4578 61.7334C94.5138 61.7427 94.5714 61.7326 94.6209 61.7047C94.6705 61.6768 94.709 61.6328 94.73 61.58C94.912 61.137 95.0396 60.6737 95.11 60.2C95.1229 60.1383 95.1588 60.0839 95.2104 60.0477C95.262 60.0115 95.3254 59.9963 95.3878 60.0053C95.4502 60.0142 95.5068 60.0465 95.5463 60.0957C95.5857 60.1448 95.6049 60.2072 95.6 60.27C95.588 60.4321 95.5612 60.5928 95.52 60.75C95.52 60.75 97.19 53.82 96.84 50.6C96.53 47.69 96.15 47.15 96.09 47.07C96.0776 47.0586 96.0675 47.045 96.06 47.03L91.19 39.77C91.0228 39.5745 90.8424 39.3907 90.65 39.22Z" fill="#FDBC8F"/>
<path d="M85.1 54.4399C86.6462 55.9369 87.8001 57.7915 88.46 59.8399C88.46 59.8399 87.68 56.6799 90.11 54.9999C92.54 53.3199 91.64 48.7699 91.64 48.7699C91.5115 49.0095 91.3262 49.2139 91.1003 49.3652C90.8744 49.5165 90.6148 49.61 90.3444 49.6377C90.0739 49.6653 89.8008 49.6262 89.549 49.5237C89.2972 49.4212 89.0743 49.2586 88.9 49.0499C87.2 47.5399 84.27 46.3199 81.94 47.0499C79.61 47.7799 82.95 51.1499 82.95 51.1499C82.95 51.1499 85.52 49.3999 86.46 50.5899C87.4 51.7799 86.28 53.7399 85.1 54.4399Z" fill="#FEA360"/>
<path d="M84.82 41.41C84.6339 41.0974 84.3418 40.8619 83.9969 40.7463C83.6519 40.6306 83.2769 40.6426 82.94 40.78C81.62 41.2 81.97 43.72 81.97 43.72C81.97 43.72 83.15 41.41 84.82 41.41Z" fill="#FFB17B"/>
<path d="M83.78 44.7701C84.3157 44.7701 84.75 44.3313 84.75 43.7901C84.75 43.2488 84.3157 42.8101 83.78 42.8101C83.2443 42.8101 82.81 43.2488 82.81 43.7901C82.81 44.3313 83.2443 44.7701 83.78 44.7701Z" fill="#724D43"/>
<path d="M93.91 48.6799C94.7168 47.9657 95.6636 47.4276 96.69 47.0999C96.931 47.0277 97.1491 46.8942 97.323 46.7125C97.4969 46.5308 97.6207 46.307 97.6821 46.0631C97.7436 45.8192 97.7407 45.5635 97.6737 45.321C97.6068 45.0785 97.478 44.8576 97.3 44.6799C97.21 44.5899 97.11 44.4999 97 44.3999C95.1583 42.543 93.4349 40.5725 91.84 38.4999C91.6474 38.2579 91.3813 38.085 91.0819 38.0075C90.7824 37.9299 90.4659 37.9518 90.18 38.0699L89.5 38.3499C89.3169 38.426 89.1513 38.5387 89.0133 38.6811C88.8754 38.8235 88.768 38.9926 88.6978 39.178C88.6275 39.3635 88.5959 39.5613 88.6049 39.7593C88.6139 39.9574 88.6633 40.1516 88.75 40.3299C89.4939 41.7082 89.8402 43.2662 89.75 44.8299C89.7067 46.3105 90.1648 47.7623 91.05 48.9499C91.1664 49.1318 91.3226 49.2847 91.507 49.3972C91.6913 49.5096 91.8988 49.5786 92.1138 49.5988C92.3287 49.6191 92.5455 49.5901 92.7476 49.514C92.9496 49.4379 93.1317 49.3168 93.28 49.1599C93.4048 49.0346 93.5461 48.9269 93.7 48.8399C93.7741 48.7922 93.8444 48.7387 93.91 48.6799Z" fill="#FEA360"/>
<mask id="mask32_214_8312" style="mask-type:luminance" maskUnits="userSpaceOnUse" x="76" y="40" width="4" height="5">
<path d="M78.96 40.1299C78.96 40.1299 77.08 44.2799 76.91 44.5799C77.7702 43.8961 78.5946 43.1685 79.38 42.3999L78.96 40.1299Z" fill="white"/>
</mask>
<g mask="url(#mask32_214_8312)">
<path d="M77.63 41.59C77.63 41.59 78.17 40.13 78.71 40.5C79.36 40.94 78.89 42.14 78.89 42.14C78.7326 41.9623 78.5383 41.8209 78.3207 41.726C78.1031 41.631 77.8674 41.5846 77.63 41.59Z" fill="#FFB17B"/>
</g>
<mask id="mask33_214_8312" style="mask-type:luminance" maskUnits="userSpaceOnUse" x="76" y="40" width="4" height="5">
<path d="M78.96 40.1299C78.96 40.1299 77.08 44.2799 76.91 44.5799C77.7702 43.8961 78.5946 43.1685 79.38 42.3999L78.96 40.1299Z" fill="white"/>
</mask>
<g mask="url(#mask33_214_8312)">
<path d="M77.91 43.1397C77.9193 43.3214 77.856 43.4993 77.7341 43.6343C77.6122 43.7693 77.4417 43.8504 77.26 43.8597C76.9 43.8597 76.73 43.8097 76.73 43.4097C76.747 43.2175 76.8027 43.0306 76.8938 42.8605C76.9848 42.6904 77.1094 42.5404 77.26 42.4197C77.58 42.2697 77.91 42.7397 77.91 43.1397Z" fill="#724D43"/>
</g>
<path d="M97.09 49.9702C95.585 51.5281 93.7763 52.7605 91.7759 53.5913C89.7755 54.4221 87.6258 54.8335 85.46 54.8002L87.02 56.6202C87.02 56.6202 95.75 55.5802 97.09 52.8602C98.43 50.1402 97.09 49.9702 97.09 49.9702Z" fill="#FEA360"/>
<path d="M96.73 49.6099C96.73 49.6099 93.32 54.4599 82.36 53.4599L80.97 54.5299C80.97 54.5299 92.77 57.2999 96.73 52.5099C98.65 50.1699 96.73 49.6099 96.73 49.6099Z" fill="#3FAF1B"/>
<path d="M86.04 50.2498C85.782 49.8408 85.3781 49.545 84.9103 49.4225C84.4424 49.3 83.9454 49.3598 83.52 49.5898C81.96 50.1898 75.59 46.5098 75.97 50.6998C76.06 51.6898 75.03 51.0198 75.03 51.0198C75.03 51.0198 74.28 52.9598 77.25 53.8198C79.4833 54.6518 81.9217 54.7603 84.22 54.1298C86.78 53.5298 87.95 51.5798 86.04 50.2498Z" fill="#FDBC8F"/>
<path d="M81.83 38.6802C81.2423 39.3613 80.8364 40.18 80.65 41.0602C80.3802 42.1517 79.9344 43.192 79.33 44.1402C80.1497 45.1542 81.0208 46.1255 81.94 47.0502C83.02 48.0702 82.95 51.1502 82.95 51.1502C82.3724 51.4704 81.7578 51.7189 81.12 51.8902C79.41 52.4902 76.35 50.8002 76.35 50.8002C76.0458 51.3526 75.5574 51.7808 74.97 52.0102C74.97 52.0102 71.66 46.5902 73.3 46.3302C75.3215 46.0224 77.2446 45.2524 78.92 44.0802C79.5434 43.2799 79.9715 42.3451 80.17 41.3502C80.23 40.1502 81.83 38.6802 81.83 38.6802Z" fill="#FFB17B"/>
<path d="M74.48 49.4099C74.48 49.4099 76.01 48.1899 76.18 47.2499C76.35 46.3099 74.56 45.9499 73.45 46.2399C72.34 46.5299 72.46 48.6199 74.48 49.4099Z" fill="#B26A39"/>
<path opacity="0.16" d="M23.09 90.6401C23.09 90.6401 42.63 99.0601 51.26 98.3501C59.89 97.6401 75.53 97.0801 75.88 96.4701C76.23 95.8601 65.63 90.6401 65.63 90.6401H23.09Z" fill="#59667A"/>
</g>
<defs>
<clipPath id="clip0_214_8312">
<rect width="152" height="108" fill="white"/>
</clipPath>
</defs>
</svg>
