<svg width="152" height="108" viewBox="0 0 152 108" fill="none" xmlns="http://www.w3.org/2000/svg">
<g clip-path="url(#clip0_3826_58364)">
<g clip-path="url(#clip1_3826_58364)">
<path d="M142.04 59.8367C139.54 57.5787 136.611 57.3267 134.346 58.0362C132.728 58.5434 131.589 60.4779 131.753 62.4398C131.811 63.1328 132.028 63.7771 132.389 64.345C132.583 64.6512 132.819 64.9358 133.096 65.1936C133.944 65.9835 135.125 66.4876 136.608 66.6917C137.341 66.7925 138.018 66.2801 138.119 65.547C138.22 64.814 137.707 64.1376 136.973 64.0368C136.926 64.0304 136.878 64.0234 136.83 64.0151C135.756 63.846 134.524 63.3931 134.426 62.2159C134.359 61.4164 134.855 60.6852 135.149 60.5934C136.136 60.2833 139.555 59.6312 142.085 64.2327C144.346 68.3422 140.69 73.2985 140.639 73.3661C140.193 73.9556 140.31 74.7946 140.899 75.2413C141.142 75.425 141.426 75.5137 141.709 75.5137C142.113 75.5137 142.514 75.3312 142.777 74.9835C142.924 74.7895 145.531 71.2919 145.515 67.1715C145.509 65.7978 145.213 64.3546 144.436 62.942C143.718 61.6385 142.905 60.6176 142.04 59.8367Z" fill="#F5BC6C"/>
<path d="M138.977 84.3417L131.097 84.1553C131.097 84.1553 133.11 93.2548 137.256 92.3878L135.618 94.8924C135.618 94.8924 133.465 94.796 132.887 96.2731L137.385 96.1125L139.718 92.9128C140.258 92.1732 140.456 91.2391 140.264 90.3444L138.977 84.3417Z" fill="#B3664C"/>
<path d="M107.959 82.3025C106.711 83.6258 107.581 88.163 107.581 88.163C107.581 88.163 109.889 88.163 110.04 85.3273L117.078 84.6467L113.824 80.1475C113.824 80.1475 109.208 80.9792 107.959 82.3025Z" fill="#B3664C"/>
<path d="M145.669 82.4682C145.139 82.4721 144.502 82.5594 143.828 82.8319C143.828 82.8319 144.476 79.6462 143.684 76.4267C143.222 74.5451 142.267 72.6522 140.404 71.3761C139.822 70.9773 139.24 70.6207 138.658 70.3048C137.346 69.5909 136.036 69.0818 134.731 68.7519C131.839 68.0221 128.818 68.1764 126.027 69.1245C125.122 69.4314 124.241 69.8219 123.396 70.2934L122.98 70.525L122.953 67.636C122.971 67.4765 122.98 67.3144 122.98 67.1511C122.98 66.9443 122.966 66.7408 122.938 66.5405C122.832 65.7685 122.525 65.0443 122.062 64.4018C122.102 63.6981 122.052 62.4233 121.493 60.7638C121.493 60.7638 120.292 61.0649 119.314 62.2772C118.336 61.8586 117.217 61.6213 116.028 61.6213C116.004 61.6213 115.979 61.6213 115.955 61.6219C115.123 61.6283 114.327 61.7515 113.59 61.9709C112.498 60.0243 110.722 59.5796 110.722 59.5796C109.842 62.1885 110.125 63.9182 110.181 64.1568L110.182 64.1574C109.597 64.8784 109.217 65.7149 109.108 66.6145L109.076 66.6119C109.076 66.6119 108.451 71.0921 109.359 73.5314C110.268 75.9699 115.488 84.0231 116.028 87.5961C116.033 87.6286 116.038 87.6605 116.042 87.6924C116.555 91.215 115.941 93.7224 115.716 93.8347C115.488 93.9483 113.502 93.778 113.219 96.2733H117.248C117.248 96.2733 118.582 94.557 119.993 92.1994C121.186 90.2075 122.434 87.7568 122.98 85.4976C122.98 85.4976 131.38 86.5753 135.239 85.4976C135.239 85.4976 138.25 89.2314 141.372 88.3228C141.969 88.1493 142.571 87.8054 143.156 87.233C143.516 86.8809 144.053 86.7794 144.518 86.9721C144.518 86.9721 141.255 92.5491 144.887 93.0404C144.887 93.0404 146.514 89.0329 146.893 87.256C147.107 86.2485 147.151 84.9138 147.15 83.9459C147.148 83.1291 146.486 82.4624 145.669 82.4682Z" fill="#F5BC6C"/>
<path d="M116.522 69.5332C116.031 69.9882 115.278 69.9746 114.804 69.5009L114.751 69.5537C115.009 69.8111 115.344 69.9403 115.68 69.9403C116.001 69.9403 116.324 69.8215 116.579 69.5828L116.597 69.5654V68.1948H116.522L116.522 69.5332Z" fill="#1D1D1B"/>
<path d="M116.597 69.5333V68.1948H116.522V69.5654L116.541 69.5829C116.795 69.8216 117.118 69.9405 117.439 69.9403C117.775 69.9403 118.111 69.8111 118.368 69.5537L118.315 69.5009C117.841 69.9748 117.088 69.9885 116.597 69.5333Z" fill="#1D1D1B"/>
<path d="M120.157 66.4775C119.727 66.8935 119.305 67.0829 118.904 67.0403C118.351 66.9818 118.018 66.4946 118.015 66.4896C117.992 66.4554 117.945 66.4463 117.911 66.4691C117.877 66.492 117.867 66.5383 117.89 66.5725C117.905 66.5949 118.263 67.1218 118.886 67.1885C118.929 67.1932 118.972 67.1955 119.016 67.1955C119.423 67.1955 119.842 66.9905 120.261 66.5848C120.291 66.5562 120.292 66.5089 120.263 66.4792C120.234 66.4495 120.187 66.449 120.157 66.4775Z" fill="#1D1D1B"/>
<path d="M115.321 66.4897C115.318 66.4946 114.985 66.9818 114.432 67.0404C114.03 67.0828 113.608 66.8935 113.178 66.4776C113.148 66.4489 113.101 66.4496 113.072 66.4793C113.044 66.5089 113.045 66.5562 113.074 66.5849C113.494 66.9906 113.912 67.1955 114.32 67.1955C114.363 67.1955 114.406 67.1932 114.449 67.1886C115.072 67.1218 115.43 66.5949 115.445 66.5726C115.468 66.5383 115.459 66.492 115.424 66.4692C115.39 66.4464 115.344 66.4554 115.321 66.4897Z" fill="#1D1D1B"/>
<path d="M117.229 67.709H116.56H115.89C115.719 67.709 115.63 67.9113 115.745 68.0371L116.179 68.513C116.383 68.7365 116.736 68.7365 116.94 68.513L117.374 68.0371C117.489 67.9113 117.4 67.709 117.229 67.709Z" fill="#1D1D1B"/>
<path d="M121.493 60.7637C121.493 60.7637 120.292 61.0648 119.314 62.277C118.336 61.8585 117.217 61.6212 116.028 61.6212C116.004 61.6212 115.979 61.6212 115.955 61.6218C116.061 61.8292 116.179 62.0301 116.309 62.2235C116.436 62.413 116.573 62.5948 116.72 62.769C116.877 62.9534 117.052 63.1339 117.279 63.2175C117.505 63.3005 117.76 63.2769 117.989 63.3534C118.283 63.4516 118.5 63.7037 118.657 63.9704C118.814 64.2377 118.926 64.5306 119.097 64.789C119.597 65.5438 120.508 65.8979 121.372 66.1678C121.885 66.3279 122.405 66.4759 122.938 66.5403C122.832 65.7684 122.525 65.0442 122.062 64.4017C122.102 63.6979 122.052 62.4232 121.493 60.7637Z" fill="#B3664C"/>
<path d="M126.027 69.124C126.043 69.4245 126.096 69.7225 126.18 70.0115C126.371 70.6674 126.723 71.2767 127.191 71.7743C127.66 72.2726 128.25 72.6612 128.906 72.8615C128.987 72.8864 129.068 72.9081 129.151 72.9273C130.488 73.2335 132.055 72.8928 133.123 73.7535C133.811 74.3073 134.134 75.2637 134.912 75.6822C135.649 76.0791 136.612 75.843 137.233 75.2809C137.853 74.7195 138.177 73.897 138.336 73.0753C138.495 72.2541 138.508 71.412 138.62 70.5831C138.633 70.4906 138.646 70.3975 138.659 70.3043C137.346 69.5904 136.036 69.0812 134.731 68.7514C131.839 68.0215 128.818 68.1759 126.027 69.124Z" fill="#B3664C"/>
<path d="M142.04 59.8364C142.011 59.8753 141.984 59.9156 141.957 59.957C141.647 60.4368 141.511 61.0684 141.755 61.5846C141.906 61.9043 142.183 62.1461 142.374 62.4434C142.588 62.7784 142.686 63.1714 142.808 63.5498C143.082 64.3983 143.487 65.1978 143.891 65.9928C144.038 66.2824 144.191 66.5804 144.437 66.7923C144.735 67.0488 145.117 67.1432 145.515 67.1713C145.509 65.7976 145.212 64.3544 144.435 62.9418C143.718 61.6382 142.905 60.6173 142.04 59.8364Z" fill="#B3664C"/>
<path d="M136.973 64.0367C136.926 64.0303 136.878 64.0233 136.831 64.015C136.699 64.0424 136.562 64.0513 136.429 64.0456C136.088 64.0309 135.756 63.9352 135.418 63.8867C134.644 63.7751 133.858 63.9122 133.087 64.0494C132.848 64.0921 132.555 64.1546 132.389 64.3448C132.583 64.651 132.82 64.9356 133.096 65.1934C133.944 65.9833 135.125 66.4873 136.608 66.6914C137.341 66.7923 138.018 66.2799 138.119 65.5468C138.22 64.8137 137.707 64.1375 136.973 64.0367Z" fill="#B3664C"/>
<path d="M145.669 82.4682C145.139 82.4721 144.502 82.5595 143.828 82.8319C143.828 82.8319 144.476 79.6462 143.684 76.4268C143.64 76.4478 143.597 76.4689 143.552 76.4893C143.179 76.6641 142.806 76.8396 142.433 77.0151C142.002 77.2173 141.544 77.4432 141.309 77.8573C141.177 78.0888 141.129 78.3581 141.107 78.6241C140.986 80.0712 141.567 81.5712 141.121 82.9532C140.895 83.655 140.412 84.2854 140.37 85.0217C140.31 86.0438 141.109 86.9135 141.318 87.9158C141.346 88.0511 141.363 88.1863 141.372 88.3229C141.97 88.1493 142.571 87.8054 143.156 87.2331C143.516 86.8809 144.053 86.7794 144.519 86.9722C144.519 86.9722 141.255 92.5492 144.888 93.0405C144.888 93.0405 146.514 89.033 146.893 87.256C147.107 86.2486 147.152 84.9139 147.15 83.9459C147.148 83.1292 146.486 82.4625 145.669 82.4682Z" fill="#B3664C"/>
<path d="M118.877 91.816C118.631 91.8313 118.307 91.8683 118.212 91.6411C118.179 91.5601 118.19 91.4682 118.2 91.3808C118.288 90.5826 118.18 89.7481 117.791 89.0463C117.422 88.3814 116.782 87.8512 116.042 87.6924C116.555 91.2149 115.941 93.7224 115.716 93.8347C115.489 93.9483 113.502 93.7779 113.219 96.2732H117.248C117.248 96.2732 118.582 94.5569 119.993 92.1994C119.671 91.9442 119.288 91.7911 118.877 91.816Z" fill="#B3664C"/>
<g opacity="0.3">
<path d="M108.901 69.4111C108.713 71.7848 109.478 73.9838 109.478 73.9838C115.955 79.0804 121.172 72.4328 121.172 72.4328C111.446 76.6379 108.901 69.4111 108.901 69.4111Z" fill="#B58748"/>
</g>
<path d="M68.2342 25.2108C65.1428 22.2285 61.0146 25.6671 58.946 25.8842C56.8774 26.1013 53.5045 24.9509 50.7393 27.7779C46.8513 31.7529 47.3433 35.78 45.6325 37.1267C38.0418 43.1018 43.1716 53.1709 51.2363 51.6601C55.0393 49.576 65.4292 54.0909 71.6908 48.3119C71.2259 41.2227 66.8902 36.8332 68.9481 32.8882C68.9481 32.8882 71.65 28.506 68.2342 25.2108Z" fill="#49263E"/>
<path d="M65.2706 44.6231C66.1823 41.2024 65.8354 34.5288 65.8354 34.5288L54.5589 32.6304C54.0706 37.6954 53.1441 47.3119 52.6584 52.354L61.1486 53.1711C61.2913 51.6891 61.5801 48.6869 61.7275 47.1591C65.9028 47.1466 64.6814 44.6654 64.6203 42.9324L65.1088 42.8685C65.1106 42.8807 65.2041 43.6056 65.2706 44.6231Z" fill="#FE9F73"/>
<path d="M63.3253 40.8181C63.3836 41.1209 62.2573 41.632 62.3357 41.8055C63.0285 41.7388 63.5134 40.821 63.5287 40.7646C62.1047 39.9325 62.0326 38.5473 62.8831 37.5028C62.902 36.8274 61.0352 39.4347 63.3253 40.8181Z" fill="#F07162"/>
<path d="M61.7276 47.1588C61.7276 47.1588 57.6598 46.5248 55.3024 44.7031C55.3024 44.7031 58.3934 48.3036 61.4946 49.5771L61.7276 47.1588Z" fill="#F07162"/>
<path d="M61.6673 37.0478C61.4765 34.9711 56.9696 36.9735 57.9883 37.2744C58.4246 37.1362 59.8122 35.5775 61.6673 37.0478Z" fill="#49263E"/>
<path d="M65.5622 37.1793C66.124 35.9349 62.4743 37.1039 63.3975 37.4541C63.7059 37.3978 64.6051 36.4943 65.5622 37.1793Z" fill="#49263E"/>
<path d="M65.0522 38.823C65.0515 38.2168 64.2396 38.2472 64.1905 38.7401C64.1911 39.3462 65.003 39.3159 65.0522 38.823Z" fill="#49263E"/>
<path d="M61.2368 38.4563C61.2361 37.8501 60.4242 37.8805 60.375 38.3734C60.3757 38.9796 61.1876 38.9492 61.2368 38.4563Z" fill="#49263E"/>
<path d="M55.5784 39.7713C55.7959 36.6987 51.2608 35.9986 50.7469 39.3066C50.5293 42.3792 55.0645 43.0792 55.5784 39.7713Z" fill="#FE9F73"/>
<path d="M52.8404 41.0117C51.2257 39.9942 52.6313 38.1622 53.946 39.7162C53.9814 37.917 51.65 38.2274 52.2435 38.4495C52.5648 38.3141 53.6171 38.5616 53.6996 39.2291C52.4164 38.1681 50.9163 40.4295 52.8404 41.0117Z" fill="#F07162"/>
<path d="M65.8355 34.5287C65.158 29.5542 56.273 27.6443 54.5586 32.6301C62.2318 35.1563 60.5815 34.09 65.8355 34.5287Z" fill="#FE9F73"/>
<path d="M58.8038 33.0387C62.7531 34.1112 66.1387 31.3815 66.1387 31.3815L65.5876 28.7505C59.6254 28.6925 61.1012 27.7614 53.46 30.1619C50.5669 38.483 55.8361 39.8853 58.8038 33.0387Z" fill="#49263E"/>
<path d="M61.2744 39.6524C61.1508 39.6405 61.1326 39.8321 61.2559 39.844C61.3795 39.8558 61.3978 39.6642 61.2744 39.6524Z" fill="#EA5942"/>
<path d="M60.6588 39.9414C60.5353 39.9296 60.5171 40.1211 60.6404 40.133C60.7639 40.1449 60.7822 39.9533 60.6588 39.9414Z" fill="#EA5942"/>
<path d="M59.6685 39.1499C59.545 39.1381 59.5267 39.3296 59.6501 39.3415C59.7736 39.3534 59.7919 39.1618 59.6685 39.1499Z" fill="#EA5942"/>
<path d="M58.6963 39.7525C58.5727 39.7406 58.5544 39.9321 58.6778 39.944C58.8013 39.9559 58.8196 39.7643 58.6963 39.7525Z" fill="#EA5942"/>
<path d="M57.8366 38.7344C57.713 38.7226 57.6948 38.9141 57.8181 38.926C57.9417 38.9379 57.9599 38.7463 57.8366 38.7344Z" fill="#EA5942"/>
<path d="M57.3586 40.0806C57.2351 40.0687 57.2168 40.2603 57.3402 40.2722C57.4638 40.284 57.482 40.0925 57.3586 40.0806Z" fill="#EA5942"/>
<path d="M63.2478 39.2769C63.1243 39.265 63.1061 39.4565 63.2294 39.4684C63.3529 39.4803 63.3711 39.2887 63.2478 39.2769Z" fill="#EA5942"/>
<path d="M63.8848 40.1211C63.7612 40.1093 63.743 40.3008 63.8663 40.3127C63.9899 40.3246 64.0082 40.133 63.8848 40.1211Z" fill="#EA5942"/>
<path d="M64.7807 39.8594C64.6571 39.8475 64.6389 40.0391 64.7622 40.051C64.8858 40.0629 64.904 39.8713 64.7807 39.8594Z" fill="#EA5942"/>
<path d="M64.7146 41.2232C64.5911 41.2113 64.5728 41.4028 64.6961 41.4147C64.8197 41.4266 64.8379 41.2351 64.7146 41.2232Z" fill="#EA5942"/>
<path d="M65.4384 40.4878C65.3148 40.476 65.2966 40.6675 65.4199 40.6793C65.5435 40.6913 65.5617 40.4997 65.4384 40.4878Z" fill="#EA5942"/>
<path d="M65.4017 39.2881C65.2781 39.2763 65.2598 39.4678 65.3832 39.4797C65.5068 39.4915 65.525 39.3 65.4017 39.2881Z" fill="#EA5942"/>
<path d="M59.9106 40.4786C59.7871 40.4666 59.7688 40.6583 59.8921 40.6701C60.0157 40.682 60.0339 40.4904 59.9106 40.4786Z" fill="#EA5942"/>
<path d="M62.996 42.9483C62.9541 42.9274 60.1627 42.0801 60.1627 42.0801C60.3019 44.0128 62.1943 44.0986 62.996 42.9483Z" fill="#FBFDFC"/>
<path d="M105.695 87.819L105.712 87.8206C105.687 87.8461 105.683 87.8436 105.695 87.819L99.1998 87.1953L100.17 96.1631C103.658 95.7961 111.79 97.4241 115.728 92.7138C116.217 91.94 115.49 91.9105 115.491 91.902C117.452 89.8446 115.338 89.9514 115.338 89.9514C117.257 88.2619 115.246 87.9775 115.246 87.9775C117.612 84.6991 113.045 86.8499 111.445 87.5417C108.045 89.4489 108.538 87.1658 109.418 84.9193C109.334 82.8633 105.868 87.4831 105.695 87.819Z" fill="#FE9F73"/>
<path d="M105.712 87.8209L105.695 87.8193C105.683 87.8439 105.687 87.8464 105.712 87.8209Z" fill="#FE9F73"/>
<path d="M112.956 89.1475C112.616 89.2527 112.785 89.451 112.896 89.4583C115.482 88.2904 116.902 86.7999 112.956 89.1475Z" fill="#F07162"/>
<path d="M113.328 90.7898C112.776 90.8896 112.84 91.1179 113.029 91.1575C115.506 90.374 116.962 88.9578 113.328 90.7898Z" fill="#F07162"/>
<path d="M113.604 92.753C113.155 92.8497 113.383 93.062 113.48 93.0717C115.677 92.2863 116.984 90.9202 113.604 92.753Z" fill="#F07162"/>
<path d="M109.825 61.8945C108.853 61.1588 107.957 59.4917 107.957 59.4917C107.825 59.4853 105.663 62.4357 105.365 63.0121C105.067 63.5884 106.63 63.938 106.63 63.938C106.63 63.938 110.797 62.6301 109.825 61.8945Z" fill="#ED7163"/>
<path d="M107.26 64.958L106.738 65.363C106.738 65.363 107.35 66.033 107.389 66.0636L107.26 64.958Z" fill="#ED7163"/>
<path d="M108.224 66.2449C108.742 65.6246 107.872 64.3188 107.872 64.3188C106.659 64.7356 106.634 66.4178 108.224 66.2449Z" fill="#ED7163"/>
<path d="M108.102 64.33C108.102 64.33 108.795 64.9158 108.838 64.9411L108.567 63.8613L108.102 64.33Z" fill="#ED7163"/>
<path d="M109.689 65.0133C110.123 64.3315 109.092 63.1484 109.092 63.1484C107.943 63.7178 108.135 65.3893 109.689 65.0133Z" fill="#ED7163"/>
<path d="M100.922 63.4263C100.905 63.5605 95.875 67.7671 95.6037 68.0095L100.106 71.6446L104.871 66.7301L100.922 63.4263Z" fill="#FE9F73"/>
<path d="M109.8 59.065L109.808 59.072C110.151 58.6352 109.86 58.9917 109.8 59.065Z" fill="#FE9F73"/>
<path d="M108.593 60.0036C110.007 58.3625 110.742 60.4316 112.175 60.9174C114.112 61.3982 111.484 58.7116 110.368 57.6041C110.006 57.3296 110.142 57.0209 109.177 57.4552C104.217 60.3811 106.49 54.0527 99.222 65.5907L102.044 68.9535C103.82 67.24 109.502 63.8835 111.565 61.7733C110.735 59.741 107.114 62.8842 107.084 62.8095C107.021 61.6143 107.673 60.697 108.593 60.0036Z" fill="#FE9F73"/>
<path d="M84.1838 82.1651C90.0961 81.2127 105.665 68.1178 105.665 68.1178C104.286 63.1179 102.315 59.5466 102.315 59.5466L83.1984 69.0702C74.9212 66.4512 60.0634 51.311 60.0634 51.311L57.3813 69.0702C57.3813 69.0702 78.2715 83.1175 84.1838 82.1651Z" fill="#DFDFDF"/>
<path d="M67.1376 87.7187C71.7186 76.0505 68.9811 68.0625 64.1894 56.1616C60.9418 49.0072 55.5569 48.458 50.7995 50.8691C38.6745 56.8764 35.2926 80.8742 34.399 96.7402H63.8209C64.7433 93.7575 65.9258 90.6757 67.1376 87.7187Z" fill="#EDEDED"/>
<path d="M63.4633 54.717C63.4639 54.717 63.4649 54.7169 63.4654 54.7168C63.4628 54.7171 63.4625 54.7172 63.4633 54.717Z" fill="#EDEDED"/>
<path d="M64.5038 96.3605C65.0611 96.528 65.0015 96.6106 65.0288 96.5598C66.1901 96.567 104.487 96.7378 104.495 96.7404L104.45 96.023L103.867 86.6259C103.8 86.587 77.9569 85.618 74.4813 84.5472C73.4132 83.9621 66.1869 61.9839 63.6978 54.6895C63.5309 54.7096 63.4682 54.7167 63.4633 54.7172C63.1363 54.7562 49.4289 56.3885 49.4271 56.3887C50.5944 64.804 55.5536 91.2859 64.5038 96.3605Z" fill="#EDEDED"/>
<path d="M63.1852 51.4473C64.1816 53.9372 64.1969 55.9506 64.1969 55.9506L63.691 55.1463C63.5817 53.8296 62.8896 51.4473 62.8896 51.4473H63.1852Z" fill="#2D699C"/>
<path d="M64.2335 96.1233C59.3718 94.6534 53.5395 75.5361 51.2311 66.1611C55.047 90.6114 59.5225 95.7464 61.5483 96.1233H64.2335Z" fill="#D2D2D2"/>
<path d="M65.1088 42.8682L64.6203 42.9321C64.6227 42.9481 64.6283 44.4059 64.6731 45.9589C64.9454 45.5611 65.1494 45.0789 65.2706 44.6228C65.2041 43.6053 65.1106 42.8805 65.1088 42.8682Z" fill="#FE9F73"/>
<path d="M53.1395 38.9263C53.0091 38.8316 52.8406 38.7088 52.7421 38.6367C52.5714 38.8337 51.5151 40.6587 52.6712 42.529C54.6999 46.3757 65.3705 58.1483 65.3339 46.9425C65.3487 46.1218 65.3155 45.306 65.2705 44.6229C64.475 46.0302 65.2341 49.9194 63.7928 50.9403C61.2737 52.7514 50.2737 42.1888 53.1395 38.9269C53.1395 38.9263 53.1395 38.9263 53.1395 38.9263Z" fill="#2D699C"/>
<path d="M53.3667 38.9264C53.3239 38.2117 52.2987 38.2425 52.2814 38.9264C52.3241 39.641 53.3494 39.6103 53.3667 38.9264Z" fill="#49263E"/>
<path d="M109.8 59.0647L109.807 59.0721C109.923 58.9252 109.966 58.868 109.971 58.8594C109.963 58.8649 109.837 59.0198 109.8 59.0647Z" fill="#FE9F73"/>
<path d="M109.8 59.0647L109.807 59.0721C109.923 58.9252 109.966 58.868 109.971 58.8594C109.963 58.8649 109.837 59.0198 109.8 59.0647Z" fill="#FE9F73"/>
<path d="M108.547 61.8209L109.09 63.779C109.984 63.1347 110.797 62.5347 111.419 62.0367C111.929 61.602 110.774 60.3558 108.547 61.8209Z" fill="#FE9F73"/>
<path d="M109.8 59.0647L109.807 59.0721C109.923 58.9252 109.966 58.868 109.971 58.8594C109.963 58.8649 109.837 59.0198 109.8 59.0647Z" fill="#FE9F73"/>
<path d="M152 96.0229H3.7804V96.7404H152V96.0229Z" fill="#4C222E"/>
<path d="M16.1595 84.8313L19.7029 86.1407C19.7029 86.1407 19.8023 79.4467 19.4711 79.2285C19.1399 79.0102 16.6563 71.6856 13.6096 70.5699C10.5629 69.4543 10 75.2024 10 75.2024C15.2167 68.8312 16.1595 84.8313 16.1595 84.8313Z" fill="#258D8C"/>
<path d="M13.4143 63.3008C17.2426 69.2442 18.0802 85.372 18.0802 85.372C26.4735 81.3325 21.6332 68.9826 13.4143 63.3008Z" fill="#7FC6A6"/>
<path d="M26.0777 86.4074C26.0777 86.4074 27.2202 70.0792 32.9824 63C32.9821 63.0013 24.0463 66.9038 20.1852 77.0105C18.621 81.3583 18.7193 83.061 19.1628 85.8494C19.6444 92.1588 25.9675 86.5001 26.0777 86.4074Z" fill="#258D8C"/>
<path d="M32.5187 76.6093C33.8482 76.1688 36.8115 82.5314 37.0704 83.0936C36.9115 82.1843 36.4695 67.3493 30.5358 72.1091C27.5805 74.4926 26.4305 76.7349 25.8824 79.4742L24.6371 86.8685L29.8363 86.5532C29.8363 86.5532 31.1278 77.0701 32.5187 76.6093Z" fill="#7FC6A6"/>
<path d="M37.0887 83.1331C37.0887 83.1331 37.0824 83.1192 37.0704 83.0933C37.0769 83.1301 37.0829 83.1441 37.0887 83.1331Z" fill="#7FC6A6"/>
<path d="M22.8267 96.0733C24.2307 96.0147 27.2135 96.2816 27.732 95.7543C30.8668 93.8704 31.0933 84.4193 31.0963 84.4162C26.9651 83.9589 18.4859 83.9589 14.3547 84.4162C14.356 84.4169 14.5942 94.0823 17.8256 95.8149C18.3616 96.272 21.404 96.0092 22.8267 96.0733Z" fill="#FD7583"/>
</g>
</g>
<defs>
<clipPath id="clip0_3826_58364">
<rect width="152" height="108" fill="white"/>
</clipPath>
<clipPath id="clip1_3826_58364">
<rect width="152" height="72.7404" fill="white" transform="translate(0 24)"/>
</clipPath>
</defs>
</svg>
