<svg width="24" height="24" viewBox="0 0 24 24" fill="none" xmlns="http://www.w3.org/2000/svg">
<g clip-path="url(#clip0_19_1802)">
<path d="M8.28998 6.29C8.19145 6.29013 8.09386 6.27082 8.00281 6.23318C7.91176 6.19553 7.82903 6.14029 7.75936 6.07062C7.68968 6.00095 7.63445 5.91822 7.5968 5.82717C7.55916 5.73611 7.53985 5.63853 7.53998 5.54V2.75C7.53998 2.55109 7.619 2.36032 7.75965 2.21967C7.9003 2.07902 8.09107 2 8.28998 2C8.48889 2 8.67966 2.07902 8.82031 2.21967C8.96096 2.36032 9.03998 2.55109 9.03998 2.75V5.53C9.04117 5.62929 9.02266 5.72784 8.98551 5.81993C8.94836 5.91202 8.89332 5.99583 8.82357 6.06651C8.75383 6.13719 8.67075 6.19333 8.57916 6.2317C8.48757 6.27006 8.38928 6.28988 8.28998 6.29Z" fill="#292D32"/>
<path d="M15.71 6.29C15.6115 6.29013 15.5139 6.27082 15.4229 6.23318C15.3318 6.19553 15.2491 6.14029 15.1794 6.07062C15.1097 6.00095 15.0545 5.91822 15.0168 5.82717C14.9792 5.73611 14.9599 5.63853 14.96 5.54V2.75C14.96 2.55109 15.039 2.36032 15.1797 2.21967C15.3203 2.07902 15.5111 2 15.71 2C15.9089 2 16.0997 2.07902 16.2404 2.21967C16.381 2.36032 16.46 2.55109 16.46 2.75V5.53C16.4612 5.62929 16.4427 5.72784 16.4056 5.81993C16.3684 5.91202 16.3134 5.99583 16.2436 6.06651C16.1739 6.13719 16.0908 6.19333 15.9992 6.2317C15.9076 6.27006 15.8093 6.28988 15.71 6.29Z" fill="#292D32"/>
<path d="M19.57 4.5C19.4198 4.38907 19.2418 4.32196 19.0557 4.30611C18.8697 4.29026 18.6829 4.3263 18.5161 4.41022C18.3493 4.49414 18.209 4.62265 18.1108 4.78149C18.0127 4.94033 17.9605 5.12328 17.96 5.31V5.41C17.9724 5.9824 17.7748 6.53953 17.4044 6.97618C17.0341 7.41282 16.5167 7.69876 15.95 7.78C15.6359 7.81322 15.3184 7.78004 15.018 7.68262C14.7176 7.58519 14.441 7.42569 14.2062 7.21448C13.9714 7.00326 13.7836 6.74504 13.6551 6.45656C13.5265 6.16809 13.4601 5.85582 13.46 5.54V4.5C13.46 4.23478 13.3546 3.98043 13.1671 3.79289C12.9796 3.60536 12.7252 3.5 12.46 3.5H11.54C11.2748 3.5 11.0204 3.60536 10.8329 3.79289C10.6454 3.98043 10.54 4.23478 10.54 4.5V5.54C10.5411 5.91486 10.4472 6.28388 10.2671 6.61263C10.087 6.94138 9.8265 7.21914 9.51 7.42C9.41671 7.47923 9.31986 7.53266 9.22 7.58C9.12519 7.63193 9.02447 7.67222 8.92 7.7C8.79387 7.74293 8.66284 7.76981 8.53 7.78C8.37063 7.80001 8.20937 7.80001 8.05 7.78C7.91716 7.76981 7.78613 7.74293 7.66 7.7C7.55674 7.6687 7.45637 7.62855 7.36 7.58C7.26014 7.53266 7.16329 7.47923 7.07 7.42C6.75068 7.19118 6.49063 6.8894 6.31147 6.53979C6.13232 6.19018 6.03925 5.80284 6.04 5.41V5.31C6.03876 5.1375 5.99358 4.96817 5.90872 4.81798C5.82386 4.6678 5.70213 4.54172 5.55501 4.45165C5.4079 4.36157 5.24025 4.31048 5.0679 4.3032C4.89556 4.29591 4.7242 4.33267 4.57 4.41C4.56 4.42 4.55 4.42 4.54 4.43C4.50115 4.44972 4.46431 4.47316 4.43 4.5C4.4 4.53 4.36 4.55 4.33 4.58C4.05424 4.79575 3.80575 5.04424 3.59 5.32C3.48477 5.43745 3.39101 5.5647 3.31 5.7C3.29765 5.7114 3.28748 5.72495 3.28 5.74C3.19041 5.8743 3.11022 6.01463 3.04 6.16C3.02 6.18 3.01 6.19 3.01 6.21C2.94651 6.32869 2.89299 6.45245 2.85 6.58C2.82582 6.62476 2.80573 6.67162 2.79 6.72C2.73426 6.86702 2.68751 7.0173 2.65 7.17C2.60946 7.31431 2.57938 7.46136 2.56 7.61C2.54 7.72 2.53 7.83 2.52 7.95C2.51 8.09 2.5 8.23 2.5 8.37V17.13C2.5 18.4216 3.01309 19.6603 3.92639 20.5736C4.83969 21.4869 6.0784 22 7.37 22H16.63C17.9216 22 19.1603 21.4869 20.0736 20.5736C20.9869 19.6603 21.5 18.4216 21.5 17.13V8.37C21.5005 7.61944 21.3263 6.87907 20.9914 6.2074C20.6564 5.53574 20.1698 4.9512 19.57 4.5ZM12 17.42H7.36C7.15976 17.42 6.96772 17.3405 6.82613 17.1989C6.68454 17.0573 6.605 16.8652 6.605 16.665C6.605 16.4648 6.68454 16.2727 6.82613 16.1311C6.96772 15.9895 7.15976 15.91 7.36 15.91H12C12.2002 15.91 12.3923 15.9895 12.5339 16.1311C12.6755 16.2727 12.755 16.4648 12.755 16.665C12.755 16.8652 12.6755 17.0573 12.5339 17.1989C12.3923 17.3405 12.2002 17.42 12 17.42ZM14.78 13.71H7.36C7.15976 13.71 6.96772 13.6305 6.82613 13.4889C6.68454 13.3473 6.605 13.1552 6.605 12.955C6.605 12.7548 6.68454 12.5627 6.82613 12.4211C6.96772 12.2795 7.15976 12.2 7.36 12.2H14.78C14.9802 12.2 15.1723 12.2795 15.3139 12.4211C15.4555 12.5627 15.535 12.7548 15.535 12.955C15.535 13.1552 15.4555 13.3473 15.3139 13.4889C15.1723 13.6305 14.9802 13.71 14.78 13.71Z" fill="#292D32"/>
</g>
<defs>
<clipPath id="clip0_19_1802">
<rect width="24" height="24" fill="white"/>
</clipPath>
</defs>
</svg>
