<svg width="24" height="24" viewBox="0 0 24 24" fill="none" xmlns="http://www.w3.org/2000/svg">
<g clip-path="url(#clip0_1487_41381)">
<path d="M19.2 4.63593C19.1531 4.65468 18.9516 4.83281 18.7547 5.02968L18.3985 5.39062L17.3438 5.17968C14.6016 4.63124 14.8406 4.66406 13.7813 4.66875C12.9141 4.66875 12.736 4.68281 11.9578 4.81874C10.8844 5.00624 10.7625 5.00624 7.57971 4.84687C4.74377 4.70624 4.15314 4.71562 3.53908 4.89374C2.17971 5.29687 1.08752 6.19687 0.473455 7.43437C0.0843925 8.21718 -0.0281074 8.85937 0.0140801 10.0312C0.0609551 11.1797 0.243768 12.3141 0.656268 13.9687C1.09221 15.7078 1.08752 15.6937 1.11096 17.4609C1.12033 18.3375 1.13908 19.1016 1.14846 19.1578C1.20471 19.4062 1.20002 19.4062 2.83596 19.4062C4.50939 19.4062 4.47189 19.4109 4.51877 19.1109C4.53283 19.0266 4.55158 18.5391 4.56096 18.0234C4.57971 17.1984 4.59846 17.025 4.70627 16.5984C4.96877 15.5672 5.32971 14.7469 5.67189 14.4141C5.81721 14.2687 5.88752 14.2359 6.00939 14.2453C6.09377 14.25 6.94221 14.2594 7.89846 14.2641L9.63283 14.2734L9.79689 14.4375C10.0969 14.7375 10.4438 15.5016 10.6688 16.3547C10.861 17.1047 10.9219 17.5922 10.9219 18.45C10.9219 19.1672 10.9313 19.2609 11.0063 19.3266C11.086 19.3969 11.2641 19.4062 12.6235 19.4062H14.1563L14.2219 19.2984C14.2781 19.2141 14.2922 18.8812 14.311 17.5781C14.3297 16.1812 14.3438 15.9047 14.4235 15.5391C14.6391 14.5828 15.0703 13.9453 15.8672 13.4062C16.3969 13.05 19.1203 11.7094 20.1094 11.3203C20.4516 11.1844 20.6813 11.1375 21.7735 10.9922C23.1703 10.8047 23.4188 10.7297 23.611 10.4437C23.7281 10.2656 24 9.33749 24 9.1125C24 8.71875 23.7985 8.49843 23.0156 8.03437C22.3266 7.63124 22.3313 7.63593 21.9422 7.12031C21.736 6.84843 21.5063 6.61874 21.1969 6.375L20.7516 6.02812L20.4844 5.46093C20.2078 4.88437 20.0906 4.72968 19.861 4.64531C19.711 4.58906 19.336 4.58437 19.2 4.63593ZM21.0516 7.30781C21.3 7.55624 21.2156 7.95468 20.8875 8.0625C20.6953 8.12343 20.4281 8.03437 20.3485 7.88437C20.1844 7.575 20.4047 7.17187 20.7422 7.17187C20.8688 7.17187 20.9485 7.20937 21.0516 7.30781Z" fill="#292D32"/>
</g>
<defs>
<clipPath id="clip0_1487_41381">
<rect width="24" height="24" fill="white"/>
</clipPath>
</defs>
</svg>
