<svg width="24" height="24" viewBox="0 0 24 24" fill="none" xmlns="http://www.w3.org/2000/svg">
<g clip-path="url(#clip0_129_417)">
<mask id="mask0_129_417" style="mask-type:luminance" maskUnits="userSpaceOnUse" x="0" y="0" width="24" height="24">
<path d="M24 0H0V24H24V0Z" fill="white"/>
</mask>
<g mask="url(#mask0_129_417)">
<path d="M21.1453 8.18274C20.3606 8.66268 19.7107 9.33401 19.2565 10.1338C18.8022 10.9336 18.5585 11.8356 18.5482 12.7554C18.5515 13.7907 18.8584 14.8024 19.4309 15.665C20.0034 16.5276 20.8165 17.2033 21.7693 17.6084C21.395 18.8219 20.8392 19.9718 20.1209 21.0189C19.0939 22.4981 18.0202 23.9735 16.3882 23.9735C14.7562 23.9735 14.3356 23.0248 12.4522 23.0248C10.6156 23.0248 9.96381 24.0038 8.47076 24.0038C6.9777 24.0038 5.9356 22.6358 4.73812 20.9558C3.15325 18.6047 2.28205 15.8454 2.22949 13.0105C2.22949 8.33684 5.26107 5.86358 8.2497 5.86358C9.83623 5.86358 11.155 6.90568 12.1554 6.90568C13.104 6.90568 14.5819 5.80168 16.387 5.80168C17.3147 5.77785 18.2341 5.98256 19.0641 6.39779C19.8941 6.81301 20.608 7.426 21.1453 8.18274ZM15.5293 3.82611C16.3246 2.8905 16.7745 1.71015 16.8038 0.482526C16.8048 0.320444 16.7887 0.158706 16.7558 0C15.3875 0.131141 14.1216 0.782179 13.219 1.81895C12.4188 2.71907 11.9547 3.86826 11.9053 5.07158C11.906 5.21757 11.9212 5.36313 11.9508 5.50611C12.0583 5.5261 12.1673 5.53666 12.2766 5.53768C12.9066 5.48825 13.5199 5.311 14.0792 5.01673C14.6384 4.72246 15.1318 4.31735 15.5293 3.82611Z" fill="black"/>
</g>
</g>
<defs>
<clipPath id="clip0_129_417">
<rect width="24" height="24" fill="white"/>
</clipPath>
</defs>
</svg>
