<svg width="24" height="24" viewBox="0 0 24 24" fill="none" xmlns="http://www.w3.org/2000/svg">
<path d="M11.9998 1.9999C10.7543 2.0043 9.56056 2.49806 8.67591 3.37468C7.79126 4.25131 7.28663 5.44054 7.27089 6.68587C7.25514 7.93119 7.72953 9.1328 8.59174 10.0315C9.45394 10.9302 10.6349 11.454 11.8798 11.4899C11.9528 11.4799 12.0268 11.4799 12.0998 11.4899H12.1698C13.4197 11.455 14.6054 10.9281 15.4691 10.0239C16.3329 9.11961 16.8048 7.91102 16.7824 6.66075C16.76 5.41048 16.2451 4.21957 15.3495 3.34683C14.454 2.47409 13.2502 1.99005 11.9998 1.9999Z" fill="currentColor"/>
<path d="M17.08 14.1499C15.5446 13.2368 13.7913 12.7549 12.005 12.7549C10.2186 12.7549 8.46534 13.2368 6.92996 14.1499C6.35738 14.4802 5.87694 14.9491 5.53274 15.5134C5.18853 16.0778 4.99158 16.7196 4.95996 17.3799C4.99084 18.0365 5.18658 18.6747 5.52912 19.2357C5.87167 19.7967 6.35 20.2624 6.91996 20.5899C8.44041 21.5433 10.2056 22.0332 12 21.9999C13.7943 22.0332 15.5595 21.5433 17.08 20.5899C17.6508 20.2584 18.1294 19.7891 18.4718 19.2248C18.8142 18.6605 19.0096 18.0192 19.04 17.3599C19.007 16.7038 18.8104 16.0664 18.4681 15.5057C18.1257 14.945 17.6485 14.4789 17.08 14.1499Z" fill="currentColor"/>
</svg>
