<svg width="24" height="24" viewBox="0 0 24 24" fill="none" xmlns="http://www.w3.org/2000/svg">
<g clip-path="url(#clip0_19_7765)">
<path d="M17.5299 7.77002C17.4603 7.76003 17.3895 7.76003 17.3199 7.77002C16.5604 7.7425 15.842 7.41791 15.3194 6.86609C14.7967 6.31427 14.5116 5.57932 14.5254 4.81942C14.5391 4.05951 14.8507 3.33537 15.3929 2.80283C15.9352 2.2703 16.6649 1.97192 17.4249 1.97192C18.1849 1.97192 18.9146 2.2703 19.4569 2.80283C19.9991 3.33537 20.3107 4.05951 20.3244 4.81942C20.3382 5.57932 20.0531 6.31427 19.5304 6.86609C19.0078 7.41791 18.2894 7.7425 17.5299 7.77002Z" fill="#292D32"/>
<path d="M20.7901 14.7001C19.5507 15.4554 18.0859 15.7526 16.6501 15.5401C17.0357 14.6956 17.2369 13.7785 17.2401 12.8501C17.2478 11.8861 17.0286 10.9337 16.6001 10.0701C18.0477 9.8474 19.5274 10.1412 20.7801 10.9001C21.135 11.0742 21.4342 11.3441 21.6437 11.6793C21.8533 12.0145 21.9649 12.4017 21.9659 12.797C21.967 13.1923 21.8574 13.58 21.6496 13.9164C21.4418 14.2527 21.1441 14.5241 20.7901 14.7001Z" fill="#292D32"/>
<path d="M6.44016 7.77004C6.5098 7.76005 6.58051 7.76005 6.65016 7.77004C7.40571 7.74253 8.12027 7.41951 8.64009 6.87051C9.15991 6.3215 9.44344 5.59037 9.42968 4.83444C9.41592 4.07851 9.10596 3.35819 8.56651 2.82847C8.02705 2.29874 7.30121 2.00195 6.54516 2.00195C5.7891 2.00195 5.06326 2.29874 4.5238 2.82847C3.98435 3.35819 3.6744 4.07851 3.66063 4.83444C3.64687 5.59037 3.93041 6.3215 4.45022 6.87051C4.97004 7.41951 5.6846 7.74253 6.44016 7.77004Z" fill="#292D32"/>
<path d="M6.54978 12.8499C6.54813 13.7885 6.74939 14.7164 7.13978 15.5699C5.76064 15.7365 4.36558 15.4336 3.17978 14.7099C2.82421 14.5346 2.5248 14.2632 2.31544 13.9266C2.10608 13.5899 1.99512 13.2014 1.99512 12.8049C1.99512 12.4085 2.10608 12.0199 2.31544 11.6833C2.5248 11.3466 2.82421 11.0752 3.17978 10.8999C4.37685 10.1679 5.7885 9.86795 7.17978 10.0499C6.75912 10.923 6.54363 11.8808 6.54978 12.8499Z" fill="#292D32"/>
<path d="M12.12 15.87C12.0337 15.8599 11.9464 15.8599 11.86 15.87C10.9569 15.8359 10.1033 15.4489 9.48255 14.792C8.86182 14.1352 8.52362 13.261 8.54065 12.3574C8.55768 11.4538 8.92858 10.593 9.57362 9.96002C10.2186 9.32703 11.0863 8.97241 11.99 8.97241C12.8938 8.97241 13.7614 9.32703 14.4065 9.96002C15.0515 10.593 15.4224 11.4538 15.4394 12.3574C15.4565 13.261 15.1183 14.1352 14.4975 14.792C13.8768 15.4489 13.0231 15.8359 12.12 15.87Z" fill="#292D32"/>
<path d="M8.86917 17.9401C8.52882 18.1108 8.24266 18.3729 8.04269 18.6969C7.84272 19.021 7.73682 19.3943 7.73682 19.7751C7.73682 20.1559 7.84272 20.5291 8.04269 20.8532C8.24266 21.1773 8.52882 21.4393 8.86917 21.6101C9.81566 22.1745 10.8972 22.4725 11.9992 22.4725C13.1012 22.4725 14.1827 22.1745 15.1292 21.6101C15.4695 21.4393 15.7557 21.1773 15.9557 20.8532C16.1556 20.5291 16.2615 20.1559 16.2615 19.7751C16.2615 19.3943 16.1556 19.021 15.9557 18.6969C15.7557 18.3729 15.4695 18.1108 15.1292 17.9401C14.1827 17.3756 13.1012 17.0776 11.9992 17.0776C10.8972 17.0776 9.81566 17.3756 8.86917 17.9401Z" fill="#292D32"/>
</g>
<defs>
<clipPath id="clip0_19_7765">
<rect width="24" height="24" fill="white"/>
</clipPath>
</defs>
</svg>
