<svg width="20" height="20" viewBox="0 0 20 20" fill="none" xmlns="http://www.w3.org/2000/svg">
<path d="M6.66675 1.66675V4.16675V1.66675Z" fill="#59667A"/>
<path d="M6.66675 1.66675V4.16675" stroke="#59667A" stroke-width="1.5" stroke-linecap="round" stroke-linejoin="round"/>
<path d="M6.66675 1.66675V4.16675" stroke="white" stroke-opacity="0.6" stroke-width="1.5" stroke-linecap="round" stroke-linejoin="round"/>
<path d="M13.3333 1.66675V4.16675V1.66675Z" fill="#59667A"/>
<path d="M13.3333 1.66675V4.16675" stroke="#59667A" stroke-width="1.5" stroke-linecap="round" stroke-linejoin="round"/>
<path d="M13.3333 1.66675V4.16675" stroke="white" stroke-opacity="0.6" stroke-width="1.5" stroke-linecap="round" stroke-linejoin="round"/>
<path d="M2.91675 7.57495H17.0834H2.91675Z" fill="#59667A"/>
<path d="M2.91675 7.57495H17.0834" stroke="#59667A" stroke-width="1.5" stroke-linecap="round" stroke-linejoin="round"/>
<path d="M2.91675 7.57495H17.0834" stroke="white" stroke-opacity="0.6" stroke-width="1.5" stroke-linecap="round" stroke-linejoin="round"/>
<path d="M17.5 7.08341V14.1667C17.5 16.6667 16.25 18.3334 13.3333 18.3334H6.66667C3.75 18.3334 2.5 16.6667 2.5 14.1667V7.08341C2.5 4.58341 3.75 2.91675 6.66667 2.91675H13.3333C16.25 2.91675 17.5 4.58341 17.5 7.08341Z" stroke="#59667A" stroke-width="1.5" stroke-linecap="round" stroke-linejoin="round"/>
<path d="M17.5 7.08341V14.1667C17.5 16.6667 16.25 18.3334 13.3333 18.3334H6.66667C3.75 18.3334 2.5 16.6667 2.5 14.1667V7.08341C2.5 4.58341 3.75 2.91675 6.66667 2.91675H13.3333C16.25 2.91675 17.5 4.58341 17.5 7.08341Z" stroke="white" stroke-opacity="0.6" stroke-width="1.5" stroke-linecap="round" stroke-linejoin="round"/>
<path d="M13.0791 11.4167H13.0833" stroke="#59667A" stroke-width="2" stroke-linecap="round" stroke-linejoin="round"/>
<path d="M13.0791 11.4167H13.0833" stroke="white" stroke-opacity="0.6" stroke-width="2" stroke-linecap="round" stroke-linejoin="round"/>
<path d="M13.0791 13.9167H13.0833" stroke="#59667A" stroke-width="2" stroke-linecap="round" stroke-linejoin="round"/>
<path d="M13.0791 13.9167H13.0833" stroke="white" stroke-opacity="0.6" stroke-width="2" stroke-linecap="round" stroke-linejoin="round"/>
<path d="M9.99658 11.4167H10.0007" stroke="#59667A" stroke-width="2" stroke-linecap="round" stroke-linejoin="round"/>
<path d="M9.99658 11.4167H10.0007" stroke="white" stroke-opacity="0.6" stroke-width="2" stroke-linecap="round" stroke-linejoin="round"/>
<path d="M9.99658 13.9167H10.0007" stroke="#59667A" stroke-width="2" stroke-linecap="round" stroke-linejoin="round"/>
<path d="M9.99658 13.9167H10.0007" stroke="white" stroke-opacity="0.6" stroke-width="2" stroke-linecap="round" stroke-linejoin="round"/>
<path d="M6.9126 11.4167H6.91676" stroke="#59667A" stroke-width="2" stroke-linecap="round" stroke-linejoin="round"/>
<path d="M6.9126 11.4167H6.91676" stroke="white" stroke-opacity="0.6" stroke-width="2" stroke-linecap="round" stroke-linejoin="round"/>
<path d="M6.9126 13.9167H6.91676" stroke="#59667A" stroke-width="2" stroke-linecap="round" stroke-linejoin="round"/>
<path d="M6.9126 13.9167H6.91676" stroke="white" stroke-opacity="0.6" stroke-width="2" stroke-linecap="round" stroke-linejoin="round"/>
</svg>
