<svg width="24" height="24" viewBox="0 0 24 24" fill="none" xmlns="http://www.w3.org/2000/svg">
<g clip-path="url(#clip0_129_418)">
<path d="M24 12.288C23.9961 11.4731 23.9246 10.6599 23.786 9.85645H12.2371V14.4834H18.8525C18.7209 15.2215 18.4356 15.9251 18.0143 16.5504C17.593 17.1756 17.0448 17.7091 16.4038 18.1175L20.3514 21.1238C21.5548 19.9804 22.5014 18.6034 23.1306 17.0808C23.7597 15.5582 24.0576 13.9236 24.0051 12.2817L24 12.288Z" fill="#4280EF"/>
<path d="M12.2371 23.9999C15.219 24.0789 18.1193 23.0398 20.3462 21.0947L16.3974 18.1161C15.4483 18.7128 14.373 19.0899 13.2531 19.2186C12.1331 19.3474 10.998 19.2245 9.93377 18.8593C8.86953 18.4941 7.90413 17.8961 7.11078 17.1108C6.31743 16.3254 5.71697 15.3733 5.35494 14.3267L1.30038 17.386C2.31775 19.3744 3.87954 21.0462 5.81104 22.2143C7.74254 23.3823 9.96755 24.0006 12.2371 23.9999Z" fill="#34A353"/>
<path d="M5.35495 14.3015C4.84802 12.8079 4.84802 11.1935 5.35495 9.69986L1.30039 6.61523C0.445352 8.28679 0.00012207 10.1308 0.00012207 12.0007C0.00012207 13.8706 0.445352 15.7146 1.30039 17.3862L5.35495 14.3015Z" fill="#F6B704"/>
<path d="M12.2371 4.75838C13.9825 4.73531 15.6678 5.38276 16.9322 6.56217L20.4261 3.11122C18.2072 1.07944 15.2735 -0.0342041 12.2371 0.00259264C9.96768 0.00180371 7.74277 0.619892 5.81129 1.78772C3.8798 2.95554 2.31793 4.62704 1.30038 6.61522L5.35494 9.69986C5.83169 8.27482 6.75184 7.03191 7.98618 6.14564C9.22053 5.25937 10.7071 4.77425 12.2371 4.75838Z" fill="#E54335"/>
</g>
<defs>
<clipPath id="clip0_129_418">
<rect width="24" height="24" fill="white"/>
</clipPath>
</defs>
</svg>
