<svg width="24" height="24" viewBox="0 0 24 24" fill="none" xmlns="http://www.w3.org/2000/svg">
<g clip-path="url(#clip0_6457_3610)">
<path d="M17 2.43H6.99997C6.33287 2.38974 5.66481 2.49148 5.03994 2.72852C4.41506 2.96555 3.8476 3.33247 3.37502 3.80505C2.90245 4.27762 2.53553 4.84509 2.29849 5.46996C2.06146 6.09483 1.95971 6.76289 1.99997 7.43V13.43C1.95971 14.0971 2.06146 14.7652 2.29849 15.39C2.53553 16.0149 2.90245 16.5824 3.37502 17.0549C3.8476 17.5275 4.41506 17.8944 5.03994 18.1315C5.66481 18.3685 6.33287 18.4703 6.99997 18.43V20.56C6.99887 20.7409 7.04716 20.9187 7.13963 21.0742C7.2321 21.2296 7.36525 21.3569 7.52472 21.4423C7.6842 21.5277 7.86396 21.568 8.04463 21.5588C8.2253 21.5495 8.40002 21.4912 8.54997 21.39L13 18.43H17C17.6671 18.4703 18.3351 18.3685 18.96 18.1315C19.5849 17.8944 20.1524 17.5275 20.6249 17.0549C21.0975 16.5824 21.4644 16.0149 21.7015 15.39C21.9385 14.7652 22.0402 14.0971 22 13.43V7.43C22.0402 6.76289 21.9385 6.09483 21.7015 5.46996C21.4644 4.84509 21.0975 4.27762 20.6249 3.80505C20.1524 3.33247 19.5849 2.96555 18.96 2.72852C18.3351 2.49148 17.6671 2.38974 17 2.43ZM12 14.6C11.8516 14.6 11.7066 14.556 11.5833 14.4736C11.46 14.3912 11.3638 14.2741 11.3071 14.137C11.2503 14 11.2354 13.8492 11.2644 13.7037C11.2933 13.5582 11.3648 13.4246 11.4696 13.3197C11.5745 13.2148 11.7082 13.1433 11.8537 13.1144C11.9991 13.0855 12.1499 13.1003 12.287 13.1571C12.424 13.2139 12.5412 13.31 12.6236 13.4333C12.706 13.5567 12.75 13.7017 12.75 13.85C12.7501 13.9485 12.7308 14.0461 12.6932 14.1372C12.6555 14.2282 12.6003 14.311 12.5306 14.3806C12.4609 14.4503 12.3782 14.5055 12.2871 14.5432C12.1961 14.5808 12.0985 14.6001 12 14.6ZM13.26 10.45C12.87 10.71 12.75 10.88 12.75 11.16V11.37C12.75 11.5689 12.671 11.7597 12.5303 11.9003C12.3897 12.041 12.1989 12.12 12 12.12C11.8011 12.12 11.6103 12.041 11.4696 11.9003C11.329 11.7597 11.25 11.5689 11.25 11.37V11.16C11.2619 10.762 11.3757 10.3738 11.5805 10.0323C11.7854 9.69093 12.0744 9.40778 12.42 9.21C12.79 8.96 12.91 8.79 12.91 8.53C12.91 8.28865 12.8141 8.05719 12.6434 7.88653C12.4728 7.71587 12.2413 7.62 12 7.62C11.7586 7.62 11.5272 7.71587 11.3565 7.88653C11.1858 8.05719 11.09 8.28865 11.09 8.53C11.09 8.72891 11.011 8.91967 10.8703 9.06033C10.7297 9.20098 10.5389 9.28 10.34 9.28C10.1411 9.28 9.9503 9.20098 9.80964 9.06033C9.66899 8.91967 9.58997 8.72891 9.58997 8.53C9.58997 7.89083 9.84388 7.27783 10.2958 6.82587C10.7478 6.37391 11.3608 6.12 12 6.12C12.6391 6.12 13.2521 6.37391 13.7041 6.82587C14.1561 7.27783 14.41 7.89083 14.41 8.53C14.3982 8.9216 14.2863 9.30365 14.085 9.63975C13.8837 9.97586 13.5997 10.2548 13.26 10.45Z" fill="#59667A"/>
</g>
<defs>
<clipPath id="clip0_6457_3610">
<rect width="24" height="24" fill="white"/>
</clipPath>
</defs>
</svg>
