<svg width="24" height="24" viewBox="0 0 24 24" fill="none" xmlns="http://www.w3.org/2000/svg">
<g clip-path="url(#clip0_143_913)">
<path d="M10 19.0001V14.0001H14V19.0001C14 19.2653 14.1054 19.5197 14.2929 19.7072C14.4804 19.8948 14.7348 20.0001 15 20.0001H18C18.2652 20.0001 18.5196 19.8948 18.7071 19.7072C18.8946 19.5197 19 19.2653 19 19.0001V12.0001H20.7C20.8004 11.9989 20.8981 11.9674 20.9803 11.9099C21.0626 11.8523 21.1256 11.7713 21.1612 11.6775C21.1968 11.5836 21.2034 11.4812 21.18 11.3836C21.1566 11.2859 21.1043 11.1976 21.03 11.1301L12.67 3.60011C12.4854 3.43592 12.247 3.34521 12 3.34521C11.753 3.34521 11.5146 3.43592 11.33 3.60011L2.97 11.1301C2.8957 11.1976 2.84345 11.2859 2.82004 11.3836C2.79663 11.4812 2.80316 11.5836 2.83876 11.6775C2.87437 11.7713 2.9374 11.8523 3.01967 11.9099C3.10193 11.9674 3.19961 11.9989 3.3 12.0001H5V19.0001C5 19.2653 5.10536 19.5197 5.29289 19.7072C5.48043 19.8948 5.73478 20.0001 6 20.0001H9C9.26522 20.0001 9.51957 19.8948 9.70711 19.7072C9.89464 19.5197 10 19.2653 10 19.0001Z" fill="#292D32"/>
</g>
<defs>
<clipPath id="clip0_143_913">
<rect width="24" height="24" fill="white"/>
</clipPath>
</defs>
</svg>
