<svg width="24" height="24" viewBox="0 0 24 24" fill="none" xmlns="http://www.w3.org/2000/svg">
<g clip-path="url(#clip0_566_15295)">
<path d="M13.262 20.3089C13.125 20.3213 12.9872 20.2982 12.8618 20.2418C12.7364 20.1854 12.6276 20.0976 12.546 19.9869C12.473 19.8678 12.4301 19.7328 12.4211 19.5934C12.412 19.454 12.4371 19.3145 12.494 19.1869L15.527 11.1469C15.6276 10.9138 15.7922 10.714 16.0018 10.5706C16.2114 10.4272 16.4573 10.3462 16.711 10.3369C16.965 10.343 17.2112 10.426 17.417 10.5749C17.6327 10.7105 17.8 10.9107 17.895 11.1469L20.928 19.1869C20.9848 19.3145 21.0097 19.454 21.0007 19.5934C20.9916 19.7327 20.9488 19.8678 20.876 19.9869C20.7906 20.099 20.678 20.1875 20.5488 20.2438C20.4197 20.3002 20.2783 20.3226 20.138 20.3089C19.9872 20.3094 19.8407 20.2582 19.723 20.1639C19.6028 20.0728 19.5095 19.9508 19.453 19.8109L18.747 17.7749H14.717L13.99 19.8109C13.9301 19.9548 13.8288 20.0777 13.699 20.1639C13.5725 20.2568 13.4189 20.3075 13.262 20.3089ZM15.215 16.3199H18.206L16.752 12.2069H16.669L15.215 16.3199ZM8.11 9.13294C8.32105 9.51816 8.55688 9.88928 8.816 10.2439C9.08732 10.6086 9.37877 10.9578 9.689 11.2899C10.2683 10.6668 10.777 9.98167 11.206 9.24694C11.6132 8.5351 11.954 7.78727 12.224 7.01294H3.831C3.7214 7.01497 3.61251 6.9949 3.51084 6.95392C3.40916 6.91294 3.31679 6.8519 3.23923 6.77443C3.16167 6.69696 3.10051 6.60466 3.05941 6.50304C3.01831 6.40141 2.9981 6.29255 3 6.18294C2.99797 6.07325 3.01807 5.96428 3.05911 5.86254C3.10015 5.7608 3.16129 5.66838 3.23886 5.5908C3.31644 5.51323 3.40886 5.45209 3.5106 5.41105C3.61234 5.37001 3.72131 5.34991 3.831 5.35194H8.817V4.52094C8.817 4.30055 8.90455 4.08918 9.0604 3.93334C9.21624 3.77749 9.42761 3.68994 9.648 3.68994C9.8684 3.68994 10.0798 3.77749 10.2356 3.93334C10.3915 4.08918 10.479 4.30055 10.479 4.52094V5.35194H15.465C15.5747 5.34991 15.6837 5.37001 15.7854 5.41105C15.8871 5.45209 15.9796 5.51323 16.0571 5.5908C16.1347 5.66838 16.1959 5.7608 16.2369 5.86254C16.2779 5.96428 16.298 6.07325 16.296 6.18294C16.298 6.29263 16.2779 6.4016 16.2369 6.50334C16.1959 6.60509 16.1347 6.69751 16.0571 6.77508C15.9796 6.85266 15.8871 6.91379 15.7854 6.95483C15.6837 6.99587 15.5747 7.01598 15.465 7.01394H13.886C13.5903 8.00783 13.1928 8.96858 12.7 9.88094C12.1906 10.8244 11.5698 11.7034 10.851 12.4989L12.845 14.5349L12.222 16.2349L9.648 13.6619L6.075 17.2349C5.99876 17.3108 5.90779 17.3703 5.8077 17.4097C5.7076 17.449 5.60051 17.4675 5.493 17.4639C5.33284 17.4615 5.17688 17.4124 5.04423 17.3226C4.91158 17.2328 4.80801 17.1063 4.74622 16.9585C4.68444 16.8107 4.66712 16.6481 4.69639 16.4906C4.72565 16.3332 4.80024 16.1877 4.911 16.0719L8.526 12.4569C8.152 12.0276 7.80567 11.5943 7.487 11.1569C7.16747 10.7195 6.8826 10.2578 6.635 9.77594C6.56059 9.6623 6.51922 9.53021 6.51551 9.39442C6.51181 9.25863 6.5459 9.12448 6.614 9.00694C6.69464 8.89188 6.80455 8.80045 6.93236 8.74208C7.06016 8.68371 7.20124 8.66054 7.341 8.67494C7.49582 8.68 7.64642 8.72663 7.777 8.80994C7.91493 8.88585 8.02993 8.9974 8.11 9.13294Z" fill="#292D32"/>
</g>
<defs>
<clipPath id="clip0_566_15295">
<rect width="24" height="24" fill="white"/>
</clipPath>
</defs>
</svg>
