<svg width="24" height="24" viewBox="0 0 24 24" fill="none" xmlns="http://www.w3.org/2000/svg">
<g clip-path="url(#clip0_19_5604)">
<path d="M9.1499 7.48999C8.95212 7.48999 8.75878 7.54864 8.59433 7.65852C8.42988 7.7684 8.30171 7.92458 8.22602 8.10731C8.15034 8.29003 8.13053 8.4911 8.16912 8.68508C8.2077 8.87906 8.30294 9.05724 8.4428 9.1971C8.58265 9.33695 8.76083 9.43219 8.95481 9.47078C9.14879 9.50936 9.34986 9.48956 9.53259 9.41387C9.71531 9.33818 9.87149 9.21001 9.98137 9.04556C10.0913 8.88111 10.1499 8.68777 10.1499 8.48999C10.1499 8.22477 10.0445 7.97042 9.85701 7.78288C9.66947 7.59535 9.41512 7.48999 9.1499 7.48999Z" fill="#292D32"/>
<path d="M21.46 5.04C20.62 3.09 18.77 2 16.19 2H7.81C7.04695 1.99974 6.29132 2.14984 5.5863 2.44173C4.88128 2.73361 4.24068 3.16156 3.70112 3.70112C3.16156 4.24068 2.73361 4.88128 2.44173 5.5863C2.14984 6.29132 1.99974 7.04695 2 7.81V16.19C2 18.77 3.09 20.62 5.04 21.46C5.13233 21.4978 5.23376 21.5076 5.3316 21.488C5.42943 21.4684 5.51932 21.4204 5.59 21.35L21.35 5.59C21.4237 5.52143 21.474 5.43144 21.4937 5.33274C21.5134 5.23404 21.5016 5.13163 21.46 5.04ZM10.53 12.24C10.1518 12.6046 9.64531 12.8058 9.12 12.8C8.59566 12.8006 8.09104 12.6002 7.71 12.24C7.06964 11.7367 6.57405 11.0727 6.27368 10.3156C5.97331 9.55857 5.87888 8.73543 6 7.93C6.16612 7.23371 6.56706 6.61592 7.13533 6.18061C7.70359 5.74531 8.40448 5.51908 9.12 5.54C9.83693 5.51939 10.539 5.74698 11.1075 6.18428C11.676 6.62158 12.076 7.24177 12.24 7.94C12.3556 8.74367 12.2585 9.56358 11.9584 10.318C11.6584 11.0725 11.1659 11.7352 10.53 12.24Z" fill="#292D32"/>
<path d="M19.4701 20.5299C19.5227 20.5783 19.5631 20.6383 19.5882 20.7053C19.6133 20.7722 19.6224 20.844 19.6146 20.9151C19.6068 20.9861 19.5824 21.0544 19.5434 21.1142C19.5044 21.1741 19.4519 21.224 19.3901 21.2599C18.4043 21.7764 17.3025 22.0312 16.1901 21.9999H7.81006C7.74756 21.9996 7.68659 21.9805 7.6351 21.945C7.58362 21.9096 7.54402 21.8594 7.52145 21.8011C7.49889 21.7428 7.49442 21.6791 7.50862 21.6182C7.52282 21.5573 7.55504 21.5022 7.60106 21.4599L13.6401 15.4199C13.6865 15.373 13.7418 15.3358 13.8028 15.3104C13.8637 15.285 13.9291 15.272 13.9951 15.272C14.0611 15.272 14.1264 15.285 14.1874 15.3104C14.2483 15.3358 14.3036 15.373 14.3501 15.4199L19.4701 20.5299Z" fill="#292D32"/>
<path d="M22.0001 7.8099V16.1899C22.0328 17.3025 21.7779 18.4046 21.2601 19.3899C21.2234 19.4507 21.1731 19.5023 21.1133 19.5405C21.0534 19.5788 20.9855 19.6027 20.9149 19.6104C20.8443 19.6182 20.7728 19.6095 20.7061 19.5851C20.6393 19.5608 20.5791 19.5213 20.5301 19.4699L15.4101 14.3499C15.3632 14.3034 15.326 14.2481 15.3007 14.1872C15.2753 14.1263 15.2622 14.0609 15.2622 13.9949C15.2622 13.9289 15.2753 13.8635 15.3007 13.8026C15.326 13.7417 15.3632 13.6864 15.4101 13.6399L21.4501 7.6009C21.493 7.55437 21.5489 7.52174 21.6105 7.50723C21.6721 7.49271 21.7366 7.49697 21.7958 7.51945C21.8549 7.54193 21.906 7.58161 21.9424 7.63337C21.9788 7.68514 21.9989 7.74662 22.0001 7.8099Z" fill="#292D32"/>
</g>
<defs>
<clipPath id="clip0_19_5604">
<rect width="24" height="24" fill="white"/>
</clipPath>
</defs>
</svg>
