<svg width="24" height="24" viewBox="0 0 24 24" fill="none" xmlns="http://www.w3.org/2000/svg">
<g clip-path="url(#clip0_770_21789)">
<path d="M19.34 14.49L18.34 12.83C18.1052 12.3699 17.969 11.8658 17.94 11.35V8.82004C17.9389 7.70405 17.6218 6.61118 17.0254 5.66791C16.429 4.72465 15.5777 3.96956 14.57 3.49004C14.3128 3.03338 13.9377 2.65418 13.4838 2.39207C13.03 2.12997 12.5141 1.99457 11.99 2.00004C11.462 1.99945 10.9434 2.14007 10.488 2.40733C10.0326 2.67459 9.65696 3.05876 9.39999 3.52004C8.41133 4.009 7.57869 4.76409 6.99571 5.70039C6.41273 6.6367 6.10253 7.71708 6.09999 8.82004V11.35C6.07226 11.8628 5.93591 12.3639 5.69999 12.82L4.68999 14.49C4.48875 14.7963 4.36236 15.1457 4.32105 15.5098C4.27973 15.874 4.32465 16.2428 4.45216 16.5864C4.57967 16.93 4.78621 17.2388 5.05508 17.4878C5.32396 17.7369 5.64764 17.9192 5.99999 18.02C7.9395 18.674 9.97321 19.005 12.02 19C14.0658 19.0035 16.0988 18.6759 18.04 18.03C18.3839 17.9158 18.6975 17.7254 18.9577 17.4732C19.2179 17.221 19.4179 16.9134 19.5428 16.5732C19.6677 16.2331 19.7143 15.8691 19.6792 15.5085C19.6441 15.1478 19.5282 14.7997 19.34 14.49Z" fill="white"/>
<path d="M14.83 20.01C14.6197 20.5922 14.2353 21.0954 13.7289 21.4515C13.2226 21.8075 12.619 21.999 12 22C11.6052 22.0003 11.2143 21.9217 10.8502 21.7689C10.4862 21.616 10.1563 21.392 9.87999 21.11C9.56084 20.8016 9.32073 20.4209 9.17999 20C9.30999 20.02 9.43999 20.03 9.57999 20.05C9.80999 20.08 10.05 20.11 10.29 20.13C10.86 20.18 11.44 20.21 12.02 20.21C12.6 20.21 13.16 20.18 13.72 20.13C13.93 20.11 14.14 20.1 14.34 20.07L14.83 20.01Z" fill="white"/>
</g>
<defs>
<clipPath id="clip0_770_21789">
<rect width="24" height="24" fill="white"/>
</clipPath>
</defs>
</svg>
