<svg width="24" height="24" viewBox="0 0 24 24" fill="none" xmlns="http://www.w3.org/2000/svg">
<g clip-path="url(#clip0_566_15294)">
<path d="M19.828 18.4531C19.7643 18.5171 19.6885 18.5678 19.6051 18.6025C19.5217 18.6371 19.4323 18.6549 19.342 18.6549C19.2517 18.6549 19.1623 18.6371 19.0789 18.6025C18.9955 18.5678 18.9197 18.5171 18.856 18.4531L14.319 13.9161L14.805 13.4301L15.291 12.9441L19.828 17.4811C19.9558 17.6106 20.0274 17.7852 20.0274 17.9671C20.0274 18.149 19.9558 18.3236 19.828 18.4531Z" fill="#292D32"/>
<path d="M6.93097 9.50624L12.252 14.8232C12.3369 14.908 12.4042 15.0087 12.4502 15.1196C12.4961 15.2304 12.5198 15.3492 12.5198 15.4692C12.5198 15.5892 12.4961 15.7081 12.4502 15.8189C12.4042 15.9297 12.3369 16.0304 12.252 16.1152L11.427 16.9492C11.2532 17.1236 11.0468 17.2619 10.8195 17.3562C10.5922 17.4506 10.3486 17.4992 10.1025 17.4992C9.85637 17.4992 9.61269 17.4506 9.3854 17.3562C9.15812 17.2619 8.95169 17.1236 8.77797 16.9492L4.79497 12.9712C4.44713 12.62 4.252 12.1456 4.252 11.6512C4.252 11.1569 4.44713 10.6825 4.79497 10.3312L5.62897 9.49724C5.80435 9.32875 6.03859 9.2354 6.2818 9.23708C6.525 9.23876 6.75793 9.33534 6.93097 9.50624Z" fill="#292D32"/>
<path d="M18.041 10.3409L14.548 13.8239C14.4616 13.911 14.3587 13.9801 14.2455 14.0272C14.1322 14.0744 14.0107 14.0987 13.888 14.0987C13.7653 14.0987 13.6438 14.0744 13.5305 14.0272C13.4173 13.9801 13.3144 13.911 13.228 13.8239L7.928 8.52389C7.8408 8.43751 7.77159 8.33471 7.72435 8.22143C7.67711 8.10815 7.65279 7.98663 7.65279 7.86389C7.65279 7.74115 7.67711 7.61963 7.72435 7.50635C7.77159 7.39307 7.8408 7.29027 7.928 7.20389L11.423 3.71289C11.7743 3.36505 12.2486 3.16992 12.743 3.16992C13.2374 3.16992 13.7117 3.36505 14.063 3.71289L18.041 7.69089C18.3892 8.04399 18.5844 8.51997 18.5844 9.01589C18.5844 9.51181 18.3892 9.98779 18.041 10.3409Z" fill="#292D32"/>
<path d="M8.334 20.938H2.834C2.65211 20.9367 2.47802 20.8639 2.34931 20.7354C2.22059 20.6069 2.14757 20.4329 2.146 20.251C2.14731 20.0689 2.22021 19.8947 2.34896 19.7659C2.4777 19.6372 2.65194 19.5643 2.834 19.563H8.334C8.51606 19.5643 8.6903 19.6372 8.81904 19.7659C8.94778 19.8947 9.02069 20.0689 9.022 20.251C9.02043 20.4329 8.94741 20.6069 8.81869 20.7354C8.68998 20.8639 8.51589 20.9367 8.334 20.938Z" fill="#292D32"/>
</g>
<defs>
<clipPath id="clip0_566_15294">
<rect width="24" height="24" fill="white"/>
</clipPath>
</defs>
</svg>
