<svg width="24" height="24" viewBox="0 0 24 24" fill="none" xmlns="http://www.w3.org/2000/svg">
<g clip-path="url(#clip0_19_6566)">
<path d="M13.5501 20.1599C13.2901 20.2699 13.0101 20.3699 12.7101 20.4699L11.1301 20.9899C7.1601 22.2699 5.0701 21.1999 3.7801 17.2299L2.5001 13.2799C1.2201 9.30992 2.2801 7.20992 6.2501 5.92992L7.7861 5.41992C7.58177 5.9578 7.41471 6.5091 7.2861 7.06992L6.3061 11.2599C5.2061 15.9699 6.8161 18.5699 11.5261 19.6899L13.5501 20.1599Z" fill="#292D32"/>
<path d="M17.1689 3.21001L15.4999 2.82001C12.1599 2.03001 10.1699 2.68001 8.99994 5.10001C8.67252 5.80366 8.42433 6.54152 8.25994 7.30001L7.27994 11.49C6.29994 15.67 7.58994 17.73 11.7599 18.72L13.4399 19.12C13.9721 19.2521 14.5137 19.3424 15.0599 19.39C18.1799 19.69 19.8399 18.23 20.6799 14.62L21.6599 10.44C22.6399 6.26001 21.3599 4.19001 17.1689 3.21001ZM15.2889 13.33C15.247 13.4913 15.1525 13.6341 15.0202 13.7355C14.888 13.837 14.7256 13.8913 14.5589 13.89C14.4952 13.8878 14.4317 13.8811 14.3689 13.87L11.4589 13.13C11.3637 13.1057 11.2742 13.0629 11.1956 13.004C11.1169 12.9451 11.0506 12.8713 11.0005 12.7868C10.9503 12.7023 10.9173 12.6088 10.9033 12.5115C10.8893 12.4143 10.8946 12.3152 10.9189 12.22C10.9432 12.1248 10.986 12.0353 11.0449 11.9566C11.1038 11.878 11.1776 11.8117 11.2621 11.7615C11.3466 11.7114 11.4401 11.6784 11.5374 11.6644C11.6347 11.6504 11.7337 11.6557 11.8289 11.68L14.7389 12.42C14.8352 12.4431 14.9258 12.485 15.0057 12.5434C15.0856 12.6017 15.1532 12.6753 15.2044 12.76C15.2557 12.8446 15.2896 12.9386 15.3043 13.0364C15.319 13.1343 15.3141 13.2341 15.2899 13.33H15.2889ZM18.2189 9.95001C18.177 10.1113 18.0825 10.2541 17.9502 10.3555C17.818 10.457 17.6556 10.5113 17.4889 10.51C17.4252 10.5078 17.3617 10.5011 17.2989 10.49L12.4489 9.26001C12.2567 9.21094 12.0917 9.0875 11.9905 8.91685C11.8892 8.74619 11.8599 8.54229 11.9089 8.35001C11.958 8.15773 12.0814 7.99281 12.2521 7.89154C12.4228 7.79027 12.6267 7.76094 12.8189 7.81001L17.6689 9.04001C17.7658 9.06196 17.8572 9.10319 17.9377 9.16126C18.0183 9.21933 18.0863 9.29303 18.1377 9.37797C18.1892 9.4629 18.223 9.55733 18.2371 9.65562C18.2512 9.7539 18.2454 9.85403 18.2199 9.95001H18.2189Z" fill="#292D32"/>
</g>
<defs>
<clipPath id="clip0_19_6566">
<rect width="24" height="24" fill="white"/>
</clipPath>
</defs>
</svg>
