<svg width="17" height="21" viewBox="0 0 17 21" fill="none" xmlns="http://www.w3.org/2000/svg">
<path d="M14.99 2.21752L9.49 0.157522C8.81598 -0.0525073 8.09402 -0.0525073 7.42 0.157522L1.92 2.21752C1.37278 2.45325 0.902719 2.83785 0.563289 3.32755C0.22386 3.81724 0.028695 4.39238 0 4.98752L0 13.0875C0.0249453 13.5407 0.142527 13.9839 0.345482 14.3898C0.548438 14.7957 0.832458 15.1557 1.18 15.4475L6.68 19.5575C7.19953 19.9141 7.81487 20.105 8.445 20.105C9.07512 20.105 9.69047 19.9141 10.21 19.5575L15.71 15.4475C16.0567 15.1549 16.3401 14.7948 16.543 14.389C16.7459 13.9833 16.8639 13.5404 16.89 13.0875V4.98752C16.8654 4.39397 16.6741 3.81936 16.3381 3.32947C16.0021 2.83958 15.5349 2.45422 14.99 2.21752ZM11.93 7.81752L7.63 12.1175C7.5605 12.1873 7.47791 12.2427 7.38696 12.2805C7.296 12.3182 7.19849 12.3377 7.1 12.3377C7.00151 12.3377 6.904 12.3182 6.81304 12.2805C6.72209 12.2427 6.6395 12.1873 6.57 12.1175L4.97 10.5005C4.83752 10.3583 4.7654 10.1703 4.76883 9.976C4.77225 9.7817 4.85097 9.59631 4.98838 9.4589C5.12579 9.32149 5.31118 9.24277 5.50548 9.23935C5.69978 9.23592 5.88783 9.30804 6.03 9.44052L7.11 10.5205L10.88 6.75052C10.9494 6.67763 11.0327 6.61946 11.1251 6.57946C11.2174 6.53945 11.3169 6.51845 11.4175 6.51769C11.5182 6.51693 11.6179 6.53642 11.7109 6.57502C11.8038 6.61362 11.888 6.67053 11.9585 6.74236C12.029 6.81419 12.0843 6.89947 12.1211 6.99312C12.158 7.08678 12.1756 7.18689 12.1729 7.28749C12.1703 7.38809 12.1474 7.48713 12.1057 7.5787C12.0639 7.67028 12.0042 7.75252 11.93 7.82052V7.81752Z" fill="#67C1FF"/>
</svg>
