<svg width="24" height="24" viewBox="0 0 24 24" fill="none" xmlns="http://www.w3.org/2000/svg">
<g clip-path="url(#clip0_7362_798)">
<path d="M19.8301 3.17969C20.0494 3.17949 20.2671 3.22281 20.4697 3.30664C20.6723 3.39047 20.8567 3.51295 21.0117 3.66797C21.1667 3.82299 21.2892 4.00739 21.373 4.20996C21.4569 4.41261 21.5002 4.63031 21.5 4.84961V16.7266C21.4902 17.0932 21.3511 17.4446 21.1074 17.7188C20.8637 17.9929 20.53 18.1719 20.167 18.2246L19.8662 18.2637L19.8574 18.2646L19.8486 18.2666C18.0678 18.5597 16.3228 19.0359 14.6416 19.6885L13.9346 19.9756C13.8588 20.0057 13.7763 20.0167 13.6953 20.0078C13.6143 19.9989 13.5362 19.9706 13.4688 19.9248C13.4012 19.8789 13.3458 19.8163 13.3076 19.7441C13.2696 19.6721 13.2499 19.5913 13.25 19.5098V5.60449C13.2509 5.51115 13.2768 5.41965 13.3252 5.33984C13.3728 5.2614 13.44 5.19625 13.5205 5.15234L13.5215 5.15332C15.4826 4.1287 17.6101 3.46041 19.8047 3.17969H19.8301Z" fill="white" stroke="white"/>
<path d="M4.15991 3.17969H4.19604C6.25259 3.44284 8.25023 4.04576 10.1072 4.96387L10.4783 5.15332C10.5573 5.19621 10.6236 5.2596 10.6697 5.33691C10.7162 5.41519 10.7406 5.50463 10.74 5.5957V19.5098L10.7253 19.6309C10.7156 19.6701 10.7014 19.7082 10.6824 19.7441C10.6442 19.8163 10.5888 19.8789 10.5212 19.9248C10.4538 19.9706 10.3757 19.9989 10.2947 20.0078C10.2137 20.0167 10.1312 20.0057 10.0554 19.9756H10.0544C8.15762 19.1749 6.17296 18.601 4.14136 18.2666L4.13257 18.2646L4.12378 18.2637L3.82202 18.2246C3.45904 18.1719 3.12627 17.9929 2.88257 17.7188C2.66937 17.4789 2.53627 17.1799 2.49976 16.8633L2.48999 16.7266V4.84961L2.4978 4.68555C2.51374 4.52237 2.55404 4.36201 2.61694 4.20996C2.70077 4.00739 2.82325 3.82299 2.97827 3.66797C3.13329 3.51295 3.31769 3.39047 3.52026 3.30664C3.67232 3.24374 3.83267 3.20344 3.99585 3.1875L4.15991 3.17969ZM4.99976 10.2393C4.66837 10.2393 4.35032 10.3712 4.11597 10.6055C3.88165 10.8398 3.74987 11.1579 3.74976 11.4893C3.74976 11.8208 3.88155 12.1396 4.11597 12.374C4.35032 12.6083 4.66839 12.7392 4.99976 12.7393H7.99976C8.33109 12.7393 8.64916 12.6082 8.88354 12.374C9.11796 12.1396 9.24976 11.8208 9.24976 11.4893C9.24964 11.1579 9.11786 10.8398 8.88354 10.6055C8.64916 10.3713 8.33112 10.2393 7.99976 10.2393H4.99976ZM4.99976 7.23926C4.66837 7.23932 4.35032 7.37116 4.11597 7.60547C3.88165 7.83979 3.74987 8.15789 3.74976 8.48926C3.74976 8.82078 3.88155 9.1396 4.11597 9.37402C4.35032 9.60829 4.66839 9.7392 4.99976 9.73926H7.24976C7.58109 9.73926 7.89916 9.6082 8.13354 9.37402C8.36796 9.1396 8.49976 8.82078 8.49976 8.48926C8.49964 8.15789 8.36786 7.83979 8.13354 7.60547C7.89916 7.37126 7.58112 7.23926 7.24976 7.23926H4.99976Z" fill="white" stroke="white"/>
</g>
<defs>
<clipPath id="clip0_7362_798">
<rect width="24" height="24" fill="white"/>
</clipPath>
</defs>
</svg>
