<svg width="24" height="24" viewBox="0 0 24 24" fill="none" xmlns="http://www.w3.org/2000/svg">
<g clip-path="url(#clip0_7362_22034)">
<path d="M21.3 7.58018H15.72C15.5343 7.58018 15.3563 7.50643 15.225 7.37515C15.0937 7.24388 15.02 7.06583 15.02 6.88018C15.02 6.69452 15.0937 6.51648 15.225 6.3852C15.3563 6.25393 15.5343 6.18018 15.72 6.18018H21.3C21.4856 6.18018 21.6637 6.25393 21.795 6.3852C21.9262 6.51648 22 6.69452 22 6.88018C22 7.06583 21.9262 7.24388 21.795 7.37515C21.6637 7.50643 21.4856 7.58018 21.3 7.58018Z" fill="#59667A"/>
<path d="M6.42 7.58018H2.7C2.51435 7.58018 2.3363 7.50643 2.20503 7.37515C2.07375 7.24388 2 7.06583 2 6.88018C2 6.69452 2.07375 6.51648 2.20503 6.3852C2.3363 6.25393 2.51435 6.18018 2.7 6.18018H6.42C6.60565 6.18018 6.7837 6.25393 6.91497 6.3852C7.04625 6.51648 7.12 6.69452 7.12 6.88018C7.12 7.06583 7.04625 7.24388 6.91497 7.37515C6.7837 7.50643 6.60565 7.58018 6.42 7.58018Z" fill="#59667A"/>
<path d="M14.09 6.88018C14.09 7.66141 13.8583 8.4251 13.4243 9.07468C12.9903 9.72425 12.3734 10.2305 11.6516 10.5295C10.9298 10.8285 10.1356 10.9067 9.3694 10.7543C8.60317 10.6019 7.89935 10.2257 7.34693 9.67325C6.79452 9.12083 6.41831 8.41701 6.2659 7.65078C6.11349 6.88456 6.19171 6.09034 6.49068 5.36858C6.78965 4.64681 7.29593 4.0299 7.9455 3.59587C8.59508 3.16184 9.35877 2.93018 10.14 2.93018C11.1876 2.93018 12.1923 3.34634 12.9331 4.0871C13.6738 4.82787 14.09 5.83257 14.09 6.88018Z" fill="#59667A"/>
<path d="M21.3 17.8102H17.58C17.3944 17.8102 17.2163 17.7364 17.085 17.6051C16.9538 17.4739 16.88 17.2958 16.88 17.1102C16.88 16.9245 16.9538 16.7465 17.085 16.6152C17.2163 16.4839 17.3944 16.4102 17.58 16.4102H21.3C21.3919 16.4102 21.483 16.4283 21.5679 16.4634C21.6528 16.4986 21.73 16.5502 21.795 16.6152C21.86 16.6802 21.9115 16.7573 21.9467 16.8423C21.9819 16.9272 22 17.0182 22 17.1102C22 17.2021 21.9819 17.2931 21.9467 17.378C21.9115 17.463 21.86 17.5401 21.795 17.6051C21.73 17.6701 21.6528 17.7217 21.5679 17.7569C21.483 17.7921 21.3919 17.8102 21.3 17.8102Z" fill="#59667A"/>
<path d="M8.28 17.8102H2.7C2.51435 17.8102 2.3363 17.7364 2.20503 17.6051C2.07375 17.4739 2 17.2958 2 17.1102C2 16.9245 2.07375 16.7465 2.20503 16.6152C2.3363 16.4839 2.51435 16.4102 2.7 16.4102H8.28C8.46565 16.4102 8.6437 16.4839 8.77497 16.6152C8.90625 16.7465 8.98 16.9245 8.98 17.1102C8.98 17.2958 8.90625 17.4739 8.77497 17.6051C8.6437 17.7364 8.46565 17.8102 8.28 17.8102Z" fill="#59667A"/>
<path d="M17.81 17.1199C17.81 17.9012 17.5783 18.6649 17.1443 19.3144C16.7103 19.964 16.0934 20.4703 15.3716 20.7692C14.6498 21.0682 13.8556 21.1464 13.0894 20.994C12.3232 20.8416 11.6194 20.4654 11.0669 19.913C10.5145 19.3606 10.1383 18.6568 9.9859 17.8905C9.83349 17.1243 9.91172 16.3301 10.2107 15.6083C10.5096 14.8866 11.0159 14.2696 11.6655 13.8356C12.3151 13.4016 13.0788 13.1699 13.86 13.1699C14.9076 13.1699 15.9123 13.5861 16.6531 14.3269C17.3938 15.0676 17.81 16.0723 17.81 17.1199Z" fill="#59667A"/>
</g>
<defs>
<clipPath id="clip0_7362_22034">
<rect width="24" height="24" fill="white"/>
</clipPath>
</defs>
</svg>
