<svg width="24" height="24" viewBox="0 0 24 24" fill="none" xmlns="http://www.w3.org/2000/svg">
<g clip-path="url(#clip0_7362_34104)">
<path d="M16.19 2H7.81C4.17 2 2 4.17 2 7.81V16.18C2 19.83 4.17 22 7.81 22H16.18C19.82 22 21.99 19.83 21.99 16.19V7.81C22 4.17 19.83 2 16.19 2ZM8.64 12.81L13.02 8.43H10.59C10.3911 8.43 10.2003 8.35098 10.0597 8.21033C9.91902 8.06968 9.84 7.87891 9.84 7.68C9.84 7.48109 9.91902 7.29032 10.0597 7.14967C10.2003 7.00902 10.3911 6.93 10.59 6.93H14.83C14.9297 6.93061 15.0283 6.951 15.12 6.99C15.3042 7.06908 15.4509 7.21584 15.53 7.4C15.57 7.49144 15.5904 7.59021 15.59 7.69V11.93C15.59 12.1289 15.511 12.3197 15.3703 12.4603C15.2297 12.601 15.0389 12.68 14.84 12.68C14.6411 12.68 14.4503 12.601 14.3097 12.4603C14.169 12.3197 14.09 12.1289 14.09 11.93V9.5L9.7 13.87C9.6305 13.9398 9.54791 13.9952 9.45696 14.0329C9.366 14.0707 9.26849 14.0902 9.17 14.0902C9.07151 14.0902 8.974 14.0707 8.88304 14.0329C8.79209 13.9952 8.7095 13.9398 8.64 13.87C8.50052 13.7289 8.4223 13.5384 8.4223 13.34C8.4223 13.1416 8.50052 12.9511 8.64 12.81ZM18.24 17.22C16.2277 17.8896 14.1207 18.2306 12 18.23C9.87926 18.2306 7.77226 17.8896 5.76 17.22C5.57227 17.1556 5.41757 17.0196 5.32955 16.8417C5.24153 16.6638 5.22732 16.4583 5.29 16.27C5.32054 16.1761 5.36955 16.0893 5.43413 16.0146C5.49871 15.9399 5.57757 15.8788 5.66607 15.835C5.75458 15.7913 5.85094 15.7656 5.9495 15.7596C6.04806 15.7536 6.14683 15.7673 6.24 15.8C9.98331 17.04 14.0267 17.04 17.77 15.8C17.9583 15.7373 18.1638 15.7515 18.3417 15.8396C18.5196 15.9276 18.6556 16.0823 18.72 16.27C18.7795 16.4597 18.7627 16.6651 18.673 16.8425C18.5834 17.0199 18.428 17.1554 18.24 17.22Z" fill="#59667A"/>
</g>
<defs>
<clipPath id="clip0_7362_34104">
<rect width="24" height="24" fill="white"/>
</clipPath>
</defs>
</svg>
