<svg width="24" height="24" viewBox="0 0 24 24" fill="none" xmlns="http://www.w3.org/2000/svg">
<g clip-path="url(#clip0_7362_24427)">
<path d="M8.99707 1.75L9.0459 1.75488C9.0946 1.76479 9.14013 1.78857 9.17578 1.82422C9.22241 1.87085 9.24773 1.93416 9.24902 2C9.24773 2.06584 9.22241 2.12915 9.17578 2.17578C9.12846 2.2231 9.06398 2.24946 8.99707 2.25H6.5L6.28906 2.25488C5.23877 2.30727 4.24223 2.748 3.49512 3.49512C2.69818 4.29206 2.2503 5.37296 2.25 6.5V9C2.24871 9.06585 2.22241 9.12915 2.17578 9.17578C2.12915 9.22241 2.06584 9.24773 2 9.24902C1.93416 9.24773 1.87085 9.22241 1.82422 9.17578C1.78857 9.14013 1.76479 9.0946 1.75488 9.0459L1.75 8.99707V6.50098C1.75144 5.24149 2.25198 4.03317 3.14258 3.14258C3.97741 2.30775 5.0911 1.81544 6.26465 1.75586L6.50098 1.75H8.99707Z" fill="white" stroke="white"/>
<path d="M17.499 1.75L17.7354 1.75586C18.9089 1.81544 20.0226 2.30775 20.8574 3.14258C21.6923 3.97741 22.1846 5.0911 22.2441 6.26465L22.25 6.50098V9C22.2487 9.06585 22.2224 9.12915 22.1758 9.17578C22.1292 9.22241 22.0658 9.24773 22 9.24902C21.9342 9.24773 21.8708 9.22241 21.8242 9.17578C21.7886 9.14013 21.7648 9.0946 21.7549 9.0459L21.75 8.99707V6.5L21.7451 6.28906C21.6927 5.23877 21.252 4.24223 20.5049 3.49512C19.7079 2.69818 18.627 2.2503 17.5 2.25H15.0029C14.936 2.24946 14.8715 2.2231 14.8242 2.17578C14.7776 2.12915 14.7513 2.06585 14.75 2C14.7513 1.93415 14.7776 1.87085 14.8242 1.82422C14.8599 1.78857 14.9054 1.76479 14.9541 1.75488L15.0029 1.75H17.499Z" fill="white" stroke="white"/>
<path d="M22 15.75C22.0663 15.75 22.1299 15.7764 22.1768 15.8232C22.2236 15.8701 22.25 15.9337 22.25 16V17.5C22.2484 18.7593 21.7479 19.967 20.8574 20.8574C19.9668 21.748 18.7585 22.2486 17.499 22.25H16C15.9337 22.25 15.8701 22.2236 15.8232 22.1768C15.7764 22.1299 15.75 22.0663 15.75 22C15.75 21.9337 15.7764 21.8701 15.8232 21.8232C15.8701 21.7764 15.9337 21.75 16 21.75H17.5C18.627 21.7497 19.7079 21.3018 20.5049 20.5049C21.3018 19.7079 21.7497 18.627 21.75 17.5V16C21.75 15.9337 21.7764 15.8701 21.8232 15.8232C21.8701 15.7764 21.9337 15.75 22 15.75Z" fill="white" stroke="white"/>
<path d="M2 14.75C2.06585 14.7513 2.12915 14.7776 2.17578 14.8242C2.2231 14.8715 2.24946 14.936 2.25 15.0029V17.5C2.2503 18.627 2.69818 19.7079 3.49512 20.5049C4.24223 21.252 5.23877 21.6927 6.28906 21.7451L6.5 21.75H9C9.0663 21.75 9.12987 21.7764 9.17676 21.8232C9.22364 21.8701 9.25 21.9337 9.25 22C9.25 22.0663 9.22364 22.1299 9.17676 22.1768C9.12987 22.2236 9.0663 22.25 9 22.25H6.50098C5.24149 22.2486 4.03317 21.748 3.14258 20.8574C2.30775 20.0226 1.81544 18.9089 1.75586 17.7354L1.75 17.499V15.0029C1.75054 14.936 1.7769 14.8715 1.82422 14.8242C1.87085 14.7776 1.93415 14.7513 2 14.75Z" fill="white" stroke="white"/>
<path d="M8.99997 5.24997H6.99997C6.76294 5.21962 6.52211 5.24398 6.29596 5.3212C6.06981 5.39841 5.86436 5.52642 5.69539 5.69539C5.52642 5.86436 5.39841 6.06981 5.3212 6.29596C5.24398 6.52211 5.21962 6.76294 5.24997 6.99997V8.99997C5.21962 9.237 5.24398 9.47784 5.3212 9.70399C5.39841 9.93014 5.52642 10.1356 5.69539 10.3046C5.86436 10.4735 6.06981 10.6015 6.29596 10.6788C6.52211 10.756 6.76294 10.7803 6.99997 10.75H8.99997C9.237 10.7803 9.47784 10.756 9.70399 10.6788C9.93014 10.6015 10.1356 10.4735 10.3046 10.3046C10.4735 10.1356 10.6015 9.93014 10.6788 9.70399C10.756 9.47784 10.7803 9.237 10.75 8.99997V6.99997C10.7803 6.76294 10.756 6.52211 10.6788 6.29596C10.6015 6.06981 10.4735 5.86436 10.3046 5.69539C10.1356 5.52642 9.93014 5.39841 9.70399 5.3212C9.47784 5.24398 9.237 5.21962 8.99997 5.24997Z" fill="white"/>
<path d="M17 5.24997H15C14.7629 5.21962 14.5221 5.24398 14.296 5.3212C14.0698 5.39841 13.8644 5.52642 13.6954 5.69539C13.5264 5.86436 13.3984 6.06981 13.3212 6.29596C13.244 6.52211 13.2196 6.76294 13.25 6.99997V8.99997C13.2196 9.237 13.244 9.47784 13.3212 9.70399C13.3984 9.93014 13.5264 10.1356 13.6954 10.3046C13.8644 10.4735 14.0698 10.6015 14.296 10.6788C14.5221 10.756 14.7629 10.7803 15 10.75H17C17.237 10.7803 17.4778 10.756 17.704 10.6788C17.9301 10.6015 18.1356 10.4735 18.3046 10.3046C18.4735 10.1356 18.6015 9.93014 18.6788 9.70399C18.756 9.47784 18.7803 9.237 18.75 8.99997V6.99997C18.7803 6.76294 18.756 6.52211 18.6788 6.29596C18.6015 6.06981 18.4735 5.86436 18.3046 5.69539C18.1356 5.52642 17.9301 5.39841 17.704 5.3212C17.4778 5.24398 17.237 5.21962 17 5.24997Z" fill="white"/>
<path d="M8.99997 13.25H6.99997C6.76294 13.2196 6.52211 13.244 6.29596 13.3212C6.06981 13.3984 5.86436 13.5264 5.69539 13.6954C5.52642 13.8644 5.39841 14.0698 5.3212 14.296C5.24398 14.5221 5.21962 14.7629 5.24997 15V17C5.21962 17.237 5.24398 17.4778 5.3212 17.704C5.39841 17.9301 5.52642 18.1356 5.69539 18.3046C5.86436 18.4735 6.06981 18.6015 6.29596 18.6788C6.52211 18.756 6.76294 18.7803 6.99997 18.75H8.99997C9.237 18.7803 9.47784 18.756 9.70399 18.6788C9.93014 18.6015 10.1356 18.4735 10.3046 18.3046C10.4735 18.1356 10.6015 17.9301 10.6788 17.704C10.756 17.4778 10.7803 17.237 10.75 17V15C10.7803 14.7629 10.756 14.5221 10.6788 14.296C10.6015 14.0698 10.4735 13.8644 10.3046 13.6954C10.1356 13.5264 9.93014 13.3984 9.70399 13.3212C9.47784 13.244 9.237 13.2196 8.99997 13.25Z" fill="white"/>
<path d="M17 13.25H15C14.7629 13.2196 14.5221 13.244 14.296 13.3212C14.0698 13.3984 13.8644 13.5264 13.6954 13.6954C13.5264 13.8644 13.3984 14.0698 13.3212 14.296C13.244 14.5221 13.2196 14.7629 13.25 15V17C13.2196 17.237 13.244 17.4778 13.3212 17.704C13.3984 17.9301 13.5264 18.1356 13.6954 18.3046C13.8644 18.4735 14.0698 18.6015 14.296 18.6788C14.5221 18.756 14.7629 18.7803 15 18.75H17C17.237 18.7803 17.4778 18.756 17.704 18.6788C17.9301 18.6015 18.1356 18.4735 18.3046 18.3046C18.4735 18.1356 18.6015 17.9301 18.6788 17.704C18.756 17.4778 18.7803 17.237 18.75 17V15C18.7803 14.7629 18.756 14.5221 18.6788 14.296C18.6015 14.0698 18.4735 13.8644 18.3046 13.6954C18.1356 13.5264 17.9301 13.3984 17.704 13.3212C17.4778 13.244 17.237 13.2196 17 13.25Z" fill="white"/>
</g>
<defs>
<clipPath id="clip0_7362_24427">
<rect width="24" height="24" fill="white"/>
</clipPath>
</defs>
</svg>
